<mxfile host="app.diagrams.net" agent="Mozilla/5.0 (Windows NT 10.0; Win64; x64) AppleWebKit/537.36 (KHTML, like Gecko) Chrome/127.0.0.0 Safari/537.36" version="24.7.7">
  <diagram id="2Sd0wR61uVxz426TiA3P" name="PÃ¡gina-1">
    <mxGraphModel dx="2022" dy="643" grid="1" gridSize="10" guides="1" tooltips="1" connect="1" arrows="1" fold="1" page="1" pageScale="1" pageWidth="827" pageHeight="1169" math="0" shadow="0">
      <root>
        <mxCell id="0" />
        <mxCell id="1" parent="0" />
        <mxCell id="HlVtOMwPOqDMpJ4B43Ry-3" value="" style="edgeStyle=orthogonalEdgeStyle;rounded=0;orthogonalLoop=1;jettySize=auto;html=1;" parent="1" source="HlVtOMwPOqDMpJ4B43Ry-1" target="HlVtOMwPOqDMpJ4B43Ry-2" edge="1">
          <mxGeometry relative="1" as="geometry" />
        </mxCell>
        <mxCell id="HlVtOMwPOqDMpJ4B43Ry-1" value="INICIO" style="ellipse;whiteSpace=wrap;html=1;fillColor=#CDA2BE;" parent="1" vertex="1">
          <mxGeometry x="-60" y="140" width="120" height="80" as="geometry" />
        </mxCell>
        <mxCell id="HlVtOMwPOqDMpJ4B43Ry-5" value="" style="edgeStyle=orthogonalEdgeStyle;rounded=0;orthogonalLoop=1;jettySize=auto;html=1;" parent="1" source="HlVtOMwPOqDMpJ4B43Ry-2" target="HlVtOMwPOqDMpJ4B43Ry-4" edge="1">
          <mxGeometry relative="1" as="geometry" />
        </mxCell>
        <mxCell id="HlVtOMwPOqDMpJ4B43Ry-2" value="DENTRO DA TELA PRODUTO CLICAR EM REMOVER" style="whiteSpace=wrap;html=1;fillColor=#CDA2BE;" parent="1" vertex="1">
          <mxGeometry x="-60" y="250" width="120" height="100" as="geometry" />
        </mxCell>
        <mxCell id="HlVtOMwPOqDMpJ4B43Ry-7" value="" style="edgeStyle=orthogonalEdgeStyle;rounded=0;orthogonalLoop=1;jettySize=auto;html=1;" parent="1" source="HlVtOMwPOqDMpJ4B43Ry-4" target="HlVtOMwPOqDMpJ4B43Ry-6" edge="1">
          <mxGeometry relative="1" as="geometry" />
        </mxCell>
        <mxCell id="HlVtOMwPOqDMpJ4B43Ry-4" value="APARECER NA TELA ESPACO PARA DIGITAR MAIS&amp;nbsp;" style="whiteSpace=wrap;html=1;fillColor=#CDA2BE;" parent="1" vertex="1">
          <mxGeometry x="-60" y="390" width="120" height="100" as="geometry" />
        </mxCell>
        <mxCell id="HlVtOMwPOqDMpJ4B43Ry-9" value="" style="edgeStyle=orthogonalEdgeStyle;rounded=0;orthogonalLoop=1;jettySize=auto;html=1;" parent="1" source="HlVtOMwPOqDMpJ4B43Ry-6" target="HlVtOMwPOqDMpJ4B43Ry-8" edge="1">
          <mxGeometry relative="1" as="geometry" />
        </mxCell>
        <mxCell id="HlVtOMwPOqDMpJ4B43Ry-6" value="DIGITAR MOTIVO" style="whiteSpace=wrap;html=1;fillColor=#CDA2BE;" parent="1" vertex="1">
          <mxGeometry x="-60" y="530" width="120" height="60" as="geometry" />
        </mxCell>
        <mxCell id="HlVtOMwPOqDMpJ4B43Ry-11" value="" style="edgeStyle=orthogonalEdgeStyle;rounded=0;orthogonalLoop=1;jettySize=auto;html=1;" parent="1" source="HlVtOMwPOqDMpJ4B43Ry-8" target="HlVtOMwPOqDMpJ4B43Ry-10" edge="1">
          <mxGeometry relative="1" as="geometry" />
        </mxCell>
        <mxCell id="HlVtOMwPOqDMpJ4B43Ry-8" value="ESPACO PRENCHIDO" style="whiteSpace=wrap;html=1;fillColor=#CDA2BE;" parent="1" vertex="1">
          <mxGeometry x="-60" y="620" width="120" height="90" as="geometry" />
        </mxCell>
        <mxCell id="HlVtOMwPOqDMpJ4B43Ry-13" value="" style="edgeStyle=orthogonalEdgeStyle;rounded=0;orthogonalLoop=1;jettySize=auto;html=1;" parent="1" source="HlVtOMwPOqDMpJ4B43Ry-10" target="HlVtOMwPOqDMpJ4B43Ry-12" edge="1">
          <mxGeometry relative="1" as="geometry" />
        </mxCell>
        <mxCell id="HlVtOMwPOqDMpJ4B43Ry-10" value="REMOVER" style="whiteSpace=wrap;html=1;fillColor=#CDA2BE;" parent="1" vertex="1">
          <mxGeometry x="-60" y="750" width="120" height="70" as="geometry" />
        </mxCell>
        <mxCell id="HlVtOMwPOqDMpJ4B43Ry-12" value="FIM" style="ellipse;whiteSpace=wrap;html=1;fillColor=#CDA2BE;" parent="1" vertex="1">
          <mxGeometry x="-65" y="880" width="130" height="80" as="geometry" />
        </mxCell>
        <mxCell id="H_enF2D5IlYLmPE2KBbE-3" value="" style="edgeStyle=orthogonalEdgeStyle;rounded=0;orthogonalLoop=1;jettySize=auto;html=1;" parent="1" source="H_enF2D5IlYLmPE2KBbE-1" target="H_enF2D5IlYLmPE2KBbE-2" edge="1">
          <mxGeometry relative="1" as="geometry" />
        </mxCell>
        <mxCell id="H_enF2D5IlYLmPE2KBbE-1" value="INICIO" style="ellipse;whiteSpace=wrap;html=1;fillColor=#CDA2BE;" parent="1" vertex="1">
          <mxGeometry x="230" y="130" width="120" height="80" as="geometry" />
        </mxCell>
        <mxCell id="H_enF2D5IlYLmPE2KBbE-5" value="" style="edgeStyle=orthogonalEdgeStyle;rounded=0;orthogonalLoop=1;jettySize=auto;html=1;" parent="1" source="H_enF2D5IlYLmPE2KBbE-2" target="H_enF2D5IlYLmPE2KBbE-4" edge="1">
          <mxGeometry relative="1" as="geometry" />
        </mxCell>
        <mxCell id="H_enF2D5IlYLmPE2KBbE-2" value="DENTRO DA TELA CLIENTE CLICAR EM REMOVER" style="whiteSpace=wrap;html=1;fillColor=#CDA2BE;" parent="1" vertex="1">
          <mxGeometry x="230" y="240" width="120" height="90" as="geometry" />
        </mxCell>
        <mxCell id="H_enF2D5IlYLmPE2KBbE-7" value="" style="edgeStyle=orthogonalEdgeStyle;rounded=0;orthogonalLoop=1;jettySize=auto;html=1;" parent="1" source="H_enF2D5IlYLmPE2KBbE-4" target="H_enF2D5IlYLmPE2KBbE-6" edge="1">
          <mxGeometry relative="1" as="geometry" />
        </mxCell>
        <mxCell id="H_enF2D5IlYLmPE2KBbE-4" value="APARECER NA TLA ESPACO PARA DIGITAR MOTIVO" style="whiteSpace=wrap;html=1;fillColor=#CDA2BE;" parent="1" vertex="1">
          <mxGeometry x="230" y="360" width="120" height="90" as="geometry" />
        </mxCell>
        <mxCell id="H_enF2D5IlYLmPE2KBbE-9" value="" style="edgeStyle=orthogonalEdgeStyle;rounded=0;orthogonalLoop=1;jettySize=auto;html=1;" parent="1" source="H_enF2D5IlYLmPE2KBbE-6" target="H_enF2D5IlYLmPE2KBbE-8" edge="1">
          <mxGeometry relative="1" as="geometry" />
        </mxCell>
        <mxCell id="H_enF2D5IlYLmPE2KBbE-6" value="DIGITAR O MOTIVO" style="whiteSpace=wrap;html=1;fillColor=#CDA2BE;" parent="1" vertex="1">
          <mxGeometry x="230" y="490" width="120" height="90" as="geometry" />
        </mxCell>
        <mxCell id="H_enF2D5IlYLmPE2KBbE-11" value="" style="edgeStyle=orthogonalEdgeStyle;rounded=0;orthogonalLoop=1;jettySize=auto;html=1;" parent="1" source="H_enF2D5IlYLmPE2KBbE-8" target="H_enF2D5IlYLmPE2KBbE-10" edge="1">
          <mxGeometry relative="1" as="geometry" />
        </mxCell>
        <mxCell id="H_enF2D5IlYLmPE2KBbE-8" value="ESPACO PRENCHIDO" style="rhombus;whiteSpace=wrap;html=1;fillColor=#CDA2BE;" parent="1" vertex="1">
          <mxGeometry x="215" y="630" width="150" height="80" as="geometry" />
        </mxCell>
        <mxCell id="H_enF2D5IlYLmPE2KBbE-13" value="" style="edgeStyle=orthogonalEdgeStyle;rounded=0;orthogonalLoop=1;jettySize=auto;html=1;" parent="1" source="H_enF2D5IlYLmPE2KBbE-10" target="H_enF2D5IlYLmPE2KBbE-12" edge="1">
          <mxGeometry relative="1" as="geometry" />
        </mxCell>
        <mxCell id="H_enF2D5IlYLmPE2KBbE-10" value="REMOVER" style="whiteSpace=wrap;html=1;fillColor=#CDA2BE;" parent="1" vertex="1">
          <mxGeometry x="230" y="750" width="120" height="70" as="geometry" />
        </mxCell>
        <mxCell id="H_enF2D5IlYLmPE2KBbE-12" value="FIM" style="ellipse;whiteSpace=wrap;html=1;fillColor=#CDA2BE;" parent="1" vertex="1">
          <mxGeometry x="230" y="880" width="120" height="80" as="geometry" />
        </mxCell>
        <mxCell id="H_enF2D5IlYLmPE2KBbE-16" value="" style="edgeStyle=orthogonalEdgeStyle;rounded=0;orthogonalLoop=1;jettySize=auto;html=1;" parent="1" source="H_enF2D5IlYLmPE2KBbE-14" target="H_enF2D5IlYLmPE2KBbE-15" edge="1">
          <mxGeometry relative="1" as="geometry" />
        </mxCell>
        <mxCell id="H_enF2D5IlYLmPE2KBbE-14" value="INICIO" style="ellipse;whiteSpace=wrap;html=1;fillColor=#CDA2BE;" parent="1" vertex="1">
          <mxGeometry x="510" y="140" width="120" height="80" as="geometry" />
        </mxCell>
        <mxCell id="H_enF2D5IlYLmPE2KBbE-18" value="" style="edgeStyle=orthogonalEdgeStyle;rounded=0;orthogonalLoop=1;jettySize=auto;html=1;" parent="1" source="H_enF2D5IlYLmPE2KBbE-15" target="H_enF2D5IlYLmPE2KBbE-17" edge="1">
          <mxGeometry relative="1" as="geometry" />
        </mxCell>
        <mxCell id="H_enF2D5IlYLmPE2KBbE-15" value="APOS CADASTRO DO LOTE PRODUCO VEREFICAR ISUMAS&amp;nbsp;" style="whiteSpace=wrap;html=1;fillColor=#CDA2BE;" parent="1" vertex="1">
          <mxGeometry x="510" y="250" width="120" height="85" as="geometry" />
        </mxCell>
        <mxCell id="H_enF2D5IlYLmPE2KBbE-20" value="" style="edgeStyle=orthogonalEdgeStyle;rounded=0;orthogonalLoop=1;jettySize=auto;html=1;" parent="1" source="H_enF2D5IlYLmPE2KBbE-17" target="H_enF2D5IlYLmPE2KBbE-19" edge="1">
          <mxGeometry relative="1" as="geometry" />
        </mxCell>
        <mxCell id="H_enF2D5IlYLmPE2KBbE-31" value="" style="edgeStyle=orthogonalEdgeStyle;rounded=0;orthogonalLoop=1;jettySize=auto;html=1;" parent="1" source="H_enF2D5IlYLmPE2KBbE-17" target="H_enF2D5IlYLmPE2KBbE-30" edge="1">
          <mxGeometry relative="1" as="geometry" />
        </mxCell>
        <mxCell id="H_enF2D5IlYLmPE2KBbE-17" value="QUANTIDADE DE MATERIAIS CORRETO" style="rhombus;whiteSpace=wrap;html=1;fillColor=#CDA2BE;" parent="1" vertex="1">
          <mxGeometry x="495" y="390" width="150" height="80" as="geometry" />
        </mxCell>
        <mxCell id="H_enF2D5IlYLmPE2KBbE-22" value="" style="edgeStyle=orthogonalEdgeStyle;rounded=0;orthogonalLoop=1;jettySize=auto;html=1;" parent="1" source="H_enF2D5IlYLmPE2KBbE-19" target="H_enF2D5IlYLmPE2KBbE-21" edge="1">
          <mxGeometry relative="1" as="geometry" />
        </mxCell>
        <mxCell id="H_enF2D5IlYLmPE2KBbE-19" value="SEGUIR COM VIABILIDADES" style="whiteSpace=wrap;html=1;fillColor=#CDA2BE;" parent="1" vertex="1">
          <mxGeometry x="510" y="510" width="120" height="90" as="geometry" />
        </mxCell>
        <mxCell id="H_enF2D5IlYLmPE2KBbE-24" value="" style="edgeStyle=orthogonalEdgeStyle;rounded=0;orthogonalLoop=1;jettySize=auto;html=1;" parent="1" source="H_enF2D5IlYLmPE2KBbE-21" target="H_enF2D5IlYLmPE2KBbE-23" edge="1">
          <mxGeometry relative="1" as="geometry" />
        </mxCell>
        <mxCell id="H_enF2D5IlYLmPE2KBbE-21" value="CONTAGEM PEÃAS" style="whiteSpace=wrap;html=1;fillColor=#CDA2BE;" parent="1" vertex="1">
          <mxGeometry x="510" y="640" width="120" height="90" as="geometry" />
        </mxCell>
        <mxCell id="H_enF2D5IlYLmPE2KBbE-26" value="" style="edgeStyle=orthogonalEdgeStyle;rounded=0;orthogonalLoop=1;jettySize=auto;html=1;" parent="1" source="H_enF2D5IlYLmPE2KBbE-23" target="H_enF2D5IlYLmPE2KBbE-25" edge="1">
          <mxGeometry relative="1" as="geometry" />
        </mxCell>
        <mxCell id="H_enF2D5IlYLmPE2KBbE-35" value="" style="edgeStyle=orthogonalEdgeStyle;rounded=0;orthogonalLoop=1;jettySize=auto;html=1;" parent="1" source="H_enF2D5IlYLmPE2KBbE-23" target="H_enF2D5IlYLmPE2KBbE-34" edge="1">
          <mxGeometry relative="1" as="geometry" />
        </mxCell>
        <mxCell id="H_enF2D5IlYLmPE2KBbE-23" value="QUANTIDADE DE PEÃAS" style="rhombus;whiteSpace=wrap;html=1;fillColor=#CDA2BE;" parent="1" vertex="1">
          <mxGeometry x="505" y="790" width="130" height="80" as="geometry" />
        </mxCell>
        <mxCell id="H_enF2D5IlYLmPE2KBbE-28" value="" style="edgeStyle=orthogonalEdgeStyle;rounded=0;orthogonalLoop=1;jettySize=auto;html=1;" parent="1" source="H_enF2D5IlYLmPE2KBbE-25" target="H_enF2D5IlYLmPE2KBbE-27" edge="1">
          <mxGeometry relative="1" as="geometry" />
        </mxCell>
        <mxCell id="H_enF2D5IlYLmPE2KBbE-25" value="SEGUIR C/ PRODUCAO" style="whiteSpace=wrap;html=1;fillColor=#CDA2BE;" parent="1" vertex="1">
          <mxGeometry x="510" y="920" width="120" height="80" as="geometry" />
        </mxCell>
        <mxCell id="H_enF2D5IlYLmPE2KBbE-27" value="FIM&amp;nbsp;" style="ellipse;whiteSpace=wrap;html=1;fillColor=#CDA2BE;" parent="1" vertex="1">
          <mxGeometry x="510" y="1050" width="120" height="80" as="geometry" />
        </mxCell>
        <mxCell id="H_enF2D5IlYLmPE2KBbE-33" value="" style="edgeStyle=orthogonalEdgeStyle;rounded=0;orthogonalLoop=1;jettySize=auto;html=1;" parent="1" source="H_enF2D5IlYLmPE2KBbE-30" target="H_enF2D5IlYLmPE2KBbE-32" edge="1">
          <mxGeometry relative="1" as="geometry" />
        </mxCell>
        <mxCell id="H_enF2D5IlYLmPE2KBbE-30" value="INDICADOR DE FALTA DE MATERIAIS APARECE" style="whiteSpace=wrap;html=1;fillColor=#CDA2BE;" parent="1" vertex="1">
          <mxGeometry x="740" y="400" width="120" height="60" as="geometry" />
        </mxCell>
        <mxCell id="H_enF2D5IlYLmPE2KBbE-32" value="VEREFICARC/ CLIENTES" style="whiteSpace=wrap;html=1;fillColor=#CDA2BE;" parent="1" vertex="1">
          <mxGeometry x="940" y="400" width="120" height="60" as="geometry" />
        </mxCell>
        <mxCell id="H_enF2D5IlYLmPE2KBbE-34" value="INDICADOR FDE FALTA DE PEÃAS" style="whiteSpace=wrap;html=1;fillColor=#CDA2BE;" parent="1" vertex="1">
          <mxGeometry x="720" y="800" width="120" height="60" as="geometry" />
        </mxCell>
        <mxCell id="H_enF2D5IlYLmPE2KBbE-37" value="" style="endArrow=classic;startArrow=classic;html=1;rounded=0;entryX=0.325;entryY=1.067;entryDx=0;entryDy=0;entryPerimeter=0;" parent="1" target="H_enF2D5IlYLmPE2KBbE-32" edge="1">
          <mxGeometry width="50" height="50" relative="1" as="geometry">
            <mxPoint x="840" y="840" as="sourcePoint" />
            <mxPoint x="890" y="790" as="targetPoint" />
            <Array as="points">
              <mxPoint x="979" y="840" />
            </Array>
          </mxGeometry>
        </mxCell>
        <mxCell id="H_enF2D5IlYLmPE2KBbE-39" value="" style="endArrow=classic;startArrow=classic;html=1;rounded=0;entryX=0.5;entryY=1;entryDx=0;entryDy=0;" parent="1" target="H_enF2D5IlYLmPE2KBbE-32" edge="1">
          <mxGeometry width="50" height="50" relative="1" as="geometry">
            <mxPoint x="630" y="1090" as="sourcePoint" />
            <mxPoint x="680" y="1040" as="targetPoint" />
            <Array as="points">
              <mxPoint x="1010" y="1090" />
            </Array>
          </mxGeometry>
        </mxCell>
        <mxCell id="OJ_15BZ6CnOvVyB0WR51-1" value="" style="rounded=1;whiteSpace=wrap;html=1;fillColor=#B266FF;" vertex="1" parent="1">
          <mxGeometry x="-120" y="1180" width="310" height="500" as="geometry" />
        </mxCell>
        <mxCell id="OJ_15BZ6CnOvVyB0WR51-3" value="" style="rounded=1;whiteSpace=wrap;html=1;fillColor=#B266FF;" vertex="1" parent="1">
          <mxGeometry x="270" y="1180" width="310" height="500" as="geometry" />
        </mxCell>
        <mxCell id="OJ_15BZ6CnOvVyB0WR51-5" value="" style="rounded=1;whiteSpace=wrap;html=1;fillColor=#B266FF;" vertex="1" parent="1">
          <mxGeometry x="660" y="1180" width="310" height="500" as="geometry" />
        </mxCell>
        <mxCell id="OJ_15BZ6CnOvVyB0WR51-7" value="" style="shape=image;verticalLabelPosition=bottom;labelBackgroundColor=default;verticalAlign=top;aspect=fixed;imageAspect=0;image=data:image/png,iVBORw0KGgoAAAANSUhEUgAAAfQAAAH0CAYAAADL1t+KAAAAAXNSR0IArs4c6QAAIABJREFUeF7snQl8nlWV/8999nfLvrXN2qRpk+4lXSgFJlqEqeIGRlmEYVdUUBwdFZc6/nGfQQEXBEF2DQI6xYpaDUgpbUmXtE3TNumSJk3Splnf9Vnv/3Pu2+I44yiFJnnz5rzzYWrp2+e593ue8Hvuvef8DgP6EAEiQASIABEgApOeAJv0M6AJEAEiQASIABEgAkCCTg8BESACRIAIEIE0IECCngZBpCkQASJABIgAESBBp2eACBABIkAEiEAaECBBT4Mg0hSIABEgAkSACJCg0zNABIgAESACRCANCJCgp0EQaQpEgAgQASJABEjQ6RkgAkSACBABIpAGBEjQ0yCINAUiQASIABEgAiTo9AwQASJABIgAEUgDAiToaRBEmgIRIAJEgAgQARJ0egaIABEgAkSACKQBARL0NAgiTYEIEAEiQASIAAk6PQNEgAgQASJABNKAAAl6GgSRpkAEiAARIAJEgASdngEiQASIABEgAmlAgAQ9DYJIUyACRIAIEAEiQIJOzwARIAJEgAgQgTQgQIKeBkGkKRABIkAEiAARIEGnZ4AIEAEiQASIQBoQIEFPgyDSFIgAESACRIAIkKDTM0AEiAARIAJEIA0IkKCnQRBpCkSACBABIkAESNDpGSACRIAIEAEikAYESNDTIIg0BSJABIgAESACJOj0DBABIkAEiAARSAMCJOhpEESaAhEgAkSACBABEnR6BogAESACRIAIpAEBEvQ0CCJNgQgQASJABIgACTo9A0SACBABIkAE0oAACXoaBJGmQASIABEgAkSABJ2eASJABIgAESACaUCABD0NgkhTIAJEgAgQASJAgk7PABEgAkSACBCBNCBAgp4GQaQpEAEiQASIABEgQadngAgQASJABIhAGhAgQU+DINIUiAARIAJEgAiQoNMzQASIABEgAkQgDQiQoKdBEGkKRIAIEAEiQARI0OkZIAJpTmD37t+VRKMuX7FiTXeaT5WmRwSmNAES9Ckdfpp8uhPYsuXZ3PKy6nv8us537tn/ifPPf9dQus+Z5kcEpioBEvSpGnma95QgsHfX79fMrK64y/M46+zs+lJNzdvXTYmJ0ySJwBQkQII+BYNOU54aBJqaGoM1VWXfz8oJXMo5Z51dPb/r7ev5eH39dcNTgwDNkghMLQIk6FMr3jTbKURgU1Nj1cLF1T93PfMcnLai6S3bduy79vzzP9QyhTDQVInAlCFAgj5lQk0TnWoEujtevnlGaf4XQeUliWgEYtHE4PCw+d1tLYPfbmhocKcaD5ovEUh3AiTo6R5hmt+UJLBp0ws5C2qnP6YqziUeT0iu50EgkAmjYecPr23bdcXq1dcOTEkwNGkikMYESNDTOLg0talLoOW1385esKTmeTsxVOXxBGiaBrYDoEjBjuaW3VcsX35589SlQzMnAulJgAQ9PeNKs5riBA62/fGKmVVl/+FZkWnRRBj8fj94XAZF8p3ct//gXbUL13xviiOi6ROBtCNAgp52IaUJTXUCzc3r/JXFRfcHM7T3xCOjoWDID0zVwbEcYEx3hgYjv92y48C173rXVVSTPtUfFpp/WhEgQU+rcNJkiABA88bG0rnzap4GyVwmMxdUVQbTdoFzGSRZA8dme/a2tl+x9Lz37yFeRIAIpA8BEvT0iSXNhAgIAntafnPFzLJp31ZUXuxYEZBlGbRAEBzTA9djoOsZg+0HOr765NOv3rd27VqPsBEBIpAeBEjQ0yOONAsiIAg0NTUW1VTN+FF+fuBSx43JmqFDPDwCsqqD5zEwfFmQiDnQ1d37+8HjkRtW1F9G/u707BCBNCFAgp4mgaRpEAEk0Nqy/m0lJbk/Ycys1A0JwMVzcwYek4CBAkwyQJF9mCDX2draceuCxf+8nsgRASKQHgRI0NMjjjQLIgAbN/46VFaac3dutn6VL6AYdnwYHMcGn88Hpu2BLOmQMD0I+DMhGjPNgcHo0x2HTn5y9er3U006PT9EIA0IkKCnQRBpCkQACWze/MtZi+ZVNkpSYlEiPgQ+nwZM4gBcEoKuqj4A0MB1GTBJBdeR9+7d33X10qVrdhBBIkAEJj8BEvTJH0OaAREQBNpb119fMC30/xgzp4UCClh2DCRJAs4ZeKAAcBmAaSAxBbj4vTrYffTk1xK7+n84t6HBIoxEgAhMbgIk6JM7fjR6IiAIbNz41PS51aU/U1TrIl9AAtsMA2MAkiS/LujJM3QNGJOAgwTANYhFvA2t+7uuXbXqPT2EkggQgclNgAR9csePRk8EBIGWrU+9vXLWjAcAYhX+gAymmQDDr4OVsAFABo+rwJh8StDxx54B92SQWfBQy662m85Z/v4/EUoiQAQmNwES9MkdPxo9EYAtG+7LLa4u/1Z+fsaHuRfTNEOCeCwCnueBquC5eVLQJUkDQFFnDDjHs3UZND0zNjoUbdy1ed8d55NzHD1NRGBSEyBBn9Tho8ETAYAjHb9amZsdeCAYUmtNexQsKwaKooBh+MG2ULhV4Ay32vEMXT6FzBNb8fGIC1l50/bt3dV2+dxF724lnkSACExeAiTokzd2NHIiAE1NTUrZ9N5vVlSWXhuPDebpBgOPO2J1jlvqDDQArvyVoDPGAZgnst9dSwYjkH385Imh7+bd/8J/MnKOo6eKCExaAiTokzZ0NHAiANDc/GTenMqcZ5nknK/pDBhYIhnOchwh5BLTRfKbB6rIbgeJi8z30+VsjoX16T7XtuXf7m0/el1d3aUniSsRIAKTkwAJ+uSMG42aCAgCra1PLKqdM+2X0chwJWMu6JoMjuOApMjAPQkAFOCeAgxw210CWVaByZI4R8d/h4KOK3lF0nbt23foirlL3ruX0BIBIjA5CZCgT8640aiJACa2sZ7upz6ek62v1XU9x7Ti4DkuaBomwElgWVayDh0wEQ4FHVfshrCABaaKs3XwZLBtE3SffOJYV+/nSisvfZjQEgEiMDkJkKBPzrjRqIkAtDb9IFi8qOjnuu68U5bRAc4F8JJb6gBcnKOLrXX8MFyl6wBMBwaGMJjBrXiFaWBaCdB9YIVHIy/sbuu86bzzrjlBeIkAEZh8BEjQJ1/MaMREQBDYvuXHdfMWlT7Ovchs7KQmzsY5OsNh73PvlEtcUtBxlZ4sW0sKOgdcoSvAuAKKIglXOU01OlpaOhoWLb2crGDpGSMCk5AACfokDBoNmQi0NjZq2SvlL+YXGh9z7ViO63qi77kE6AyHIo6CzsDzTgt68hwdJBR07ZT1K56d6zA8PAzZOSFgiu9kT2fvd4djA3fPnUtWsPSUEYHJRoAEfbJFjMZLBABg69aHSqqq8h4zDO9CCdAN7rRZTDLhTcJUd/DA9U7jQkHHLHftfwi6Kl4ETNMEXffB6GhiQ1vHgetWrLia+qTTk0YEJhkBEvRJFjAaLhFAAkc6flGfk2/8UGbWHEVNirjrcLE6x613FHTPBQDp1I84bq9jUxamCmEXzVmAiRU9A0yMw216Boqs7es6dvxjVXMuJitYetSIwCQjQII+yQJGwyUCLS2PBgoKfN/Kyw1e7VixTHF2Luxck6v0ZFIcgOdhcxYJuIfd1jDTHcUbhV0W5+f4weYtrstBFtawCiQSiSHTdZ8/0NL+qeWrr6U+6fS4EYFJRIAEfRIFi4ZKBJBAW9vD8ytnTnvA9eLLRbtznvwxPi3sgJ3UxPobz9PFn+CJuvj1L4Ke/I5t2+DzB8CJM1HmhglyqqG1tHccvnn23PdtJeJEgAhMHgIk6JMnVjRSIgCNjY3yuec6dxYX534kHg9PAxdX58mGK6f/QUtXD1fsHgNF0cRK3XUwaU4VBDXNgHjMBFXF2nQA13ZBl0MQj8dBN2SwXGvQNr2fbd5++MsXX3xNlLATASIwOQiQoE+OONEoiYAg0Nx8f2nVrIIHPTd+USgUAhR0PCsXNei4Ksezc0yI439ZkVuWIxq1nF7Bi7N19JBTFHDwN1wGycWtdxc0XYJ4PAqypm9o33vk+vnLrugi9ESACEwOAiTokyNONEoiIAh0dj550fTpWT+IREZmBYwASEwDx3GTJjIo5LIkxByd4YCh2EvQ3z8AiqJCRkYG6KoGsiwJ8cZ/mCxjIhy4CQ8kGUUeIBINQzAz89CxrhNXFVes2UzoiQARmBwESNAnR5xolEQAmpvX+auq4LuMJW40VE3FzHRN9Yktdfxg+Rk/nRyHRjLoBgcyPPPL53oBpOgll1xSlZkRFOVstm2J77sebtXLwFx8IeAgSxziiTD4MrL6o1Hroe5dJ++as+o9YcJPBIhA6hMgQU/9GNEIiYAg8NprP509b96MxzSNL41H4hDIyAEn7vwVHVdYviatXlHQVcXo/M53vv/FzIyM+IevufprfkOvQc93w6eB6+C3FdHMxVBksJ0ESAxX+w7IigZM1je37jp09fy6Dx2kEBABIpD6BEjQUz9GNEIiIAj09D1z47TCvK8kEsPF4EggSdgSVXvd4tV1bXCxthzL0rAZC5finUd6ntrVevAOAM2aV1P+jTnVlVdbdixXNGTRdZBkXZjK+DUZLDsOEq7SZQaWY4PuCx0bHbX/LTNn1RMUAiJABFKfAAl66seIRkgEYMuWR3KXLat4MhIdfIeqSACODLrqB9vyRHKbh65wmBgnySKz3XEZxGPWnrYDh64999zrtyPCpt//ZNE//dPKRzi3F3jcOtW8xQB8EVCYA55niSN4/NiuA0xWHVUL/PG1bUevWr78/VSTTs8hEUhxAiToKR4gGh4RQAKHDj27sKQk+DyAXcw8DrIWgPhIVKzQNU0HDslEN0xskxQFIlF7eGgoes+h1zq/U9/wsQheY1Pjf/qK62q/WFycf7NlJfJESZuLPdIZWGZYJMQpMgPXdcADDugPr/szOo509F02c857dlEkiAARSG0CJOipHR8aHREQBI4f//WnCwqy7ozHRrJ9fh3MaAS7o4lsdtuUQJb84HIPPJ4QFWuGP6dt69Y91yxffk3zf0e4bfPPzlmyvO4xKzxag4KOter44WAC92zwuAnAnKTbHJNB9YeOdx8d+HpJ2TvvoVAQASKQ2gRI0FM7PjQ6IoC155k1cyoeAzAvNTQFJFUBMzosytRUJQDAdXBtHTzOQDMAYoko6Hrg9y9v2nFtff3H+v47wqamh4tqqgofyc3OeweWq2G5GwesRbfB82zgYAlBx4x3zH73uGwD8/9m56vtN5IVLD2MRCC1CZCgp3Z8aHREAHbtenJOdWXek7LqLkYTV9EZTQi7AVbcBk3LEKLuOR7EExEIZIQGO4/2/rjs0Z1fYmvXvt5v7TTKIx2/+UxZZfWnrdGhQjx/59itTWS3WwAo6JD8K/jCgGfxupG1s2Vn+3WLl121k8JBBIhA6hIgQU/d2NDIiICwel2yiH+spCzzy7YdyVVYsqmK53DRIS0jMwfMBNajh8B2PdGcRff5Dx7q6Lqicva7X/tbCNtbf1VbVlb+K1WWZmFyHOdJQRerc442cijopxq8cAaOx473D45+5/Dhlu/X16/96zo5ihERIAIpQ4AEPWVCQQMhAv+bwKZNj1XVzMn9ma4753luDFRZA0U2wEw44PMHwXEAHI+D4QsJLWZMiYGSse3FF7e+v77+ypN/i2nrphdyapfMeo5D/FzXS6go5BJDYXcA+7KJZi/COpYBZxwkRcXs+T/t2t12/ZIlN3ZSnIgAEUhNAiToqRkXGhURwNU2O3Lwv64pr8y/y4z1zUDjF0VKZqZLTE9muBsGuJwD+rVrqh9k1d/d2zP81eklFzz49xAO9DTfnpMb+KTtRMqB2cDABBBV7JghJ2ENu1jtg4RGNS5IqtTZe/zkZ0tLG55meMBOHyJABFKOAAl6yoWEBkQEkgQ2b36ycNGCkgfCkZ5LMzMUUV7GXRksE8DnywLHciFuJsDwJxuvcC6Doue0bH919+XnrGzo+Hsc23ZuqJ4zt/w5yxyuBWaKFboQdCYD95LXwoQ5AHSN84Cpnjs8EvnNoUO9tyxb9teJdhQvIkAEUoMACXpqxIFGQQT+F4Fd2588t2be9IdNa3C2ItlCtCVQALgGzNXAw37nDF1ek+fdiYQXlnio8cDh7n9dvPh9w38PaXPzHzKrZ+bfq2velcASMuMWMAn93CXgngyei73UOeDqXVYcCMcHITMj+8CBfd231My/7kUKFxEgAqlHgAQ99WJCIyICsGlTo6+02Ph6Vja7XmZWhqJ4SUHHLmpcA3AVLCkTgh6ORSEYxFW6sf9o5/DnKqrW/OqNIOw6+KfLikun3WVZI7PFKpxxiEbj4DOCIHnYxQ3d4rCMzQSXxdC4xgqH3Z8O7nc/O7e+QZjV0IcIEIHUIUCCnjqxoJEQgdcJbN7841kL51c9wr3IuUyyRRe004KOK2iJK+ByCWzHA1lThfhKsv+FjtahW+bVvfvoG0G5d+8L06rKZjyiKN5Fo+GToGoS+AMZ4NoeRIZjkJmTA/HoIPgCDCwvDJFIBHJyS5pffXHvFSvrb/y7W/pv5P70HSJABM4uARL0s8uTrkYE3jIBTIbbt+9nN5aX5X2Ru2apxDxQJOxxjq1OGXBRJo6CLgOTVPRcB1kN9hw90v3V/oETD9fV3WK/kUFwvlYaPPHPn8zKCnzCtsPliiKJFwNZVkXinWizakXAH5AhnhgGf0YQzIjXe/JE5Nubttn3NjQ0YI0bfYgAEUgRAiToKRIIGgYROE1g56ZHZixcUfJgIj5wCcNzbGAggyy2xOFUgjmKOgq6qgXAtBn4Ahkb92xr+5f5df9yRq1OW7f9uqp2Se3PPDN6HrZNddxkn3TMdPe4A7oKEE+Mgi8gQywaBcdmEAjkbjzQ1nd17ZLLqISNHlsikEIESNBTKBg0FCKABFpbH3rbrFn53+NedD53cGWugCTqwlHb7aQRjFg/K+C6Ovgzik6e7B345cCh3s/OWXVD+EwoNjev88+pmn6fbScuy8rLy7CiI2DZCQgEfGDbFnhYKoeV6mYUfD4fuC4HxQh1dO7v/Gx57RXPncm96LtEgAiMLQES9LHlS1cnAmdEAJPhqqvV+zKz+AdsMxKSmQ7AVZGkxtE5RsLmKVhixkWWu67lAyihA+3tx26qrr7sz2d0s1NfPnrohfNLKqp+YCdG57u2BbKSrD1HT3dF4uK+3HNA9ekQD4dR1IeZJD97cOvgbQsvvib6Zu5Jf4cIEIGzT4AE/ewzpSsSgTdN4KWXHqiYNy/n5zk5yrLR0T7wadkgeTpwTwGO++xSPCnouFJnKqhSfszzfE3bdx+8cdmy6/6qEcsbHUTblmdzS+eUPqrr2hrsuua4WJeOgu6CZ+O9PDAMH3DXBnEEoCoQHx19af/+vn9ZfO5Hj7zR+9D3iAARGFsCJOhjy5euTgTOiMDhw7+8uLw868dDg4fKQ0G/qDfHFTr3VLHJzlkCMOsdTWA8UEFT87tPHI/fvbd92z1vxWd98MSWO30B7SPAnWKJ2WKb3TYjoGoymPEYqJoijGaY5ya35HNyjx7c23VL1dzrXjijCdKXiQARGDMCJOhjhpYuTATOjEBT08PGvNrQ9wM+9zpNdVXXdkCWdEDDNlnGunMOHneBYdKa2HRXQfPl7t65s/2yxYuvaz+zu/31t1tafjt7wYLaZ+LhwbmK7IGEtedOVDjIYY/0ZDtVbLSK5XN4du9G4jH5sUO7Tny+7qJbRt7KvenvEgEicHYIkKCfHY50FSLwlgnsePVH5fOXlP7CdSPLuG2BqqoAHjvl2Cbapghx5+jmBhIw2RdzbOW55u0dH6mv/9hbMnpB57jKisKHdYW9T5MdsO1RMHwAnh0B3IYHGWvlPHBw11+Sxf1tS2o51DH4oQV11+17y5OnCxABIvCWCZCgv2WEdAEicHYI7Gt95PKKitzvMBYrByeZyc64JAxlcHUubF6ZDC5Wr0kKqHpGz8kB61v5+ZfcezYapuxv++PHq+dUfRHM4ULuxcBzo6JpCwo6w+Q4xsF23aTBjaKA5+g9Rw713zF7/rW/ODsE6CpEgAi8FQIk6G+FHv1dInCWCGzYcF9u3eKqHwKMXqZrXFaAg+vZIDMFFEUBG/ukSkyYvmC7VEmYyWTsbt159Or551y762wM49ihjbPzC7L/S5ET1cATwCABnoeWr0lBT2bWYwe25EuG66ncjMtP7GrrvO38828dOhtjoGsQASLw5gmQoL95dvQ3icBZI7Bt88/OqZ5T9ABjkcWqwkGTsUmKB57DQVYlsG1btDLF82vb5cAk3bJsZcO+HZ03LKs/O93P2rZsyJ2zrLIxNtT1NsPwhKADx+13zKxHL3nsj46eM3iezoTJDPcC2w8dPHbd/HNuOisvFWcNKF2ICExBAiToUzDoNOXUItDa2KiF6tQvZmUqt/p8PFeRXRgaOAmZmZlC0CWFge2YoKgqeAy337FJi3Gk/2Ti6d7jA2vr6m6JnY0ZoRVs37H6b2eHpA/oulfquTGQGAo6bru7IMuSeKnAs3T8WA6ALzTtxMH93fcdODTw7TVrbsOm6vQhAkRgggiQoE8QeLotEThN4OWXfzhz4bxZD+qaXW/bYTA0GVPeRJkY2rHi9jZasqqaBo4nJf3bQX/twKHBm+fOvWrn2SS5d+/z82qqZ/zUip1chpnuisyFoOMKHQVdmMwwT/wex8K5DpZjvNTe0Xf90qXXHzqbY6FrEQEicGYESNDPjBd9mwicdQIH2p66srQ472uy4sy04kOi5ltmyUYp2DAFPzZ6rGsqmAkPu6r1O47yQtu2w59avvrjA2dzQM3NjZmlMzLvz88PvtOKDwdlyQF0j8MzdNxyxxcMDjZIStLv3fFkUOTQsSNHB748a87VD53NsdC1iAARODMCJOhnxou+TQTOKoENGx4oXDS/6Ad+n3SZx+PgUyWw7LjIbsdkOMexxHm1osliux2N23zB/L3793Z+fM68a5vO6mBOXezg3mfeWVqe913uxedIYAsLWLR+RTtYrEVHa1j8uNwDJvkgGnOBeb7/au/s+Uhd3S29YzEmuiYRIAL/mAAJ+j9mRN8gAmNGYOfOR1fNrMj5sa6wuQAmaHhejlvcXrJVqqKrYCcSYpubyTo4ruIC87+8b+f+q5as+kTPWAxs+/anpi+eV/mUlRi5AL3jZWaL5Dix3Q5JUcexYca7IhvgcgUkyX+gvb33I2P1kjEW86RrEoF0I0CCnm4RpflMGgJNTT8IVpTkrc3OVm9WZC8kyR6oeE7tOmKFjmfoLneE/arjYh24AkagoKe3a/Denl3999RdenaS4f4nMEzSy12Z/Zn8XON22x7JR1GXhJC7AFgPj2512Js96RgHkmKAxHyjnZ39D/b0O2tXnWHHt0kTMBooEUhxAiToKR4gGl76EsBkuPlzy55QZHMFJp9JEgcZG7AAlpyjd7oNkiyL83NV1WEkYkJmTsXurVv3fnj58htaxpLMtm1PLliyYNbjiUT/fIAY+sIBvnBgO3bOcYUuA5OS5/si896VIRFjW48cGbxm4dIb9o/l2OjaRIAI/G0CJOj0ZBCBCSDQ1LRWycoo+eDcuaXfcJ1ICQo6Greg5SuufiVAe1XseMbAtBOgaQa4oI+MjsJv23f13n7exR89MZbDfvnlJ7Kry/Puz8pmH+AQBsYTIIkx4ocB8xRhdCO23xUVnIQLarCgf/dr+z+170jWzxsaGtyxHB9dmwgQgf9NgASdngoiMAEEmpruLl9aN/cnkmRf5Dlx7Eia7EHu2KJMTVi+ysnsdiMUgthoDDR/dvux7ujnTg4NrquruyXpDTuGn907nnrnzMqc78lytEqSEsC4g3sHrws6WtDani1eQDRZA89RQVYy1zW/2nHTitU3HR/DodGliQAR+BsESNDpsSACE0Dg4MFfXDZjRvY3XMecBV4CNBWtVG1QOANZUYC7LjC0fLXikDBNCGXlmV2dJ9cf7o7ffuGFH+sajyH/+c8P5c+elfVgMOC+W9dd0XUNNw0kSQXgGriOB4ohC0G34gmQJT8AD+7v6R7917Ka9z8/HmOkexABIvAXAiTo9DQQgXEmgMlw82qLf6Qb7uUy4wZwF1QUdNsENGPDLmu2aYla76SpDANFDfYcOdL/jc6eww/W169NjMeQ8VigtHTOv+Zky/8aCkEu90yRBKcwFZ3qwBMWtB5E4hHICGSIGnlVzopaptG4re3A7ZQcNx5RonsQARJ0egaIwIQR2Lr1oZKF86c1SlJihfBqx4YnzBW13mirytAvnQO4LgfdCIFtcVD17JZdLR1XL1x6457xHPjWrT9ZNG9B2c85D88GSIAuKWDGTDCMoBB3YMkzf1nVIRZ1QVezQPEXbtv2yq7316265uh4jpXuRQSmOgFaoU/1J4DmP+4E9ux8dNXchaU/Cw91VxqqniwBg2SNN+5p4+8xk9wTvdBV0DMKolYENry8peWW1as/Oa5n05s3P1A4s7roKV0x6zXNA/AcUCQZJK6IjHemuhCNhCGQmQOOySGRkCCYVXZoZ/O+GxYvveLFcYdLNyQCU5gACfoUDj5NffwJrF9/jz5nVuGXS0sDHwFI5Hi2J3zb8YP13eiRjpnjIuOdSyDLPmBK6FhPd/ie3oETd49HMtx/p4Lb7gVFFbfVzplxWzQ6WIbGNzha5jFIJBKg6SA85m3HA+4poPnzIBHjkVhYenDTa/vuvHSMauXHP3J0RyKQ+gRI0FM/RjTCNCKwuemB4pr5MxoDQftc24yAIqNAyiJ7HFflopPZKVHnmFEu+UAx8jtee6X1vctW3dw6ESja2n5eXVKa+Zyh81rummDG4xAw/KI7OprNYCc47LymKgZoRjbE4x4kYtKrLa2HGurrb+qeiDHTPYnAVCRAgj4Vo05znjACB3Y/9c5Z80rvj4e7ZxgaA8+1RYkacEWUg6GdKkdzGckVvc8tWx7WtNwXtr3S+fHlq689q41Y3igBceJAAAAgAElEQVSEzZvvyZhdM+txTXYuVbEWndugKtgoJgayjFa1NvhCmaJZy9BQGAxfNvh8eb3bt+2/5ZxlV657o/eh7xEBIvDWCJCgvzV+9LeJwBsmsHn9PRmltQX3BUPyh3UNt6gToIquZZgFpwtRTwq6CyA7wGQVFCPv0MEDx/59e4vy+ESatXR0/PwTeXnBr8qSm82EoEugycmOcOK8n0mgqQYwSQPMlbNs1RoajD3d1n7o9tVnuSPcGwZOXyQCU4wACfoUCzhNd+IIvPrqD2qWL579JGPRRbYZA1WD5Aodk9/AJ2q7PY7/2wWGgq6o4Hm+F1taO25YuvTWCe013rzp4Tmza8uelhVznqZy8BxbtFTF4wJM4sMjA8zKNy0bdC0Aqh6ESMRpaTtw8Kply/5lQo4KJi7SdGciMDEESNAnhjvddYoRWLt2rXTV5eW3l5Zmf8b1wtNwhYsdzGRRroaFaz5g4ANPeKV7wBQHZMXXPzQcf3Zve9/nzz//1qGJRLZx409DxcX592dlqldIkgUBHzrD2cC5DBKTRSMZWVaTmw0e+s9jXp96vLvr5F07W+37GxoarIkcP92bCEwFAiToUyHKNMcJJ7Dx9/dOr64tejArE/6ZMRtkFD7wQJIccC0OHAKgaJlJQxlJgoQVg0BufuuBtq4vVtdc/WuWTH2f0E/H/uevLZoWupMxc5bMkuNkHF3jkgl9YqUuYakdgOOhsGMOAPvDlua9115yCfVJn9Dg0c2nBAES9CkRZprkRBPY3/L422fOyr5PYok5ifgI+P0BsMw4aLosep87tgYMdACmiBIwI2DEBobCv+to675tRf1tKZEp3tT0cNGypbUPcx65RNc4MOF+o4gVOWbmi8+pGnrOGbhcQmv6w4MD0c+UV1/yzETHgO5PBNKdAAl6ukeY5jfhBP7wh/sz51Zn/SA7W28AHlcNI5nR7lgxseXOmAKRiAeq4gc9pxDig8Og+wP797V3fa1135GnGxrWpsx29e7dv7x+9qzitZHwyZJA0A8y14B7kthtwA/+L7HtzjFjn4Gq+JxozFm/u23fTeedd82Ydoib8EDTAIjABBMgQZ/gANDt05/Arl1PnFNVmv2AotqLgZvAXQdURQGmMgArDkkD9xC4cRdicRf8wWyQfaGXmjduu37p+RObDPc/o/PKK0+ULa+reTIeH1oZCPjAs5IJcZiZL7bdk4t0Ieq4BY9n6aPh+N4Tx8M3zV/83k3pH22aIRGYOAIk6BPHnu48BQg0NjZqdYucL1dUTrvFTozmqSpLbrUrKkRjI+DH5DIPS9gkAKaBJPlA8mUda9976OnO3p61F130uZFUwtTU9LBRUTb938sqpl8TGT5Z6NOMvzbFEWfpSTHH8/S4aaIffbT3+OADR7tiX1616j3hVJoPjYUIpBMBEvR0iibNJeUIvPLKfWUL5896mHnxes5t0BQs78LSLlW4wjl2HCTx7zBJTgFZ8YOiZOzYtWv/RxfW3bIl5SYEADt3/nJx7ezyRzxuzZcAfd1xi/1Uzh7HI4SkoEvYOl2WYGQ0CpIUeKVt94EPL7/wmsOpOCcaExFIBwIk6OkQRZpDyhI40Pb4u8oq8u7VJCg3zTjohgF2Iia2qBWVgaRJkAiHwfD7xSrdtKR+SQr+ccuf9912wZrb+lNxYk1NT+YtWVj6mK4rl5z+D4gMyYYyeHKOryanBT0cjUAoJw8io/FDR48NfHzu3Hf/NhXnRGMiAulAgAQ9HaJIc0hJAr/73XcCi+ZX/Sgv1395Ih71+Xy6sEn1uAU69j93bTATCRBn0eCB5XAwAjMOduw9eMcTT3c9v3bt2lOp46k1Pc45O3rw9zeVlk//qhlPFGFFnczQ4e60oCdX6ExmwklOUhTwuDLa1z/y5In9A5+ru6ghpY4RUosujYYIvHkCJOhvnh39TSLwdwls3fqDknMWzH3e4/EFr/c6x/1pCXU6IQSQ2wCaroPnJcDliqeqhVu2vNzRsCLFm5q89FJjxQXn1TVGRwfrApkBSERHQFEl8Gwn2R9dVgF7zuALDHZjM20HgOnbd+3q+NCKFZe306NDBIjA2SdAgn72mdIViYAg0N761Lurqgsf9LiZz10UcWy6gk3EbeAsAWgLp0gBiEejwgaWKb7hkSH2i+27+v/tootuSelV7MaNvw6Vzcj/bnFx/pVWIhKUlWSXOO6gRRxmuSc7yKmGCuHRUQhlZQGAcWLfvvZ/q6n555/RI0IEiMDZJ0CCfvaZ0hWJAKxbd7+/blHRvYWF/gbumUGxGsct6VOC7oGFmWRgxwE0TQNJdkBSg90d7UN37NhlPDuRjVjeaPiOHHjp/WWzyu+NDPVODwR0cFxL9HL3xDG6JH7F3yuaCpg/oKg+Lxrxfvna9r3XX3zxNdE3eh/6HhEgAm+MAAn6G+NE3yICZ0Rgy5ZHKxbUFD2uqu5KzG4XWeCizzn+yLngMVus0DU9Q/ikmnYcVC2wc+OrB6688MJPtZ3RzSboyzte/W35ouU1z5nRgUWyzMH17GRmO0jgiYW6JARd8/th6ORxyMrOByb7dm56ddvl5533oYMTNGy6LRFIWwIk6GkbWprYRBJo3vzTdyxcWHkv8Eg1MOf1oSQF3QOO1uweByvugqrowCU2YpruH9s6jt28fPnHJ6Tv+Zny2rx5fca86umPB7J9q63YkM/znKS/O263u+iFJ4PrusAUBlrAB5GhEXTD696/v/OzC5e+76kzvR99nwgQgb9PgASdnhAicJYJYGey8uLcb+ZkaR+WFSfEJCwyR6H7y48bF97nWMWNCXEAiqEfPXjw2F3bd6o/nQzb7aeRHWpvurGiquTfnfjwNNczhaBLkgKe7YHElGSjGTMGiiKBpCogS7rd3XXiV/sPH/7E6tU3HT/L6OlyRGBKEyBBn9Lhp8mPBYFNLz08v27p7J9xL7IEAM+V0WwFk8SS29D4SdqwoJ87x/pz059dtPXF3/3p+vpL7ugYizGN1TV3blo3o7K26IlAQL3QshLCxRYz3FHQ8SUG8wRw212SPfA4h+HhUcjKLOjoaD963exF7944VuOi6xKBqUiABH0qRp3mPGYEmtfd78+rmfHpsvKCT3hOJJ97FgBLGq3gP6KRCSbI4U8eCh7IoBiZxw63d32z9UDfQ5deektszAY3BhdubGyUl56TfXN5xfTPmfFwKQq6omjAHQ6uIyzkxBED7lIIN1hFBc9liWNdJx482HP8S/X11w2PwbDokkRgShIgQZ+SYadJjxWBbZseq6qqLnvE0PlKRcZ+5x64jgmypIquJY57+keOgaxoYNuupwWzW159cWvDyvobJ9Xq/DTD3bvXV86pLvm5bUXrfIYGsVgMfJoPHNsTK3ZhceuaIpvfsiyQJQ08V9m+a++Bq+pWXrlvrGJB1yUCU40ACfpUizjNd0wJHN6/7r3Tp2XfrSqsnIN1aoNd1G8B98RaVWy/iyxwCVfnvv6hgdgvtrW0fjHVa8//L3BNTY3BxfNnfiszJ3B1LDKYYeg6mDETDN0PrmOJzHfXs0BVZXAcfMlBo1i9/+Chvq+0d8FDa9asMcc0KHRxIjBFCJCgT5FA0zTHnsDLLz+RvbCm9Ceq6l3KPUvXdRWYx4EpCmDmm4cdWHDJyhWRCMdBBjWY0d6yrfX6RXUNk/o8uW33+nfMrJrxI0X2ZsZiETA0nwDuOY4QcrFLIbPkvDluywe8weHEHw529d20bNl7u8Y+OnQHIpD+BEjQ0z/GNMNxItC685eLq6tmPMrBnCehv7lhAI9bQtC5YyVr0WVFrM4ZZoDLum258MLO19puXVF/dfc4DXNMbrN9+++nzyzPeUJV3H/CFrGew0FVVXCsUytzO/F6jbrjeqDIfrAd6dj+fUc/vGjFe5rGZFB0USIwxQiQoE+xgNN0x4bApk2NvtLijK9lBuRrgyE9D61eE9E4+IxA8uzcMUFBYUd3ONsFVQ8Ck7Wuru7+u7uPj/x45cqG+NiMbHyu2tTUpFQU89vKygvvSJiRGfhCg4KOXu64MnftpIscZsA7NpbxacBkAyJR66mWvbtvpeS48YkT3SW9CZCgp3d8aXbjRKB1W2PVtNLsx7OzfcttKwqqHgAvZolabNxjthwz2YTFdYWg674QJExvy549bdcuXXXD/nEa5pjepqXlvyqqq0qesq3ocl1LvrxgHbrwsPcwyz0p6LbrAfdUkGQD69I79u5tv2L+knc2j+ng6OJEYAoQIEGfAkGmKY49gYMH1l1XUpL9JVlKVKBjmhO3wfBnALeSFeeOZ4NqaGILGmvWFM0/2NPb/8yBzsHPpsvqtOV3jwZya6bdm1+Q/QFNkYOmFUfzV/A8TIRjwvr2dKkeCjowBTQjNHj44JEfdh47cld9/XWJsY8U3YEIpC8BEvT0jS3NbJwIYJb3vDm5P80r8K2xzZGg5zqgawY4JrYSlUX9OYq8glvQWLal+kBi+p59bUdurlly5avjNMxxuc3hw3+6OC/Hf7emshoOjhB09HhXZE2s2F0X8/xV4KAAY1Jyt0INvtS8q/2qlSsvPTYug6SbEIE0JUCCnqaBpWmNH4Edm5+YNWde2ZMyi9fJUrLmOvlJNmPBDmt4jowlW3h2rGoZ1tDJ6At72js/csEFt/SO30jH/k67N/+6sHRW8eM+w1vtQRywMQ1uuwuLW5eDB2gHqyTpeOgqhxnw/GDb7kNXLD7vstfGfoR0ByKQvgRI0NM3tjSzcSKwd/dTH6yZV/WfZvTkdOBYppXcXsYVqdh+d2zRWhQT5BQtC1xL7jl5Ivqt7a0H71+z5ra0qsHma9dKvde+47bsXOXThp8XW1Ys+VLjqUmXPKYKgX+djelgPsFoX9/ANzqOHvkebbuP00NLt0lLAiToaRlWmtR4EcBGLAtmlz+hGfxi3QAtGhkBVWPCFS0cDoumJL5gQCxHbcsG19XB8OU0/+ml5g+9/e23pWUL0d3Nz1XOO2fOU7FI/1JNZUmrW08Gjg1qQBYrdA6nWspiwjtTwUzAHzdvb73y4ouvOTFesaP7EIF0I0CCnm4RpfmMK4HtWx6tqygveMQfkGplBUU7JrbYMREMRR3bh2LplmFowCQNJDWj78TxkV+3dxz/zKpVN4THdbDjdDPMKZg/d9r3c3P9H7SteEB0meMo6PhrsjnN6ZayMshiG56BcWRX64Gblix974ZxGibdhgikHQES9LQLKU1ovAisX79eX1jDP1dUGLjV42ZBNDYKaAoXCPkhETOTFq+eBz6fD2KJOEhMBcOf092+v+u66toPprVwHe743bXTi3O/6bmJInGGzlQh5sjD45gs6KHzLUieDLbLIBqx4qNR97EjXUP/Vl//PmrYMl4PMd0nrQiQoKdVOGky40ngpd89VLJocfmTANFVPr8KisrBNONiVY6rUVXVQcXOYwzAdbEWHSCYUbS9eeP2Dyw9//pD4znW8b7X7t3P18ybN+d5M3ZyJq7QZazHF4lwnsh6Z5IjEgWZJ4sXHQ80GBwM79rf1v2B81d/6MB4j5fuRwTSgQAJejpEkeYwIQR2bvtFQ2VZ/l3BLL3KToQhYUYhlBEURjKxqAk+XwBMyxFi7vP5gcl6eHjIXL9915GPrV597cCEDHqcbtrU9GTe4oWzfhnwKxdiYiB4p9rHchc4uELQ0XOGOwxcxwNFC0I84Q4c7eq/Y+6CrY8zttYbp6HSbYhA2hAgQU+bUNJExpPAhg0PFM6uLvthQZb/nwESPlydc+6C49rCOEbT/GCZLkiyKrbeXc5AktSukWHre3v2d/ww3bO50Qq2pIR/fmZ50a22aRa5Noo4JP3cmQPAbOEcxzwGiuoD2+aiNn2gP/KrnXvbb16z5vr+8Ywn3YsIpAMBEvR0iCLNYdwJvPjiT5YuWTTvET8aqHCsPEPBQntTzOrGVqmY6IUJX8m2qbKmg21Jrx06dOy6uYve3TruA56AG+7e/fzKqoqy+z1uzcMVOiYJYlmf56G5jgOWlRAvO9gr3nE4NquBaMQ8cLCz57plyz6waQKGTLckApOaAAn6pA4fDX4iCKxbd7+/Zvb0r8+YUXCDChDkninKsIS9qfigiOPKXBJb7v5QJpgJK9J77MTjR9q7v1R/6S0nJ2Lc433PF154MKe6svRHRUUF75OZgr1kQZEY2A5WAjjgcUt4u6uqAY7tgI02uUyLHus5+fN924987tIrpwan8Y4L3S99CZCgp29saWZjRGDjnx6bPbNq2i+ysoMLdWyH6lmANqe4QscPx/Ni0IAxVaw+R0dHQdb1vl079n60uz+wrqGhIfnFNP80Na1VwJ3x3nPqFv5YlbVcTBbE8j3LjoIku2L73TbRiAdX6C5ITAOPyzA8Ett78EjfNeef37AtzRHR9IjAWSVAgn5WcdLF0p1AY2OjXDVT+VjN7LIvqwrkivl6uNrEM+G/bLkDV4VnOYqYpvvg5ODAyYMdhz7l9Q0/s7LhjkndKvWNxrixca2Wn1t45eLFi76tymo+Gszouga2EwdVw4x3B7iL9q/YmQ1fgmSIxW0IBjOje/a0f3f/QfPrDQ0N1hu9H32PCEx1AiToU/0JoPmfEYE/rntkxvSZeU9MK8y+UGIuBAIhcHHLHWur0bMdt9uFgQoKuiwEHc/VI/EYRCKxF/v6hu5YuvKKHWd000n65T/+8UfLKitKvldYkL+CMZklW6kCOE4CdEOChBkDv5EJ8ViyyRo2cFF1AzxXhq6u/qajPcc/eMEFDZQcN0njT8MefwIk6OPPnO44iQls2fir8+vq5j4oyVZ1PDYKmmaIlabI2j4l6Nh0BAUdjVREkhy44HIO8bg1YpnuptY97bfVX3JjxyTG8A+HvmHDQzMXzq+6PyOkn+O6bjbavSqKIlzz8GgCV+iJRALAxa5rMvj8frASNrgcIBF3IZSR196y48CH685955Z/eDP6AhEgAoIACTo9CETgDAjs2fH7G+fOn7XWTozMcEW2Nm4Xu6+XYUnYKhV/6+FqVBLdxJimgJuIiW5rekbeQG9nb2PH0RNfSdfV55//3JhfVBj8f6Wl+e9WZK8oFouBrhuiKQsKuixLAMwSQo6CDlxJNrPxGMiqBrLmB3CUfbt2H/jiwiWXPHMG4aGvEoEpTYAEfUqHnyZ/pgRe3vDMzNra8ntycjPPSSRGimQFO4fZorb6dJa752FNOma6M7EqjcUjEAj4Tm3FYxKd0js8FFnX3d33vXPOfX/bmY4hlb//2sZfzy4qDt1ZXDb9IscZKeKeBZbpiKMJTHzDIwjkhCVrhmEAd5Nla/E4tlrF3QwJFNV/Ih7nL+7dcfhTq97xnp5Uni+NjQikEgES9FSKBo1lUhDYvOHXhfmFOXeVzSx6h8RjJbjd7ng2SKoiBAsYCrkGto2uaCC24hlHAzkuHNPEyh2kIQBpa2d3153bd8d2TvbM99bWRg0gsLisJO/rgZC2wHOjedg2VlEwMZCLc3GJKcBZsnUq9orHhTrYXOxcMBkrAjADHjqHBuO/OdJz/K5Vq0jMJ8UPBA0yZQiQoKdMKGggk4nA+mceL66snP654unBd/ozjXLXtsFxHGCKDFrAD7FwGNipJDDRbezU+RYKO34weY5JPCoZ6o4Dbfs/XV27t3my2p0mXeG8CypnFq21rdEFiupl4nEEfkQPdE8GxpJGO3hGjoKOTFRZASdhgmYEwBXGMr7DfccHn9y74+C9q99z5fHJ9DzQWIlAKhAgQU+FKNAYJiWBV373bEHBNOOOqlklDY5jVygqNhnBJiymODvH5iOWhWfFf/kxQ0FPNitJepszRbFM03l1aDD8mWMn9u+sq7vFnkwwmpvvVzMyqs6tKC26y+PmIkVxg9HoKARDfjE/x8KG5xJg/v/pDwo6csLu6J6D5WoKqKqvs6ur99Fj/cP3nXfe+6kn+mR6CGisKUOABD1lQkEDmYwEtv+5MT9vWvaXpxdNe7/t2dMNnw6OYyVNU1wrudWOrUKFJeyp5blYreOqNSn4/sy8BDju7t6evjs2bul/dbJsv+PKvKLEPb+ssuIbjhWtURQpwxZ2rvz1nvAyw5apAN6puWNiHM4bO645NoCuBUGWjKPHunue7+k8/rVl9Q19k/E5oDETgVQgQIKeClGgMUxqAps2Nc6YXVb+3ZzC/AvsRHS6quNq1APHjidNZ5gnttiTJ+rJj8jwFnvSEkSjcdA1Pe7LzNnRe7Trtmml9dsZqmIKf9BgZ948Y2lNTc134/HBBdzjIZyLpqpid8Kx0Ar31FwlTBLk4GLjGswgUJAG9orHPun+w8PD8RcPd7SvrVvVcDSFp0xDIwIpT4AEPeVDRAOcDAQ2bHiysKq05KZpRbkf4uDM4a4pqypuNaOIeaLTGH7wDFlswUunttw9BWQVa9Y5uI4Tt2zeMhSOfnp4+Hjz3Lmp6ZLW3LzO7/Mp59bWlq117MhCRVVCWKqHWep2whOZ/WYiAZqGGf0OqBruRnBRsoYJcmKVLmkcuNw6NGI/daDj6MMXXHBZ72SIM42RCKQyARL0VI4OjW1SEWhqagzmhnyr582d/QXG3IWOGdNkBRXcAX5qwY0GM8JshqGwS8L61DEtUA09Weam6bbjwfZwxPqPvr7wb+fOrY+kEoQdO57LKsrNfW9RSdEnIpHeOZIEflyRey62h9VAQoc8hqfjHLCkL5EIg6omjxewAgAT5DxPssLRxPZIxLr72P7eP5z/rquGUmmONBYiMFkJkKBP1sjRuFOSwKbGRl+wxPinmVXFXw0EtcXokAKATnJectsZPJEQJlboyeotUDUfcM+FRNwCwx/AzHCXSdqekwMj9xzo6Hl61ar3hFNhsrt2PZ9dkJ13TWFx7kdGR47NCgQ1GXMADMMP0QjWlQeBO5IQbkWWIZGIgG7g0QIHrM3HzmqK7HdN09vZ1Xn8zu7+oVfq6xtS6oUlFTjTGIjAmyVAgv5mydHfIwL/B4H16+/Rq6bPvqi0tOirqsqXSIYCrhUHWUs6ooUjYfAFfJgpJjK9RXm6i8liMjDRGxy7qKug+fTdx/sH7u3tPfb04sXvG55I4Js2NeaUl0y/edqM3A8nYsO1suKBJ/zrFVFX75iesMHFCntRvse4SHyTZfRux45qGraUdT1P29l5uOdL4U7rpbpLL41N5Jzo3kQg3QiQoKdbRGk+KUEAe6ZXlZVePWf2rDu4k5jNVAaeh17luL2uQSIeA0XGDHBHiCD30NNcBUnWRE02irokAdeDwY6+Y313j0ROPD5nzsSs1Ddu/HVoXu2MWzOzQzfFwicrZXwvYVxk6AsRx3/hJZvSJGJx0HUdNJ+W3H7AnYeECa7DeCCY3XZg/9FvhQ/bvyQxT4nHlAaRZgRI0NMsoDSd1CGwef3jGYUVM26dUVx0FZO8eZw5gNqH3u/4j+2YwgYVz6DR0xxFXZaTZ+n4Zy538HteMCtrT3fnsW8f6zu2bsWKq0fHc4atTY1BJS/wvuq55Z+ORgYWathgxTHB7/eLnH3PY+KoAOeAVq7JZDgNTDMOnueBJKu4grckprf19g492H64/7GLLmoYGc850L2IwFQhQII+VSJN85wQApgoV5Sd/Y7ZNRWfZ8yrBeb4w5FhCIUCYnWO29KYFc4dBSzLAYkly77wHBr/3AjqEAmH3WAoZ9/x4ye/390z+Fxd3aUnx2MyL7/8RPbsmWVX5Rdl3WBZ4RpVYTrmAeAWOv6KLx5MlsX/xsx1nAeu0FHQcS664cedhqii+Hd1Hur5eu+BzpdWveeGlMgHGA9+dA8iMN4ESNDHmzjdb8oR4JyzV//8zKLaubO+HfRrS0FyMl3HBtOOidIuDTPcXQlM0wTGkx3akh9P1G6jWGK5ly+YeXDg+PDTfT3hH82ru2hMa7b371w3Iys/45MFBdmXWlakUpKY4lgJMTbcWleEaCdd8HTDANuyxO8x4c/n80Mi7uCOQz/n8tajR459oe2gua+hITXL8KbcA0kTTlsCJOhpG1qaWKoR2LD+8dpzz1v8PVnyVigyD6EBasKJgc/nExnvWKeNiXLYzOW033lSzF3QjQDEIgnwZ+YeHx0Y+X1nT8/aBQvedWgs5ti247nyQKb6mZKK8neODPSVZeZmAbgecMcTY8QxYe089jPHVTkm+iUT4ZjYYpckNI7Rh8Ij8T/tajv0+QsvvKp9LMZJ1yQCROCvCZCg0xNBBMaRwEsvPTFr3uxZP8opzF8ZHxnwcRlA0RWQTq3GhZ8cnrHj+TNTQMJEs4QFwWAGxE0bfL4AZsX3Hu8/8Ydogn2tqqq+42wOv3VbY1XejNDagsLsi+xYtEDGBio2ltxhm1NFCHiyp7kMHneFCx4eDYhjA84Bi+glpodVJfjiKy9tvv3Ci286fDbHR9ciAkTg/yZAgk5PBxEYZwKtzb9ZXruw9ifA7WrLjRu4w44lYNg7HJPkuJc8o8Z1Lm5v47k6Zr0rMiabmeDLCOF2/PGhoVhTV8/IFxYuvPisiObWrU+VlBVnfKtgWv6FoyM90/26IXzYsYQOhGEMZuPjWF0h4OhZr2poGIO94GWIxm1Q1UDEZ2Q1t+zY+/FFyy5vHWe0dDsiMKUJkKBP6fCn/uR3N6+vlCTQwxZ0r1ixZlwzvMeKDvqgL6opeNvMyuKvehA9x/UsDd3UsDsbNjfBUi/MENcNH7jWqeZr2LEM/WO5JFqqCy94zrpGR2PPHjvc9/WFb7FD2Suv/KigZMb0z5aUFXxwdKSvGB3ucBWuqX4YHgpDdkYeDuv1BjPJvu8uqAp6s2sQHsajg+whRcva095+9Lbque/YOVb8xvu6zX9ozORZ9mw3bkaO9gU7KBdgvCNA93ujBEjQ3ygp+t64E9i+/ZmymlmV3zICxsy+Y8fWHzseu2+8MrzHerIo6gtrs8+tnFXybc9N1EiMZwkzFtsE1aeDFY2Kla+uG2IomFEufvkjQzsAACAASURBVH1d1CWQOIDi048O9w88ePjgsZ8uWXVFz5sZ96ZNj8yoKCv8REaWdjl4iUrsZR4I6mBbrnhxcB0AVdLBOvVygVnsioIWrg64jiVW8IqR1cct1rp337FPz/2vbbvZ2rXemxlLqv2dpqYHikum5dySnRNcnZmVFd366u7PrLzwxh2pNk4aDxFAAiTo9BykJIHt2xvzp+dP/3p2tn+NZiiZIBux4z3HNvYdG/iSIw0cmGx9w/8vyJv//HhteWXZVwqnTz8/OjIwTVMxi9wFNJVLloa5p/4qbsUzbPMiVumnP5iM5svO7x3o7fv90NDot2fNXbP3jQYUs+9bXnuqNis/487SkqILLDs6g3s2cH46s94FVVKTZ+O2JwxjMLuduy5Ylpk8S2cy6GrwwOBw5I8H9vf+x3lv/5eDb/T+qfw97PPuJULVRYXBL5RUzagfGuieFghmjnZ39f/5cGf49tWrrx+ThMRUZkJjS30CJOipH6MpN0K0Tq0ur769ck7JbWZsdIbu02FkaAgyQjmR0XBiWzhiPdB/9Pjvl1zQ0J8OcLD9ak5WxkcrK8o+4LqJasdOgKICaLL0uqCfbqWOZrHJDPhkaRueqw8NDUEoK3tY8WXuPtLR8eWYNbTpH3Vq27Sp0VdRWrAiN8d3p+rT59pmtAgNYwxNh0hkFAKBgMhc9xxH1JWLDnHYLQ4brOCLBscjAeHd3tp5uOeBriNDT16w5vq0iMeWLc/m5mXoF2dkG7dmZqm1nhfPVjUsK7RAlgK9Rw7139fS2nV3Q8Md8XR4/mgO6UOABD19Ypk2M9n4h0dLl18w/ynXjq6UmSvKpERZlKKC58qm4/KO8Gis8XDX4E9Xrmw4lg4TRxGpKCn+aCjTd60qQxWulF3PBAUX5Gihenqdjm3a8IOrdOEyp0I4GodQZgiGhoZNQw/sHBmJf3Vfh/2H+vp652+xaV+/XpeqpNXTZ+R82fB58yORER++MGAmvW2iuQ0mvDmArWRwWx/P9nFlHo9GwcMSOl0X9fEctAMnT5o/PNLT/+j556dHx7RXXnm0oKggeF1xccHVjNlVjCeMhBmBYMiAhIWJi5rLXWP7juaD1616282U9JcOP3xpNAcS9DQKZjpMBc+WF8+TP1Exc8bnZY0X4AHuyPAwZObmAjguWKYDquFDQTs+PJJ4rvPgyH8uXnFpWtQ5r1//UP78+TVfLC4u/MDA8e5pwYAOkuzhmvz1ZDRs5pL8iMw4sCwPjMwsGB08IQxedMNvuS7b2bK97dZzVjRs+1vPRGvLb5bXzqv4SSRyYp6mc0lWMJNegVjMBFUyhPe63x8UW/+qqkA0PAKGgd7s2IYlaSwjKUrvyFD8od3N3f+RLu1Pt7/yRNmMypwvFBRmrh4c6JmZlRUCxm3wuA2WHQNd80E85oGmZ/YfOdT3nY4jQ/esWXObmQ4/dzSH9CBAgp4ecUybWTQ3PzZtVmXxLzIy1POtRAQ0RRdzQyHHlbroIc5AlHdJeqB3oN/c1N3T/+1Fi963NR0gbNq0bkZFaf53CwtyzrPtaInEMJvcAYb1Yijjp35FaQWWNJ1hiixW6+jUhlvwsqwnHJtt3LJt9x0XXnj17v/OZdurz9bMmlXyA1mxl/szdX802i8arTDQREa7LGti9Z+ImaDp2DDGg4QZA0NVgKm66AQbicQP+bXQH5v+1Pyl1e+56fhk5875WmnvztoF2XnaF0JZ6oXBoFZgxsJi/rFIBPCFxwiEwE5ERD93JukQCzub9+w5cuOqt91Bq/TJ/gCk0fhJ0NMomJN9Kq2tjZosww2zZ5d+KRYZnGZoaLiCvuYcZEUH2zRFKZWkSmBZcWCyCrLiG7Asec/Rwz2fra5taWZs8mdXo6iXFGd/tbi48CLHjJUywO1vW6zU0Unu9AdfbFDm8Xybnzrjxhw62+Zg6KHowMmRVzo6Dn8lanlC1PMC2vyCablfLS6ZVpcwR3NcLwFMRhc69I/3QTScAFUxTmW2Y008Nl9xwfBpyfI5NJcxMo+O9g8/u79t/7eW1V/Xlw7PnCYp5wRDypfyi4LnmOZQAbaGVZgknPB8ul844VlWQhw1oEe9Y3MArpzo6hv5Xne3+8OLLrqFms1M9gchTcZPgp4mgUyHabS0PLOksjL/x5xHlwaDOjgJExQJHchkYG4ys5tL+MhyIXDYjQywHzdTTVXL2N7d3f+1oSF784IF7xqa7Dyw/3hBQe5VxdMKb9Q1Ni8eG0XvFpC4hwtzUHRD9Fi3UcGZLIxdcGXNOHZtQ1biHycyGm3t7et90nVsPm1GwYfzC/OrPNf2oUBhrbmkehCNRiEjMwccyxWucIbfD5HwMOi6lmzvijkMlpsw9FBbZ2f//b2Hhp9eeUnD4GRnvHvzk4WhfGN1bl7w48EMda5tj4QcOwqKIoEEqijbU9BMBxMMGDagSVYeIPNk8YF/T8e+gdsWrbihabKzoPGnBwES9PSI46SfRUvLM8XTCjO/k5mpvEMzeI6diIo5KUwTgi55mNUtAccsrVOC7oELjsi29oNtga3peX1DJ0d/PnjC/EnV3LNriToRgLGnellx8UWlpUV3BvzqORLzJI9bQtSjkTAEQv7XBZ2BIvgwT7QrfX24nmMhr7gsy1yWmR+tWsXWvfBdB3A8CxTNgFgkLEQKs9txZYrbzViahiImy2rCc6Tth4/0fSlyqHdz3aW3xCaCx9m6J5ak2TF7/rQZOZ/KygrW6T42R1E94F4CXDfZcEYCPHqQQcIXJFFi4IAkYy5D0vTHBQaMGzHT1P60t/3EJ84997ojZ2t8dB0i8GYJkKC/WXL0984aAdxq9+n+Wyoqy+/gfLA8GhkC3G5XNB94JtqToVgly7TwvBcFHbdBPbAB5KR7WixmQTCUBUwK9YYHI6+ePDn87xXVm3dP9i349evX60X5ztvm1FR907HCC1SFga6rwDQJ7HhUdDfDE3BcUf5F0HElj0fsXJjTqAYu7SXwrIR4AZAlVZy5YyY7ZrCjnSz2N5dEoxWAeCwCKhbCi9wFG/z+jObmLds/GUkc2VJfv/ZvZs6ftYdhjC/U0vJoQGX83MJpGZ8PBJT5iszz0UjH4wmQxcsiHjPg/9NFPgFzZZHtz5gLTBJ/cErg0X0frXB9fSPD9j2t7d331td/LDLGw6fLE4G/S4AEnR6QCSfQ2vqr2qqZBY/E4qN1muqBP6CDZ6Nu4CFxciv5fwu6I5LjbEwKYww03QeRcBRcj0Fm1rQIgPxab1ff2qHwwOZ/VJM94QD+wQDWrVvnnzXTf83s2qoveFa4JBoZAUXyQDXUU4KOW+34YqMAE2VtEsiY6CZ+uj3Rcx23zpnCQFE0fB0SooUrTcxJQGHHWvNYLALSKQc43IbPyysASdKPH+nsvn1g4Mizk93MB8U8OxB4V06B/9OBoFSbiI8ERLMZJw7ALfFyk+xux4C7GkiSCpJ49vCYA8Xceb0TnnjJ5OiWh8mJgX2H2k/cOGfx1a+k+rNE40tvAiTo6R3flJ8dGpxUVgTXFhTkXAMSK+J2RIgPCo3Y+lX9f7WFnNz+xI4hya1j2+WgqqoQJ1XXxR8NDgxBMJgV0fTgob6eodsSDttSUVGfSHkYf2eATU0PZ1XPrL09Jzt4haK6sxUVM9GTAoxmMxImxqHhDE+uzvH3wgwG7WTFga8HEhqv476Gi0l2IMQdz82RX7KDGhN/hu1cgRmQMBPdsaj70+3bm++e7IlfGzf+NFSQq186q7r03+KxwZp4bFjNyc0UlQG4jY6+9MkUQ3yNxDwEdMhLHk0gRgnT+8V3kt8ArolGNchXlozE8b5YY0/3yOfqLrildzI/ZzT2yU2ABH1yx2/Sj37XrifOKS/P/5GhqUvj8SgEfDqYZhz8oRCAi1vGeFqZ3G7HTzJBKbn1KX7PcKsZXl9l4spS133JbG0lGI+ORpojEfu7vScG/7x48fuGJzOwDRuezS2dHrx1+vTcKxQZqjnDGiosLcM68iQT6ZRV7Ol6ddEtDY8lkBF3wEPRV7hoe4pWslh3nsycT67WLQetXxl3PGlfJGw/tnPnvgfXTHIHOGw8U5AXurygIHSTIjuL0IUPK/3wJRAZiHxCboODZjnY5U5Cpqr4s9Pb7RK2tcV/PBR4RWzJ43c9LwGGLwNcR+k43md/efrM9/6cJc+F6EMExp0ACfq4I6cbniawefOvC+fPzf6JPyj9kxmPZ+AKkeF/UHUdoiMjr1uOJldJ+KhiMtKpM/RTiV2KokIibonvvr6NLGkgKwYMD45CRmY+lxRfR3gw9sxgZOQn5eUXnpVWoxMVRVxpZgazLyotnX5nKBhakDBdBfUDBZ1JNhb5iRUnbsFjzb7YhpcUwQYFnckeKDrKkylKsMBRRWmWbZsQiUQgJ78oPjo80trTN/TNkweH/zSZTWMwN8PzpDmF+b4v+IN8ecAnlVuJKKDFbcDnF/kBTFbENjsHJ+l+x5POhKetddFURpIwUyEp9vgOJTHcCfKJ36u6C+GREZDlEPiMwhe37+26tq7umqMT9XzQfac2ARL0qR3/CZ1937GXry+cZqy1reES3P4VxiinErTRuQz/o4pbwZhpjQleAK74P/zgKglX7libbhgBsC1LWMPiB68VCcchmJkNdsIDWdJBUo1+1+avDY6MfuP/s/cdYHaUVf9n+sztd3vvm2w2ZUlcSQgBjAbQKB8CGhUVAVEERBFFVEQiYAWxgEJU5BOkGP4iEIlEwFVKCBDSNmWzm+293j69/J/zzl2Kn5AA2UbufZ6wJHv3zsx5Z+e855xf6ekZ3NHYeMacRWqj1n0olN1QVFDw07zc3OMpypEmEzqFAC5sIZMXOrKxxKHNQfoVdoodAywCJrSBpllgbAZUBWfomNjY5PBo5MWu7p6v6zq0rF59wZwdU2zbtjlQXhL6aG6B90JwYotoWs829BjoqgoerwiarJBOjmG6NxxF43zcbb2TLtCkxC75Hv5HJxU9ztRfm9ABZLLZtB2893zD0Yjzo9HnU7cvXLcO6QWZVyYC0xqBTEKf1nBnDjYZgebm+0vn15bfbdvK+0jCnuT7IgCJVONoTIJ/GOB4RBMnwXY0YDkKVMUAyvEAywigyDL4sD3vOGBaLo0Nq3XN0IFjBZLcFVUDjpOAZQXZNOyWlKL+trOz789zvQW/bdv/W1JXU3oHyznvZVmWnfRTRxQ8JiVEuLM0DTTLkZGEZSMFjQHLcdvrhFOtakTS1AZKjUWT23u6Br64aUvLwfVz2P50377Hs3w+/xcKCwOfYRlznmWleMdWgKYMsEyVMCUYxFtaDqg6EIQ/otx1IwECwgcoB1TFBpaRgKbwDwu2pQDNIFDTAkXRwOvPBS2lgCCi7r3uetSDCLbtfXrX3o6LVqz40rtCjjjzxJpbEcgk9Lm1Xu+Ks0W99hOW85eVlOVcbep6kdtSR8QwUoJc1DpJ5g4DPI+tURUokIFmLEjJCQgEsgAcH6TiMogCDwzHACK/aYYBKRgEQ8WHL0dapxpBywNoqk6Su9cXdiITE62iIGw41DH8v3NZhAbtT7c+/cdTV648/leGoc/H60R/ctEjQiIeAX/AB7oukzhgbLDFLnq8YKHPOc2DnEoBSzMg+v1WIpLaOzIycdmfHtj6/FxO5lu3Pp5VUZF9SWFh1kWGKVfQgNxyBShsmYMOjqGSSpwBygVSekKQikfJvYVcdBMTN7bcgQea8YCtpztHPFraIn7DtZaVUxZ4JC/oNkq54yaShURCAa83d2ywL/nL8Tbl5w2nn+eKKWRemQhMUwQyCX2aAp05zKsRaGn5+5LCXG6DL8CvcK1AXVCWa8vpJnc3obsPXXxYYqJPJGNJiqJTtkXleKQwwws8WFoCTFMDweMlnHRHt8CwHTBMbCnTBO+FrVWWw1m7BqLkI9W8oWmdsah8+0ivcc/C41fPWQnTLVvu9hbl+j5fM6/2Uts25yP+jUHMlmkAx1Mu3YoGkOWUyz8HGhB3QDMCwR5wjKBrmrFvdDjyk9aunX87/fSr5mwSevHFxwqKCnIvKyjIPo/hoCwWHwGvhBtFFWgKkf062LpCtPFR2hXvLVXVwZ8dBkNz2RWCxweaooNlcNpELDbC0Vw4HA74GEaHWHwCQgGPC4xzOJf+R1tgWRrpgPiCOZCMqWCZ0t7RAfnLtUvW/Tvze5+JwHRGIJPQpzPamWPB7t0P5ZUW5f2MAuV0r4/LJdU5Jh184GJyB+41Cd0h7UykVTG8OLp3x977BgdH/zl//qJzS8vKTtB1uYxlsfqywDIdYvGpGRaI3gDYpk3465jUEynZbavaNigplaihMUjVUo3OVNLcND42/rvqvbED1Lp1k8PnObVSDz10W3ZJfv4n6upqLvaHg/OTsTGBCNBILKlOEezFSyKYhgEs54GJsXGiruf1ZcfA4lr27z/4/ZGWzmdWr5ubwihtbZuFxDhU55fkXFZUXPAhXU9VGqYMXg/S8lJp0RjEFpik5Y4AN5LQ090g15qXIrK3FOUzJG94qKO9/4WJichd2bm+DxcWZq2jKSUHkfFyIuk60Vl4bxrACTSk1BT4/X7QNJTOxUeqqEQnjL/0dI5+a+UHLnlX2PvOqV+IY/hkMwn9GF786b70pqa7xLp5FRflZvu+ajtaDQK0/jOhA8UBjZQhUp273F/bQrwc+8yul/Zefsqplx34619/HqosrjitprboUoaJLxT9/hw9FSdCIKjtrmkGoa2hxjn6hRNwGLZRWRZsA9HdOtim6+vNcMKEoVu7R0ajd0zEEk/M1RY8ysR6vaGlJQW5N5aVFywTBCqgqnFgOVeDXNPdVrJpAPC8ABznGRoemXixvWXompgy0jZXbUC3b2/KCfrtD1WUlV7Eip75SnIsn+NpYnfK84jyR6qeBuhah9h+TOi4eSQtd8dyqXq6TjZ4rJjTExlT9kci2m09/RPPrV59QfSZZ342r6Ii/5fhsLiSBiPA0jxwNHaQ0LBFA4a3CVZBkDwQjSYhlJUHqLarq1R/PG7+YiKh3rFw4bqMgtx0P2yO0eNlEvoxuvAzcdnd3Vvek5cTvIPn6UZwXHrVK6Ie6QrdcVChy52n44PSdkyQBN/B5j1d3zjuPZ/522vPe9vTf6qvqcn6smnLq/OLS+sczQDNtIiFKLaVcVOgagZJ3ChvOqmIhn8nFDjTBFWVwesLaEBxI7YjPLp7T+cPly07bWAm4nM0jvnXBzZUF5ZkrV+0uPbDLGOHkcqGHRDscmAMMLa6Zg+3tXU9MBZJ3HLqqRfPWYrV7m2bSxY2VK9nRO4DqXg0jxdYj2Ho4PHyYCL4jbbBtjSwLT2tnOf+HRM6kiastPEMItpt4PdORLUtHd2p20888fz2167FzubfrlxSX36HqsYXewQPyLEoiLxAPl/REuAJ+ME2cHTEgKIhZoMGXvBCMmXu7umOfL1h2flPHY21zXxGJgKHi0AmoR8uQpnvH5UI7NixMbeiIveGcNjzcTkRz5J4l8eLM0hMroRhjvNzcJ3D0LYTRWUkj6d7fDz58PbtPdd/8IMX/R+Hr6cf31BYUB78n5rq6m/atl2FXOpgdjYYikISmM8XIIpz6CCGpaqpqmlVNDwOACquAVZpqg68GB6MTyS3dPSMfn/p0g/NWbONxx67t7w4z39rzbzi9zEs5UcQGFGQI3QCTu/o6PxHZ/fo5/5bPI/KYk/Dh+x7+fGa/NLca7KzfGtNQ80j3QdM3AxFXOQSiTjBEGCbHJM7kcLF0Y6NgEDXYAUpkRLvBUrwt3a29d7UPSA/vHr1xWP/efpNTb/2VVRlX5uf4/m8rWvZ3qAXzGSMzM4FSQBV1QjIEBM67/GBkkoSMR/DonTL4DcdbBu+YsWKL/RNQ1gyhzjGI5BJ6Mf4DTBdl9/X/fi6opLgdbqWrMdqkXawUjSxw+4mdML7dbW0aRrboSaYlqOJgv/FrVubv7Bq1ecPvtG5Yiu/JDd8Rc2CeReZmlqN1qCo/iV6JYR9E3tQnKFrGiLdWYJ2n+S3Oxa2YG1gWC9oOrbh/QOOwz2z90DXjQ0Np++drvgc7eM8+fc/Llm6tP7OUFZgsWFoAm6eeJ5XBwdHWtoOdlyw+rQLdh3tY07H56FYjJ7i6suryq4LBb3LbUsvRKEYTOSTuvXIekQLVKzEUZ8VEzq22/GeoIj9LFL6DOxUgMcTah7sj/z6YNfIvW9mrvLv53+9YOnCyrt8Er08FR8FiaeA4VmwTNyQko0S4a4TZUNib4ttf8R1+Lu62iM/rJ538M65bhQ0HeubOcY7i0Amob+z+GV++ggisGPHI0VLjyt9wLTiy8HReSLQYQtkfm6iEhfqkVtY4biJHLm+vIiZnjkwMpD42YHW5/94OJevnTv/Ggp6Ap8pKs65UBDY+Zqe8GBFRlMIXjLJZwtYpaM4montfEzeeAwL0GIUBWZRE52hka4kRBTNeTmRkK8dH+/ZMVfNXbY+/f9Or6gsuz4nL7uWYRhjeGi0tadr4HuPP7nz33ORmrZ79xZvlpc/Ka8w+zpOoOZbph5GjARuzlyFN9wSukYqyJxAQCXPMul5OgvYjsdkjv8uer1RJaHtnRjX7+nsG37wpJMujbzZrYxiPlVVuZ+ZPy/vG3JyqM4jcYDDcttBlbnXetAjwBOldU3iaMfxATA0cWtLa+QTDQ3nZKr0I3heZN7y9iOQSehvP3aZnzzCCLS1/O0zNfPLfppM9hYiSMnnDwDYPNj4IKYtMCwbbFMgYC1Nk0HwoGoZNZaUjScP7u/62vHHX3BEtLLtmzZ5fFX8itKyvG95JLbRMFNhPB4nimBqCmmJIlVLEERgWQlsdCEzNbeaQ+MSBDoZmBgYbKEmDRO6VdW+dmBg9N8LF37w/7T7j/DyZ+xtyPfPCjgnL1g478pUUo6NjYz9rG9Y27NuDqL5t29/IliQ5zmruDTvSgCrRklOSLj5E3i/q+BGxIkcsC0XM4BrikneMrArQxPgG7rOYYeGk8SRRCT6/Ph47OetHcPbj5Sqt23bffl18wI/D4bZ96ei/fmSyIODCnFEJQ6Pl5ZwR7U5xC5QDFg2AjNDg50d0a/PW/Cx+2fsZsgc+JiIQCahHxPLPHMXuXXrxqxlDdX3a8boaR4PTWxWsDq2TRoYliV0IcumgWP9IMsyeHwipFIJbA/vbG8fuGzBgnXPv9Wz37lzU21xnu+G3KLC1WAm83RDIR9BVNJMB3hRAjWlk1Y7tv+JFnq6zW+Yptv2Zzns1oOqmgd0g9o0NBT57eLFa18Hlnqr5zUT70fxmcceuy9kGLpz1lkXzElzmubmLaX5ueFLsrM8/yPLiXm+oJcDWwddN4CmxFcMVtCzfDKhk+RuI6jS1WZHZzRM5ppmdOqm8UJ3T/8PFy8+f+9bNVJpbv7jkvk12XcYRuwEj4jWq3hHuxa/xLyF6CrYQBNpXRoUFUdHAgR8pf/Y81LnhcetXJehsc3EL8IxcsxMQj9GFnomLnPfvo0+gZMura4t+6qlx4o0PQkiaoZzHOgpFThehKQip8VeeLAsG1lnwPNSZ1dP34/j0ei9DQ1vT20LQXhenv9MbW3lBSk5ttjrlchGAtuzouhJi9jgw9e1HXWFbWwwbbQRZQioCVvzPCcBzXgHLN1s7hsc+/aLLw7PyQp3Jtb/nR5z+/YNXFZWbX1lZfVPbDPZYBhqAUqtyqk4sTRFJgNDS2SThpszNFHBjszkjJy49nk8kEopSF9EM7VdiWTq7gNtXfetWfPl8bdzfjjDlwT9cxVlWd9VlFgZy7qjo8n7iLA2cHjDYNufQRwIkYRVVXYoFjVuGxiJ37pixWfib+fYmZ/JROBwEcgk9MNFKPP9tx2BAwceOqWubv4GVR6fT4EJyA/WlFTab5sGA/niohfwkYeun1ix64Y+bhnU5pd3dn71pJM+/aZzzcOdGFanLXs3nVq3YMH3AIxG4nlpmxCNTUAoKws0RSHJHCspjkNtc5vYh+LDmQD3aDpdpevg9WcngeLbxocjV41F5Rfr6lYlDnf8zPfffgR27mwK5Wcz7yssLbzOMuRahuO88dgEiLxrwIPr5pqr2G7LnXLSjmjmK+A3bLOjDSrPi+OKYjf39gz+YHg8/uw7NZ3Zt29jQXYYbs/O8n4U5/FEG554vKDSIZ6HK1+MjA0UO0LwnQ14P/mah/pTXyuv/lCGxvb2b43MT75JBDIJPXN7TEkEtm/fWFZXX3ob4xhraMaWHAstKG1XlMOxwNBl4AQRbEcAXvJBMuEWTD5/fl9na++5VfM/8szROLGmpiY2N6Qsr64q+5Eo0Q2GoQQ4AWVg4yBKEnFpQ2tRdwZLEeMS1z7TlZ3F6g8TByrYWZatWia1L6Wq946OR/5cVzd3+epHI7ZT9Rlbt24qLi8PfaGoKO+jjq2WW5YRQuqhz+cDQ8ONIU8Q5YlEgvw/rhXLoDmPTmSAGZYiYDiCPnfYflU1dnV1Dl07EtnbfDhw5ZFeU8ehh84rL8/6uamnstCJjbjcEUdA94XysAjRMywTPB4/kTLWdNAdS9rS3j1w2eLFn+o90mNl3peJwJFGIJPQjzRSmfcdcQSwLen3h75RUBz4IuMY5UgbY2kWJEEAi5ilOMBwSFUDoJkQjIyOQG5eAIFocdN0mnbsaPn88uWfe1st0f92klipv/jsn2srKst+EAyJKwWJLQIwQNNUovCFlTombkzkDP5Jz9qxwpMkL0kYmFDQVxw3AY5tt2uq2tQ9MHpzXd2H3pBOd8QBy7zxlQg0Nz+xoLQ0dG0wGDwxKY+VYYvE48WYE8wi6KpF3M84zk3kpu1iIbDdjvNyFI5BChvy7g3Datd0+7nmHftvPOW0rx5V97Pdu/9SsnBB0T0OJE4CW2HQN50I1kC6/W6j/4BD7iV0/pM86DmP95e3f3gweUtXX+r2lSvXueCOzCsTgaMUgUxCP0qBRxD+GwAAIABJREFUzHzMqxHYseOhhqqanN8FfPx7FTkBAs7NHdcMAx94WEkhgAl7o4bJg+QLgpwax1n6waH+2Pqi0tP+/FbBSkcS/+eb7q8oKs29oqA4/AHb0hfxguup7tLasKKzUcCOJIpJe1EUu8HELoo8oSGhWA2+T/T64pYJ/+zuSXyvquqEtwyuOpLzPZbeg4j8hobAovLyoh8DZRxn2VoBjkAYrL5ZFgwdAYwCMBT+v8tEQCVBFI8xLTUNRnOBjxRF6bIst8UiiYc6egZuP/nkiwenIpadnX/7ZHmJ/3rHidealkZa/gzlygxjdwDHSO5mAwFzCAYFcCwR4gnr5URM/1J13ce2T8V5ZT7z2I1AJqEfu2s/JVe+bdufAlU1pbf6veyHeY7K1nUFHHSx4ihi4WkaOjnupDSrjnLtNM45ff3DI8mH+vr6rm9sPPf/qHUdrZN95pl7w/m5oY/WVldeZZpGNc0yPILlSCZHgRsbkwRDKrzJRE9Ac8RExm2p4kQUH9Isy8ZU1dg6NpZab5r0nsrK1erROs9j6XO2b9/kCQT4xuwcz3eywoHjdUsOW7pGlAMxiSPbAEceKAg0qfBGLEs5BhjaJp0WURRBJ7awXIIT/YcOHWj/dffAyMNr1hy9Ts9/rglqH1RWiDf5A85a09SKiDY8asbTQCx/eZyf6+654Sxf121wbBbAEZRYVH1wbCB+9cIjpGQeS/dD5lrffgQyCf3txy7zk/8RAZxXF5cmPl9Wlne5Y+gLMQFyDLpaGUA5BvlK2pA0UsVYMCyHKMRxvDdiOeLLbQf7v7J48UcOTHVg8TwL85STq6oqvu84zgJe4rLleAw8PoHQnhQVRwQ0CKIINnLk0aedcit3m4CebHBohzh2sayYMnW9dWw0/ouUaj9eU3P6yFSf/7vp89G/vLzce2ZRUf4lAMb8oZGeQG5eGAyUU6WYtFEP0g1dNgJa6bJ82hxFS4GDAkGEesiBQ7EjAPye3bsOXhdNRXa8U/DbkcR5z5676qoqs2/nBfoUjqMoOYlzfbzHHUCUvbt5RV0F3rUEBuStswiU65Jl6hc9A0O/a2y8WD6SY2Xek4nA4SKQSeiHi1Dm+0ccgd37/7aorrbgd6alNPI0xWIiZGnMhA7YpgqW5UqvMiwHtomAITREY22W8+xua+tfPzgY2Lx69Wocsk/5C+fqz//r/vlFZYXX5eQEV3AsXUEziFK2iCWmqeEsFgF8OLt1pWkJNYlChLXrsooSn6bugp6A9vSoSWVL39DYT2prPzDn+OpTHvD/coAdOx4rr60p/Q7H2qfRNFViOzruo4DjOYhFIxAIBEBBD3vRQ5z0sNuDFa+rG4CANwckbwjF/iA6HjuUTMn/HOiN/Hj5Kes6p+t68D7q7r7vrIKC7O/GE5GlAg8giDQIHA0oSYudHtLhcdA7AMF87uYEpWJZxrOzozNyWe2Cs9+y1sJ0XV/mOHMrApmEPrfWa9ae7fbtG4N5BVk/KS3OOds0U7k2iseQmbkDLMeQhE6SJScQBLBpOkAxArC8NDg6Etu470DXerSrnO4LbGq6q6CytOSyoqKCT6pqqgaNOxBUJfl8IMejpF06mdBJEnf5Se7LdoDjJVCSSQKeA4oZBord2jsw9qOREWFXY2OjMd3XMxeOh6BJrzd/YU5O4FsCS5/IClKxoaVctDpHEwAibvxw5EEAijgSAVR/w0oXw+4a95DdlSUAx3r29vb1/7Gzt+dPq1cfmarg0YzT9u0bcoqL8r6dmxf8pG3LRTRjgJyMgs/nJZsO91zRsBUdAJEKifc+CywjxR3D99Culzqualw9dWOmo3mtmc+a3RHIJPTZvT5z5uz27n1oVc284t/bpjKfZRA8ZoBX8oCFal4opIUa7QgQoljQdRNsiwJBCmg0I21t3tl60ZL3ntMxUxf7xBMbggV5hR9btGj+ZZahNVi2RmNSxwcxS6p0dzRAEvrrREQcoFAhDNvwmGSQ8sYyKUH07xkejv5keDj2ZEPD6amZuq7ZeFyclxcVBU8rLMz+lg3aAtqhA8l4AmgakzVqorudEKIDwGDydsAwFYJtcLs7bryJ2qDF2DybtaO3a+DmroHhx1avnjnf8d0v3Tl/4dL5dyrqxIksg+JFNChyEli8CAIFRf48Xhv+3a3a0SqYY0Ndra19n52/aN2zs3G9Muc0tyKQSehza71m5dlixRUI+m4tyA9/UtdSAVTxkjw4B00BZaNtJYLJUJXNFd4gvG9KAEYI9vb1jf3mUEfXL6Zj3vlmwduy5W5vQa5/RX5e1vX5+TkNmq54UWyGcOvw7Emr/VWeMSnQsQNhMcAKHMhyAjx+Me3vTicpWurp7x/9SVdX9K+rVp2ZEaEBgKamJrG+3vfhvLzADaadKLZNLYBiwBSFCQ/ZBgA8J4JhoE+9Ch6PBKajuSY6lEPa7baFVDAOY69oKuzs7oxc193fvfWMM2Z2Do24jIqKic/nF/q/bduJcnDQGIYG1F/A88Xrc7GV7oYFEfqGYQPPhpVoRLm/tXv4qpUr/6898Kz8hc+c1KyNQCahz9qlmTsntnfvA++tqCi6i6HNhRzHgmkYwNMCqcRdGpHrRe3OnmlgOJwl8klNgaf3tHR+/vjj1x2R+cpUR6SpaT2bGzp+eXVt2fdFiT3O1LVsVP1yaUiTVZWrAobXQgB+Nusqk7E0KEoCaBa50ThuAMPvzzs4NDR+y8jI6GMNDWcf02C5ffsezwqH/Wu9Xv7L/oBYTzmGX9UU0FUFJMFDZH9ZRgRNxwTIguj1gKHJhN5IpFwd9MOjEUAJAPxYPBrbPTQS+3Z7u75n7dq1yCWc8deOHfcXLV1aeU8iOfh+SaLARnc3vONR2wATup0+xbTOPIJCwcGRga+jtX3kS/WLz31ixi8icwJzOgKZhD6nl2/mT/7llzfW5Od5f5Kb6z/dtg3v5A1F24xLOUJ/aAQxoZKXqbtUJB5b8U5n31D88orqDz4281fx6hkgyGn7cw/Oyy/Ov6IgP2uNZRk1DONyi9HdCxO5u0HBdjtxXyWzXkFChLwGhm0AJ7CgqjrasILA+w7Kir21t3fs56lUuOVYm6u7lSvUZOdkX8EL1EqBEyoNM+VTUgnC7WcxjhQFmmoCQwtEPRAoV6990jHNQb96xgWV6bpzaHwk8c++oYkfbdmyu2e22cDuP3j/JxbMK/3peKS7LBjwgqnp5D5BPj1ep/ty9ebJ+MlEiVgJolHt8aFB9WtLGs9tmU2/D5lzmVsRyCT0ubVes+psm5r+Gqqvy77W76fPFQW6AGlpmMBpigGWQrMVF41sWQawIgWGoZF/E3jPsKI4f9+998DXZ2ub8YknNgaLsqVTS6vKrqQpq5Zj6RzsPqhakoDmUFmUgOXSwC1XKtYEmwiJpB/btkW40wwrRilK6ujvH/vl6OjEo0uXnjXt4L+ZuHG2bdscqKrJOysU8FzBcXyJ7cg5OiruURRJZkRZDdXdcKNkYxsagOUEYnebikdJEmc4V5DItuloJCo3j42lfjM6qj+xZs3ZR01J8GjG5oUX/phdV5d/Cy/YHwJHy3UsAzi8DtJmR4ykTYB/+LJtCyhGBEPDzoM/2tM7fv9YxPzeVOowHM1rzXzW7ItAJqHPvjWZM2fU0vKPEytKcn5Hs9oCmjJcfjah6FAkoSMACN3NOImHVDJK0O4UsMBLgb3NO/afv+Q9n355Nl9sU9NdIk2LC6rLS75dVJy/SpHjhZKHB8NQgGORemSDJqfS2u8ueA756SRhMa6DG2nXUwyKnqiiFGqfGEs92N7Zv2G2jBmmKv4oulJeWnaV5OXP4ni6FsBmMaFRaTMctBtFxUDbUFztddFL8AqRSAzCOTnktBLxCJk/e7zB6Ph47InWfR03aLbRNtN4i8PF7OXmuxc0LKy6U5EnTqBtjZgSITmCstP2qsQVzgLLxltDBIbmwTDRuIg+FIsYV2x9WXt8LnrWHy4ume9PfQQyCX3qY/yuPELztkfyqxYW3yaJ7GmmmQzYNraYETmG82UKaIcllbpho2WpDl4UbUENd0YcGJ+I/+HQi/03rVg7N2wkn3vqgeqi8vyrKipK1jq2ViqjsYvAAPqsE8tO8nINXVDilrTlaRuQAodjBobnSAWqqBYEgmW9kfHYpt5DAz9qWHFO37vx5jh4cFNOOBj8Wm5+ziccy6rCMQYCIV1nO+TvIzDSJrHBtruaShHAGOqdo2Utfg/1z71eP9AM39nR0f1wR0fPL0499eKeuRAvBIlmZ/u+kZ8fujwRHShgWItU6cRSFUGWFN4zuPGjAUgytwEsFnjOC4pMbWrZ33X5shMv6p4L15o5x9kVgUxCn13rMWfOprv7Hx8vK8r/gWWptZbtcswxoRPAmE0DWDTYQBG1tWQqCTQKzNCU6djscwdbD130nvd89tCcuVgAePrpewqL84uvKS/P/4hhyuXoFidJPDigEV40bmSwmkRAP7aQsZ2KLWWKchMUzwvk4a2p+DAXe1IJ46muzpGfNq782LtqZtre/mhZQV7edyWJPdWyrAqXhoaKb64WPqH32W7rmfyxMDbIzwbiW+71+SCRSIEHkzkrdAwODt/b0jLw6zVrzh2eS/fLrl0PzKutKbzbthLLGVoHhsbfDwA6jYwj83QGxw4uxVMUvGDqDrBSdvd438jNrb3anRnzlrm04rPjXDMJfXasw5w6i10vPDBv/sKy22nGXuHYtodhECQ2qaCGFCQaHJvYjZJqHZN6LB6BUFZhd3/v4I/37N1319q1X5kVyOS3Evgdzz5SFM4PXF5WXnCGqiTrKNpgGM4kCniYkQh2gAzQceyA7VVXpAYrUyKWwgtgGgCeYDYAMOO6rD0/NBhfH00NtzQ0nDen+epbt26UCrOl8op5FT9S5chKCiAPZ+AoqIIjBwS0ufa0JqnMsYNBvm+6nHJ0snPxFg4InizZ1MzWSDy+sa2t784TT5x7DIF9GzfygeN9X8zJEb5CMVotQ6M2vUlQ7+TlYEeHBlVHJTwRbBO7OTZInB8Mi32xu2fsktr6T+54K/dn5r2ZCGQSeuYeeEsR2Lp1Y1b9gsKbvD44zbbMEiyyUOwDkbtE7INwzJF3K5CqCx/mOEf3BoKDfb2Df9l/YOiG008/b85SuJ599hG/32MfX1JU+M1wtqfetBIlgPgBAtxCkBcxkSNSIpOJ3DXncP3VMWnFkwkia+rYTEpRnGZdth+cGI9trG2Ymy345hcfLi2pzP14KOxf59hqhQNGPhlCcByAzRAuNiZqcjvQ7leXIoC3Dart8YQVQHznWXEwGU+91Nk99LN43Nw5lzn8Tz11e/HCeSXXCR7rLEm0cwAdBm0cOyCVkwEHaXgcA6qhAm27dD1G8AJoEBsZUR/rHUl+NQOQe0uPp2P+zZmEfszfAm8tAJ2Htny0orrkFkXprzQNBUTB5xYc4KqcOrZblWFCxwqEZjj0pdY13fxX846Dl5y05sIZU4R7a1f65u9+sWljQV6Z/ypfgP2Q5KUX8CxLaGuIasbxAo0J3HKAYyUwNA04SSIOXNjNwNGEpqWIRjmaz3He3H5HMXe0tPV/p77h7L1H8zyn8rO2b9/A5QSLGsuri78PAPWGLBdwgsDYpk5sZtFtjOHRIc2VakXVN9zQEAoguBsczHGkJc9wmm3Dof6BoY2Dw6N3rlz5uf6pPPfp+uyXt/6+JrtQ2JCb7Xk/i74saaEZmhLTRj8GxJIRyAmFSMxopHWyfgDO39Gyr++KBQ2f2DRd55o5ztyPQCahz/01nLYreOGFh7IX1OX/L8vqH2EZk9BvcFSMPGx8oVwnPpxNAxXhkNolgo4cbT7Y2nGo64etnR0PzMVW+xsFGLsVQT+7LitH/GI45F1KgUE06xHhjhU6AYIZNAj+ICixGDA8cvMpSCpRECWWyILiaAKTuiD6oo7DP9/VP/rtqqozdk/bor7NA2Ey9wYLV9bV5P7cNBJltg7ZvMcHuqyQdjJK5tIsyvwqwLIMODg/t4njvCvxCun2OoOOdhBnOL7lUHvPbX0Dsb+vfhfpmqNYUVHRvPNLS8JXizxVQ8YLDk26WISOByZwEgeGEgdO4MHRkC3Cgu1IdiJub97fPnHxqlWfGniby5T5sWMsApmEfowt+Du53O6Oh88oqyz4jaomShjK5ZdjZYoVF86Gbdsh0p0ICqMFHpRkCiRfKDo2ltjStzf6paWr333866amjb7CHO6jtfNKrkrJkSWigBW4BbqqkQ0O+l8jWA7b7yYBg1lAcdhuNsFCfXIQSIJDaVCa98YM1Xz5UGffNdEov3u2gqL2NW30UfnaKTU1+d+hKG2pA6ZEIQiSsLFcDIWrzU4TfXuMg2G5M2Ka4YngkGk52LkBrzcvCobZ09czdPX+9oFnTj99bmMJ/tvv13PP3Z23ZEnFPTxnn8aCC5LEDQ9uhCka7YsMoCmXFUFZ6HOAHS8eGNoz1Nkz9pWJ5MTDjY0XZ4x+3snD6xj52UxCP0YW+p1eZvOL95fWLC66nab10xQlxfm9AfLQNnWVPLjdxIWezzYoigKSXySOUgBcd1vn8Hnzqj789Ds9h9n689u3b/AUZJV/LJztuYymtAaaMdBSzqVoAcYAK9M0wpvUqAYAurpRNHC0QObH2J6WZRkC4by4ZVJ7I6OpP7b3RB5ZsWJ2obv3PHNvuLA6tC6czX4OKGWpZekicu+RrkeQAwiCS/8/uXCaIu5ipPVu0YRvrsgqCMQSlY84Br+nt3fkux09XdtnO7/8ndx/zfse+tKCmpLrZDla4PdKgAI7vIAbm7T6IKB5EVbviMdA8BwHFC1AImr+c//erstWnn75u4oN8U5imfnZN45AJqFn7o7DRgAdsnKyzEvKK/MvNQy5CoE8hq6Dqrj+5mRWygiQiCfB6/UCzQkQHR8FfyArAQ7f9PKu7guXL5+dyl6HvfgjfMPmzb8S8rNDJ5aV5V6TneNfbJlyLqKaSfcCUfBpTW8LK3XT/XdiB4rtaV4Ag8zX3Ta1ppkoA94JlLT5YFv3jxobPzt4hKcxpW/bu3djWdBHX15cmP1RcIxK3ZIZitZdXjVBbTNAEVe6tPa9TQHDsaQSp1kBGPQ0N1ycheT19slJfVtPZ+T6lN7X8m6vQHfs+Et5bXXhPR6ROQmtYmkCCkQbVexsmDibIUwRGtIJHvUMALUcpImh4cTvOveO/2DVmZ/PmPxM6R0+9z88k9Dn/hpO+RU0Nz/SmJPF/cobYE7gOYoIqnglb7oyd3m0kwYmxHwFK3cTQPDk7Onu6PnObNNrn6qArV+/nj7ttPJ5FaX51+bk+FYwlFmFHH3beTWho0M8tlwxToh2tg1EgFtEYAU147FK93p9qDEHsmx2mBb72ODQxK319R9rm6rzPpLPbW2+ewFw9lW18ypOUVOJKo5sPFIgemmwbM1tt9vYbHfd09wXfs8G0RMAVcVMzmLVaQtisCseTz7auqf11vee9O4ASR4uhnhvfHpd4wWVVYXf0vR4DTrJaUqCjCMwoWNVjn0c1GYi/HykPWJ6t7E1z+5vbem7dNnKC/99uONkvn9sRyCT0I/t9T/s1Tc3P1yam+f5ZU524AOGngogUleWkxAI+EGRFeA5dMrCqlMFj88PSkomwjIef2F7T0fvPRM96i/fjbPzNwvc5s2/ClSV551RU1P8FdOSj6dok1RerlGNK7KClD5MgiyDWu+u97rrRueAbqikeueQxkULw7ru7I6MKN/r6I3tme65OuGXF9JLKipyfgigLFLlRJ4oecBIaWCBBZzAkA3LKwkdTUgAeXs4YgBSlVsWBbzkBzmpxyUpvKu9s/eW4eHIP1etOrYqzief/GP2gnnF388Kez7JMXY2w6JiHkbRAbCwSscxDCrIuZoO6PSHjmzYetcU+u/79/d8/YRTvnDgsL+0mTccsxHIJPRjdukPf+GElpRTckV5efElcmqiEqtI00I9GBts0kbGJw9PqnOep0FWkgQUx3KeUTlJ/6uzdeQbixr/Z07IdR4+Gm/tHY6znn7+mbyT5teX/VTgqeM51uWpux0MZAOwJInrOsqfiq+40gleEZRkjDiNTTpy0awn5jhCz/BQ9I5oXPzzggVrpsWYZM+ee8PZ2YFPFxR4LrTtZI1tKX5EbCG9yiuikhtLNh/ohkba7Sh9izahKCyEuvaocgocKBpan4qjHim0fcfuluu8Xd7dC9etc9sWx9jrpZf+UlVVlv87htHe7w+IRGTH7WVgEidkPmAo3NyZbmeHwS4HDWALI2NR/f5YXLl+4cJ1E8dY2DKXe4QRyCT0IwzUsfi2PXvuq6upKfkDy1AnoDgMPnwkQSRmE7ISAwGtLm0EdangDQiQTMXA5w3Z8ai+fbA/dmXdonOeOxbjNnnNSFnKClSf4A/y3wmHvSeIIhtEBjbRNEcsOPpkSwLEJyYgkJUDyegEEaXx+L2QjI4Sb3VBRKQ8AyznNYGSDgz2Rh5Rk+zvq+o/PKVa3y++eH9pSYn/q4WFOWfH4v3lPOfQuCkBB+mKDDiGSUYtCHwk4xYiloIbPBccRzoQwIKhO+D1ZPUND0abOnvHbjrhH937qPXrJwXwj7nbA3XtDx3c/D9VVUU3GnpqEQIkCXYCxQXRixdbHehChxRIRwXN1MEbDIKawnhze0dHrMtrF5zxr2MucJkLPqIIZBL6EYXp2HvTs8/e6a+vL/thOBxYpyrJPJ6XXJqNA2CYKrCcC4SyLYaA4izQXN9zmh8ZG0n9b1v74I3HWkv1je6SF/79u8riisIf5+WFVrC0VaYbMlDYruYY0E2MG7bcHRAEVNfDqh0BcpZrw0pjZe8QWqAo+IGmgx2yDE9Hx8wfF1e9/+DRvjMx4ezff399UVHO10MhzymKGqsyjRTwLA1EqdVQiGwrx6C3Hp4gUu5cXjlqD7iJHLcrHNA0Bxwf6BweHH+yo2vopytXXjSn9PuPdmwnPw/1HIoKfT8pyAudbZhamEU7XiqNrXCMNNpdJT4BFoW+AIizYMDrz5dTCfrRlh29lze+i7j6UxXnY/FzMwn9WFz1I7jm1taHl9fWFm7UtEQZPp4p4NOVF7ZSUd4rTYul3Ja77RDedZKipNa9e9vXLV78yfYjOMyUvQWtT9/3vvM1CncZs+D1zDP3hvOyvN8sKQmfyXD6AttKEZEZRIibBnK1BXKWpm4AxzOgKEkiPuOOOFynMttGRy4/sEJoyNHog0MTya8/+2xs19Gy2sSYlZYGV1ZV5XzTdrR6y1RLyVqjJj/gBgMV8HC2i8h2pFYhRY0D22FIYYkKgYLkJ77mtkUnGE5s6esZ2TgwlLh/Nim/bdy4kTlaMXu7t9ZLLz2w6Lgl9X9wHPm9qqqA3x8ATVEI1gI3TJaVAl6wwbJ14gegahawXBA4Pq//QHPnufVLznnX0kDfbkwzP0eGoJlXJgKvj0Dv1o2Snsf8prw87xOWqUlYQbp8apYgmV37R1cdDlut2HLH+TrNcF19faM37N/ffe9MKcI1NTWxWVnye4qKC84em5jY3dcdeezUU9fFZsMab2+6L8ebK51aWhq8khP04zjGZBU1BZIkkQqcGLhgz52yQfJ5QJXjBJuAbm44f7ctisxT0WaTY73jlsN2jI/GvrO/NfLsO+VwYzKvrs49pbQ078ZEsr+a55ywpqsgsFhpp1voNs7CkV+PCR4rRwCe9xEEuyT6gWJ9oKQUkLzhiKFZe9rau27o7h59ae3ar8RnQ/x3797iZVnzw1k53rqRoZE/T0zsb1+9en36Rp7eM0TzFs97sy8sK82+2jLVCkPTweP3g6kkyYaJ89AQnxgEQUR6Iw0MHwDbwPvApwwPJh/sG459c7ZpFExvBDNH+28RyCT0zH3xughgy7Wj7bG1VbXlv0wlBqpFzhVGQRAX0o6wnUpmfeTfsO3qEKQ2zXr7hwb7/zw4FP/xsmXrRmcirE88sTGYn+/5xIIFtZ+nKKuKYYTkyODAE129gz9avnxd50yc038eE+fqeeH5i0ursm6mQFvMs04uVt/EeQxQMpUFTZVBwHa8gbKpQHjsFOtqoBs6tuABOF7CPynHYdpSsnHH6Gjs4aqqtydCs2vXH4vDYf85uTmBCyhKX8QLFEs5OqRSCaJohtQqHK8QiV/acf8OQPjlxCoXWCIYgzK2NCX1qar9TE/H8PfrGs486iOBt7uGTU23V5SW5l5dXV3zAQAlMB4ZOhCPKneOjNiPrljxmRnZcLzw5EPZpXWhn4WyfB/laCYoK3EIBLygKDGwTRm8PhYsUyN2s7zkhWRMAdsUgGYCPSND8W8d7Ox6aKY2zm93HTI/N7URyCT0qY3vnPv09vYn55UVB3+jqtGTBZHmKBtpNOhpjQmdRuHStIiIW6kblg6GaZseKfjsnuYDX5gpn/Ompr+GSouzrywoCn2Gpa1yQeJpOZUAjzcQTyaS27vaB28Zi9rPrZ4l8rNPPXVbeUV5zvqCvOAqTU3WYJWOmuemYZCKDA3sHAeBURYYhgY0h0wCRMajZCrOWV0Qmmk64PWHe3UF/h2Jmz/Nz1+790jHDG1tmwWKSi6qrir5FlD2ex1DKUd8hG3rZDPh8yJuAlu+DJmPT9qcsiy66bltdgTsUQwPimxaHm+4ZWgg/pf+jt7bj199wdBsuPmbmu4KFecHTszJ9X4jnOVZpGqJHIZHDICQkhWjva9D3tDeM3jnTCXGZ5+9Z/4JyxvuA8dZZhgKWJZCqnLLSJGxFo44yEbORN94DwGhUpQAumpvazvQ96VFyz8563X/Z8N9cKycQyahHysrfQTXuX37xmBejue7xcU5n7JMtZjjaLD0NLuIwgoS/awxuacd1ShUJtdBEEPDQwNjN+/cve/WmXgwIr2ONgs+u3R5w3ctI1lpWyhHi06VJkFZe/w5mqkabX19Qw+ODsTvOv6Uj/YeQTim/C2PP37Q4eL8AAAgAElEQVRLVlFu9rmVlQUXUI69jBdc85aUHAevRwRdU4AXOJLkbcJPxoY3ctldhDyCpXjBC2pKwS7JACuFuiZG4td39vY/09h4sfxmF7Bv3++zwmHpQ4WFxZdaulyp63ohWnvivJbYv9JYgetknk/a/WRGToNDUeDgZgKlSSkExHHACaF4dCzyciSq3t4/FHvypJM+HZny4B3BAZ5vuqsiv0A8NyvX90mfn5lPURaPM2mb0OwoMHRa4yC4Z6gv+bXyujNnhJGxefNmoW4eXJOTHfqi3y/lA22CriWAoQyyqcJRFm7gsANioYATxYGsGMDQfCqeNB7sHZy4KmOxegQ3wzHylkxCP0YW+nCXia329oOPnl5SnnWTINCLDEUmFRm2XPHh5yLLsL06+UDniXgIy4MCwLc9++z+s0466dMzYo26bdt9SxYtqP9f3ZCXeiS069SJWIvbKnar2mRCgVA4rz8WTbzUcqj9uuXL9+6lqJmnT23atMFTEHTWNhy36JuWLR/H8cChuYsqJ0EK+MBSVXfpiESo2xFBRTms4knVrBrkq+iVEM+QBGA64jHzt4P7h+6uewPhFty4lZcyV+Tk+T8OtlatKYqI6yp4PKArGtiGCaIkpHnzAAaayqC0K4MJHUcwaRQ7xQHLePsSSW3PYF98fXtP156Z2ND9t3t7x7Y/1FeW517v8dPLHFArTT0FvOT6rqP/OoIQNdUGkQukUknzxf0HBr+84uQL9x/u92Qqvt/W/NfqmkWLH1aSI4t4HkBR4yAJ2BFBqpoGfr8fNMW1o8WNFcMJYJk2GDrV0zswcVlt3Z7Ns+FenorYZD7zrUUgk9DfWrzete/evXtjZXV14a8YWl9jmarolSRyrZYxSRm2gch0E81upCmJJKEzrNnW1z/+27172VvXrl3rQrKn8fXkY7+d17h88W1en3QSgCWihCYmO0ziqLaGzlWKggh8ASzbAUnyJizL3nGore0b1gFtz2wQOEHU9bwSZUlugff6nBzfCTbo2SIPRHQGbUeJHSnLuy124thmAxqi4NNd4CSwVA0ME/+YIPq9FkV7WiPjym8OdY7ft3LlRa8TIdn+xIZgblXoS2VlORcqysQ8UeRAx5m9LwBKPA40xYDA867BTjAIpqK454Av7Mwwrma7jRQ1m2lPJZln+geGb1iyZGY2c/95q2Es66rl44qLQj8IhfllNG/m2jpqp1OI4AMtoYMg+UDX0lgE0o7gE2Ojyuahocj3jlv+udZpvH3JofCcG5d5rywrz/+KZaolpqWQVjtuSpFhwCFoUkZ5XRt4r5esE/6/N5wHiZi+ua9j9NL6ZedMqS7BdMckc7y3F4FMQn97cXtX/dS+fRt5j893aXFh4CsUpVSyDA3xSAICgTBYehoAR7tfMaljm9WheKAcdsxmnOd27tx3+fHHXzitbWzsKDzzzIML6ubl/1gS2RU0TediexKJ0ER9zesFNamAIEgEPY4WpnTaslL0SbKhKC/09w9/v7WD2X766aenZsOCvvjvP5RWVOfelFsQPhkcrdC2cHbOgalppAons+z0iWLb2LEMwgKnHBd1jvlWNVREwtteT6hlcGDizwM9o3967KlY1ymnAC1BVkFRaeElpVWFZzpGYqFuJMEyVPCEvKAlZFfghLTzOVIB4gYIHfWwIsQ+vG66ojjoImJZdqeqwqZ9+4ZvPuWU6V37N1orlKnN8tML583Lu5HizeVGaiSEiHGeY1xpXZsG3aDA4wmBaVHEc0BXUyBIXjANZmx4JLZ5NGbfuHTp9Ovmt+x4pKh8fvEfaFpdw7AOY+hYkbPgmK7iHsad80jgqBpQmOhxs41VusV1xSfU28baJzYsXL0uORvu48w5zFwEMgl95mI/a4788sv3vmfJkqoNtp18j2UispoFykK9cURmscDxLChKgszz8GFi6jrSrHTRn7urq2vwm5WVa6fVNILMzK1wY/W8su97vPzxpmkGJ5Hi2AzG6gXZ58Te1TRdBDnRFkcut02Q2gzDqCwjtoyNJB+NTaTu6R2BrtWrV88Ihem1N8ITT2wIVpTlfrO8LPcsy1AWoHY+dhxccRHcVNHAcThf18isGxydcJdRBwClQlEyFCtqmiLgqe5UwmoeGYn9PwCaKy0u/pQUlBp0OZqtmUkQBRoMTQEP6ca4MrQMrj3FgKaaIHkCYCIN3WKBZQWi/AYOk6BZrqW3u+/O3oHBh04++Sszwmh4bczwfpAopjycHfhEYXnhp8GUC9VUJCRKDOFxv/pC+iWOYTBwLsjToV1fctypcpwwFo3KTw8NR29ceNzndk73L2hLy6Pvr6rMv9lxtKU8K0CKbEhFsh6uFKxJhHUp1mVEIIUU7wme9+5ub+m7tGbxR7ZO9zlnjje7IpBJ6LNrPab9bJ5+emPu8uMrbk8mh9b4g0KQSyOtLc3lOzsOQ8xYfH6RPPRVTSbJxRMo6Dh08NDNHd363aefft60Vbj48A54St5XWpJzgyCx9Zbj+A3bIjakr2iJE7kyF0RGZFaJNCkmepPQ7PDfcGPCUiwwlDgOtHgwOhrZ0DXQ/ejSpWdFp30R/uOAWGlytvK+otLwd/JzQwstWw8jRRDpS6gDj9eDmxU0NTP0uCvygrrfFFpvunsSoq0OPFgma7CMGLeBsSzLCNOMw3ECUg91MHQZeJ4BXUGRGwEohgFdw5k8gOALgqEgmp4Fy8EkiBK/dqfj0LtbD3Te6M8KNi9cOPN67Dt3/jwUlsSzyyurvwi8VKHFR/IFETdyqGboJkIUVSXdJeJYSjYlaTwITXTmvV4JLCstlERTUcfmd3R1DX63dsHnnp/OewHXPS+H+0Zxad7FlmEVe0TsHLgAPqSK2rbxCiASwYk4TrItAw2S9ETSeKK7bfTi41ae0T+d55w51uyKQCahz671mPaz6Wh78mMVVeGbHEeuoBkT5FSctKkZSgRDdW0+EURkGDJwAg+WoSFlaSKakP/R2TN+5XR6dRNZ0j2PrSovL7pREullQDs+y3Fn/K4ZiKuRTjTF7fTfiX6qOyogFTp5uLsPSde/G7sQtMaK/q7oePTBzp6hXy1btnbGq0602/zIaTULs3N8N+bkho6jHL3MG/CQeTcv0BCLxUCSRHBsnZi4kGY8lR6LOBa5LmIAY9PAsa4KHVbghqMRJDuDeQ09uG0NOGwDEOYCDYAoalkFXpTI+z2+AFEps0xmbzSqbRoYitw+3eOVN/ql2Ld1Y1ZhtffqcJ7/E2BqZdHIOBXKyQLbUEGWE8ALLDDMq0KBOLZwK1uabACJUQ7BWViQUlMksbu7IUGmKO+z7W2j366tP2fHdP5Sbt++say6suAur0d8P46KJFFM39to2OLe6+T+RnCqg5tSAMOiQPTnDPV1DH2jtHrVvdN5vpljza4IZBL67FqPaT2bpqb7cmqqc+4OhvgPiQKKlVCQSrqmKyygA5gNDCuAoWnAcjToZK4nAMX793TsP3Rl9cKPPzWdJ7xr10PzGpYs2gCOvUxX5ABypFmeAZq0ILE1jIkM3Ba7/WpFS6ob8jDHdns64adP3G3RA+iGBV5/TufI0Nhfo8PJW+Yf94FZUek8/pcNhRW1WVdUVZV+wnGUcuQma3oK/EEUcjGJCA1W79htIGA5cp1A4kC+MrhuOkkCOJPFr6rhYhcF9LbX4yBIHrB1GxQFq9UA4rDIvJzlOSIkZNlU1/Bg5Jbu3qH7V6/+xth0rvkbHWv79nsKC/ODV2aHpLW2pdRLHpEI4SASHA1PUCcfNzium9kksDNtHIO+7ek4uRr6HOhprj/eQ+hkSlGeBMcHt+9v7rmk4b2fnVaBnEMtj32wtLTgFsvWFnAoSADpUdErwXA3JvjiORZM3QbTYmBsPPlUf/fY+StWn9M3G9Yocw7TH4FMQp/+mM+aI7a0/P0ztTVFPzCNRJlhupXfpAuYrqOVIw1UuvLFggYrd6C4wbGh2H3d+9pvaDz14mmTVH366T/kNjQsuU1kmVN5iQ9rKRUECdvAKTLzJ5auhCztJnS8sbGNiq1p1CMnCT3NP3YrHLdiN023jSmIEiQSCgSChcOxWOxfhw51rAeoaG9sbEz3Ymdu2R555E7/wtqcq6rnlX1KU8ZraMYgbneo9Y4bF5K40xU2hdK8+Lgn12gDRcCMbleChCDNYTdRFMYygGMtMBQVaFYAihZJMmM5CZKKChTNgC8YbuvuGvhtZ7d62zuVlz0aEUREeGXlWE1Ndek1obDvZMcwywmdz9AJpoAXBFDkOILxiSa66zH/6sutzEmEyH9t0wLeI4KlK4QlQJgRFIr4eMC2+Eg0oT3Sdmj4WytWfGH4aJz/kXzGtm1/CtRUlf/CF+DPosEMuS5suIbYTZocF7ifhKYuyOIQPQEU+Blpbem4emjc86fZgAc5kmvNvOfoRiCT0I9uPOfMpz3zzB+qFtVX3+E4+ppQ2ENhOw+9rVFLHB9qpome5w6pALCtTYRMLMpiaE/z/tbejy9ceOa0OWc9t/uhvByR/VJ5afFFHEuXEuS34ladyMvGrvpkkibJjXZIhUpm5enk7bba8Q/h3rnzVAQY0eh6hhUagos8EIvLwHFShGE9O0aGxm8dGZH/1dh46rRtXN7oBnrmb/eGs0rZS+oXVJ4DINcl5XGPJCEafZIp6LbMX5/QTQIKc73VUXEOledcURqgkaVgAYtqfyYiwSUARiR68Q6F0q58nBG9HYcOtj8wNBr77UknXTrjYjEExR7UTi0vzbpE9MAy3VDzkgkdfN4AAYzhdRKAG2WCyPMQiY6Dz+d7TYWOeMjJhE7SORmsuzgLhA3i6AFgYnQCRNFDFPAEKdDX1xf5Q1JmfzmdPuR7tm9cvPg9S+42tPHjiC+6/aqg0+RmhNwreN8GQpCaiII3nAUjQyNPtx3s+eKq909vV2HOPPje5SeaSejv8gX+b5eHSOr58wrXFxfnfNwwtGKUHDV0fPAjmpl1aV40m050bsLAap0TA/3Dg7Gbnn529PZ166YHELVjx1/Ks7JCV5eW5H7ItvUKdCPDhzZ2C1zUN1ahbuImiSo9Oyfn/J93N1K9SGU22Zq2iX0pVvR43VjNa4YNHjEEiqrphm536LrTNDISvU1RQm0zXa2jCE1eFtuQXxS4vLQ4f5Wqx0pZBjc22GJ3Z6qY0LEqxU4LtpzdkLhIbwItwG0MtpwJHY0DR3ftW1HCVTds4pamqFaXTUlb9+xrvdke5Q+tOvPziZn8NWnbvFmgKpjaYBZ1RdDPrABIVulmTBJFERjWA4loCvxZIdDlBNm0CAIPpq6CGAiApSivO3XU2iNbObKjs4lID1b4aFHr/qyQHuEgTQ/b7w5IvuzukaHk3SN96u8WH/+paaFnooJc7Xzryoqy7MstG1X8EKGPmA+OrN/kZpWnGYjH4xAIhyASjYLfH4wNj0YfHuqOfLvx5HMGZ3LdMsee/ghkEvr0x3xGj4huZNUV6sezcvjvMaxZh7t94mdu2CSJ44uAcSSJVG744MA2pmWBYhr8swfbui447rh10zJffuGFRysXLar4KcvDCp5hShQlTty+8EFu6Ggn6c6HJ5Hsk7NzUqWR1js+rDHZpyt4ktDdF6ncsQWfllDFn9U0Axgeq178WY7Ixno9oQkArisWS/xmdLT3wdratTNi5PHam6Zp0805uaUFF9UvrPi0aU7UUbTJvmISa7tcceSm4/UhAI7UoiRp2WSmjkh5nE4QSVFWAFlGI5AQjlN0x6EPdHYNb+g82PPQmjOvmbY28xv9UrS0POL3iqF1JSXZXwIqVa6lRnNpVgOWMYiSGtq3UgxHqJTIzecZpFimwBcIgZJy0fuveyE0nLgFkqiQtjxuBClGAENFyWAWGEEATUYGACqz2aAZAB5vTm88rjd19SbXNzRMj9HP9u13ly1bVn+vZSuriGMxyu2iVa31mu6TaQHn8RAgIN732G3SDKd/aCB603hS+11j4xlvKgE8ow+jzMGPegQyCf2oh3R2fyACy+bV5G2wIblKEhnWMEzygMccyLHobc4SuUlMBEj7sdLVC8/59rUfGropmui/r7Hx4imfK7/00l+qysuLfpAdDqw2TSMfKWeonIWEK2yv4ogAq08cDRAglONAMpkiMpm65ib0SZoXvh/fQypU2ySJDDXKySM93YJ2KzbkrruUMBTt0HX8OREfpDrL+9tGhsb+mJSjv62unvkW/ObNvwoU5AbeV1kVujoY5pepckLENSNiNIhiJyhoBxxUGhOQcoiluk3WFt3xcJ6OsWMxgdE4cnBkQfK3Nu85dE1sOPL8SR/59mxosWfV1JReGvQLn+VZq8Iyk7xtJ4EG7EogPoJcEmi6TjagODLiBZEI8bA8zsURI4F2QihfzLj3i4VKccjjT5J7HPXSJQ9a1aIYkR9sHUcTOIZh0swIC0wEWtI8atYPRUfVv/d0j9/QsPy8aXHva2v/y6WF+dnfpBwo93h8BACHCR1fRNrYRMCcCQwyC1Hp37IIHiIeU3e2tw9f1HjC9KL0Z/fT791/dpmE/u5f41euEGeQJYXBa/OLPOdzrF5oGG5FgkAbUtQSNTKsaLCCwQoPkycBSY3rKvNES2vnV6bDGhVn5nUlRb/0+qSTGaCKXLCbW3FiQkdVNGwrE7oWLZDKhKaRc+wAJ/jS1ZU42Nne0WzatlRaWrJQkoQsVZXJZ4geCeLRCQgEg2Cgcgq2q0kbHqv5NG8dj4Q0NwtFaDiUCnU8Hl/bxFjib8PjY7+qr//wjEttbt78K6GoyHtKRVnoel6kFgsc7VE1lG91rwWrVRoY0HUDLJMiYwoymiBjFTR0QYMVBhjer8QiiQODg9H1kYORJ1euu/L1feoZ+B15/vn7K6qrS78eCnnOZCiz1DJlcGwVWMAZuQ42Wsri+qOmve2K4kxu7LArw3I+sA1cT3SGYyGVSmkdnR37OZaLVlSXLhY9XA7YBhhGirSss3MLwNTwPqNcYBwB2qnACawr4EMjpx8F87z9ybi+ubNv4rsNDeeNTHVoEM1fUVXyW79HOt2xbY6yEeTpgIBdKlUFjsEuggk0i6ARV+uf40UwdZCHh+Mb+0ZHvpXxTZ/qVZo9n59J6LNnLab8TPbte+y4+rqS+0wjugCpyaaWBKCRh4uAG1fuk2XFNLhIJw81muVMVYUXhnqTF9cu/OC+qT5JIq6R57umorz4fF1XixkKZ9uEK07ENdxEjiWKRf7OsRJomg406svjDJnmgRf9h1r2N2/s2Nd6KxPgqPr5i68rKi74oKoq5aiRjTNlr98PqpwitDyX6uVuGjC1u6pzrtQqqeY5gSRF4vvOefonxkefT0QiP0zp2r6ZFlfZuHE9X19ftLqqquwaUYR58cRoPkNZIAouRQ1n6jSL3is4L0ezD5wTS+S68PoUzRilKGnvYP/4z3fuH3ty3Qwnc1z/UK6vITcr9LVQUFhFU3YRJnOUQsXKXETVPFTEw6qUQWEdmXDqaR4lctEVzsH1BxSIMw28Z9BARujv6up96fnnt97gDfqS8+dXX1tZXvx+UWKKZCVCNNHB1CAVlwltT1ex0scNnQ2mrRExJcnrJR0b06IhEMrvjU+kftbVF/t9Q8PUiyq1tDxy4vz58+5UkrH5CFp1dRZwnIIzdbfrRCMhHRO6gd0JVAlEVzarb2AwcmnfEP/3DOp9qp9cs+PzMwl9dqzDlJ/F1q0bs6qrcn+Vk+VZIyuRfI5BwBQmLZZwjl2ajkuNwQcF8ncR3S5KWQNdHf23Db6c+sXKdeumtHIjJhWNwbWVlZU/1NTIIqxC1JTqStGiIQhp/5tAMwTa9QpNjUKakeAD00BDFqml7WD7gz0Dvb9es8alGm3ZcndeRUneZ0vLi9eJPF3rgBnWddmdOQoozoIbATeJE4NSLMUIYIoBhqMhmUiAJHpJEsTkz3HcBMvzHcmY8pORQ/IT1TOMgkfBnW3bfr20pqr0upw87xJdT1TYlgI8y4BjWWQEgZ0XRLLbFuIKcJzCoZ75cCKZ2t3ePnhtZ9/wrnXr1r9WJ3XK78n/PMCzzz7iLy31fyo3L3wexzsLbFPL0jWkJVLAEEyAiQa+QLI1IvQ5GlDJ1ZBxVs6RjZ3Ae8HANrTFgxDIi9gpu7Ojq29TW2vX79eeczXhZz/52M/mVVYWXV1eWbiGYeSy8dFBMlrxZ+WAjZK6PAdKPAKShKMJ2x3x0CjBy0M8LoMgeBD9vnegZ+w7RWWtj02109nu3Xd783Irrs/NCX6WoSAX7XSRToovl82RNnLBMYqRnoYRvX3KTqaMf/Z0jl607MSMecu039AzcMBMQp+BoM/EIVtaHv7Y/Hll1yfjowt8HlSRYcHSFNJiRnENrHSx3ailHwgOQVkxsiiFntu5s/v8ZcvOHJjK825r2yzounpiZVnZtZxAv1dXFS/OzDHZvj6hu7NzV8oVDUqwhe4DRdZ1gfMeHBmOPtjS3nH76tXnvk4AZdOmTZ6SEmdhZVnJ17we/hTHMYs4CUVzVCDSsahUztJAk3gg2Ao3PAi6Q4AgggJd2heioFVdA8nj0zRF77EM6p6D7QN3TMco4nDx//e/f11aUZ53VWFB1mqa0uotW6HBwXEETboLpkGBbWAlx2s0xXYMj0ZfaO8cuMVmxw+sXr1+RnXsX3jhoezKysKv5eZmnWeZcr6mpXgyWrFNQEc49PczTAUcWyOdGcox0/euQRThVEUHjz8IYKGfvA3eYMGhoe7RHSMjqdtG+8f3rzn7y+Ovjd+WR2+tnFdX+s2K2txT5dhwNcYILWgj4yMQDviJ0AzKGyAOAwti1MdPJlIQCIXJsThONHnO93xr+8g1AwMlz091Bbxt2/+rPW5JzV1gaSfiCIAjc4BXwY4E2IcjMgslYrGDRYGNrXneP9rS2v7rlDF2U2PjxRmA3OF+ieb49zMJfY4v4JGc/ksv3Vu1oK7s97atnuz1CAwOA1MJGfzhAOExE0CYg5Q1RMi6Qiu8yIOmGrt6usavql1w9lMUPi2m6IWVWXGx98Pl5SWXUpS9ODIxGgqHQ6BrchrBjiMBd6aN9CoXoZ6embM0GATcJTaPDEWuf3FXy5Yz34Rm9dxzd+eV5Jd8MK8g+3KHsmpZngli1Y8tTDI/J5fp8tixtY8ObYqcJKWQ5PUTMRZNUwhgSuBEVBzrtgyraWA8+bNEQm6d6Rb8li03ebOCwQ++p3HBlaYRWwSOGiBKeUT3mwEOPApFeQ4e2NuxvnNs9J9nnnn1jFLSmpruEisry+oDfs/V4VBwhWFoZaj0hmuionGMiJ0FCmxTIwp5DI3VKPaZEeWO1SiNjC4QUeFOQ316Kk4xnj09nWO/GeoZe/LktW9sHvP00xsKwwH2YwvrKy5TleR8GhHvDOoxKOAVBfIVX2hZmozHCAtE9HiJpK6m6tgRkP2+8PbouHxz77D8z6luv+9++c9n1C+o/ant6HUoKEMq9LRfwSugTkJXdDtY+EKZW1Wz9jfvbz1vxUnnvzxFv8KZj50lEcgk9FmyEFN1GjiTrJ2f9+1wkP+irifzGWxPixJYMtK9bGwwu3xzgugW8NFPHhIMJ/QODQzf2t45dseqVVPHQ8ZkXl4pXVpcVHwJAJ3vmJZI0MiGRuaBPIczU9OVhCGGI0itw3rNTeyapoLXH+gY6P3/7H0HmB1l1f+ZPnPr9t5LstlNLySEkBiJBoFIEdcCH9IUAQUFFVGBCAr6gTSlKUVALEFQBJFIcAkJIWVJSNtksyXba7bdNn3m/5z3vYt+/lE2yW6SDfc+TwibnTvlfWfmvOecX+n53oGm5pfGombmuqvZHTtmV1SUF98JvH06wzgpRGATuUEkM2cAxwlLvMjnRl1wj0ehbQhS6rdA8WJVIAQiloNFb8Qynfa+3tDDugnPl5Sce9zpXm+uu3/BosVVd0myOV1TQ5mYuXl8KT2RYfvglk17v7/inJtqJuqeG+t+t2xZl5qean2huLT4clMPF5uGmYRodVwwkf4wEQhC8R8XLCMKtqOCIGBAx9YLpSu6joDUBKJdz4tKz/BAZOPBg50/amzN2lNdXf1/ZeI+4MRqax/z5GSlfCU56P06MGaJaUUApe1ZxiJKhLqKVSyKkrdMmzjQhcNR8qygfgPHua7rck0DA9aj3b3akzNnXjRh7ICNG5/w56an3VxQlP0VUzNT8blFqh5RCbSpvzvtseNqFO0GgVD3OF5yDw2GH2/ec+im08+ZuPMb67wntpu4EUgE9Ikb2xNizzt3/n56YXHWk4rsLGAQIewwFBlr0n65aesgeRXQIpR3iwELXEZ3We71HTv2X71o0ZcnTBe6pqZGrqwULk1L8301EtVmyLLMoiAIngeWwiUZFcuQeoQAPeSG88AySFFD6Bp6d6P5htDY3tX9Wmtr+62nn354L6vajWsKSirzbxYlfqXIs8U0U6dZOvKTGURPmxrIMpbcsX+O6GkWbNeFWCQCXq8Mlh0jVCivN8UFkBvDI+abQ2H9/oKCT+2byKrGWG6umtd/tqi0LPvm/KLcSuQ7NTa27m9vGXjQZNnNK1d++5g55P37uWLPf9euv0zJykr/RnqK52OGHq3AkrEgeyASQnMgClQkAjkoyQ422I5GQHEsa4BrawQYh2h9y8TAL4PkSWpob23/+8HWwZ8tW/b1w6KUrVt3f+aM6SW3+/3cWS4TzZMEF3QjRoIj8aEn+gzYk8YFBCrpAYg8GhYh0h4rWhyISuaenvahR/Y3hZ4cy6JyLPP3Qdvsrv19aUlZwXO8wC4kJXYHW0U8AT8SyhqLzAZkgtCFKZ6rGjOAE7yNu3Y1XnHKaZ9760iPnfjeiT8CiYB+4s/REZ8h9iXLipN+Knvs8yTJTSWa5hjIXeQey1TnHEFmLICN6HEsZXMsoqI7Wg92/bCo5LzHj/jgY/hic/Mbq4oLC+6wbb3CsnQJM2LqGEarBATdjmlW0mUAACAASURBVIsOwyHIbHyZxqJR8juv14vF0O7+Af2V+gONty09QlWsdVueTi3NyP5sYUHul23LnMKxjg/HxEZKHym/U51w7NPS8qZNwIKoWIfGMI6rkpcnKoph5UD2+Hs4xtswOBi7MxRtf7O4+DJtDEMxYZu8/PI9admZKT8I+gOeA83Nt5599nd6JuxgY9gxArz8fuW09IzgjT6vd4YW1bKp3zf2fBHDIAInUK9y7F8LAgO6FgXX1UHkHeAZi3DtCcId+eJy8JBpMQe6egafbGzufWXFim8cUXVkw7qHSwrKk+/Mzfd93DBC6aIogBZVsQcNkbAKiuQh9wBiKnCRiZ4p1AvAAZmoFiLFU9p9qE//Vk7J+X8fw1Ac0Sbu6tVsz5c/dmNWTub1pjqUS3dCNQdwIaxp2N+nANLR80O3PcflrY723lc7+0LfWLbs2AjjHNEFJr50VCOQCOhHNXwn9pd371hzdmlZxs94wZzKczZZwRNEN4jAMkhtQf9rlQR0QRYJoMZlWI0TvO+9u2nv5+YvuaRtoq5w794/V1ZOnfqw6zKzbccMotczDejYFx21iURJWhrMoxEdUFgD7WMIOM3r6xjoG6zZXdfxveVH6S6FZVfXDJwyf+Gc24BxZlpaJIUXGQBbh/DIMMiKSLJ1fEmKAS9YKpaEBVC1CMnQCGUIz9qmSGiBV0K6wTSNRKwft7ebfzveal3Ypz5woJW96qrVxxUUVVPzkC8/N+XCvILUKxnWmGmZup91JGAZFL5hwCbGIyIwxNuV0hSxr404D4/PA+GhbvBKAlimCqIkAAhKn2vwm97du/8upofdM3/V0YG+NtX8vKJoauqPMrL8S4eHDqXjotHULGI/69pUMhjBkyyHbArM2HFR5wU9GiWZsMB7TE4Mbti/r/M702ZeNGH96q1bf5e/YO70F1RtZIHA8fHMHEFx/1QFHAWNjtI5ET/hulzXwdau1XX7I08fK+nmiXp/JPb7wSOQCOgn6Z3x7qY1ZXklmT9LSRLOAEbzMsjdJVSXUZMHIa4kZoPg9YJDNL3RoULu7O4Z/MmBxs2PThTyee/e16qyM/33Jqf455mGnUqTDApKQ9oYonRJuRXLhyRLx0UI8uQpCt/rCXaFQpF1u+sablmypHpcFh1YBn5vywtl+YVZd6VmpZ1iRPrzDTMCvmQfWLEI8B4FQFdJHxXpbkQWlEGKm0nKwlSEht5MLE/ETCzL4Xcd6o/8fDgce2kie6uT4Rbe/OqDgdTSrCtLS3Iuj8QGKnx+iYvFIoAwPZaIvwhgkyCOi01stcR97EnZHatKJvCsC9HIMMgiD4LP1zncM/DGgaaBHy88/SsHxmsM/vGPe6uqqgpvy8jwnzIS6i2UBA4kUQFdNclijUc7WgRFurgAdQADKitJYGkG0sQwS48aOvN2Z3/o1qqqS7aM13n9+35aG9d+paC06CZbD5XgAhfL7rhgR4tcqvRIs3SkfkZJO80PrstCX8/gpva2Q1csXn7h/ok6t8R+j98IJAL68Rv7CTsyltozU/2rs3OSVjGMXggMinLE1dZoyCElYgKi4RiIqSoEUjPBVO1ey2be2LOv/cZTTqke99JsbW2tkJwcWlpYmPl9XQvPsG09DfuleD6UdsMQGhqC4MhZYg/QdkDVdZAlD7qgAcP7DrQ0tf15oGvg/okwn3jrrWezC3LSrsjOTrpQFKwK29Ek01DBRawB6e1SJTl8eY5qZ1ujOunxNgEJ7g6VlfUGM5qi0dj6Q4fUh7q61H2LF08sl3/Cbqoj3DECuTJTk6enZwa/HgzIS1QtlG/ZOkRjI5CRmgaWgasgBCDyJKi78b8J7QrZBiiOg+Mal/IVFU84NjRYFxoe/mN3V89v5y75+rjTKWtq7ivKyvJfV1GRc85IqL8cgzo4VEN9FDyJGbqgiIS3rqoq8KIIkjcJ1IgKii85BA6/p72t/+bNtczbYwHnHe7w7tjxp6TczPR7kpO957uOlYJjhM8NAuUQTDqaraOCHjrH4fNu2QzIoi/S3NK2tqWj94ZPfGLiKnCHez2J7cdnBBIBfXzG8YTZy969a0SW9V9aMSX/26o6XIY0H+xLc8QqlIJoRvtreNIkSDkMmAZoDkib9+5uuXr+4i+O++od3aOqqnyr8nMyfmDakSKBh6BuYrmf0o44l4rH4A8YxEeNRdBkhJG8EBkewixjX1t779N9rX1PnbZy4mQ3sQQvgDIjkCStTkvxzvYlB7Oiwz3knLyygjKi4PX6iJc6Bm/q+saSLAnFaSxkDzgWCUg4th5/+iAAd3BoIPYnVYdncnNXHhPHruN9U9bW/ro0Kyv4tYy0wEqWc7L1WCyJyPcSvXzqcoYZLi5+iG4M6q0T6WGqP4CwBNxOFGQIU6OVJiNm13b39NxzaGSkfiLZFzU19yVlZcnXl03JuciyouXI+9ZVDQRWAAHnPhaFaCwMQb+fzD8qDiJTBEGluNDzB5JiLiPW9/XpqwcG9Ncmgs6IfgeVU4qfkyV+Ed5vWOEiHH2GngNF4VPpX1Q7jEUNUEQFKyF9ba0dvzrY1X73Jz5x1XG3Bj7e9+nJdPxEQD+ZZhMA3n33xWkV5bmPm1Z0ns+nSAjwIiAzfGNiOdtFeUwqNoJuZPiwu4wELCgHOrtDt7d1KH8Yb5GM2trHBEXJP3fq1KKbONaqjMVCHoHnkEoO1mg27iI6F/28qY426VWyyD23SQD1p2R1t7d2/q6p9dBd/y4aM1FT+Pbbj5VmpPi+KfDWx/PyM6chSwA7AIhwlyWBYhKIVBdtY4wGKfJyJf7aiMznQNUMME3HCSbnt2iqs+1gy8AtlZUXNkzUeZ8I+92581fFubmp9yUnK3N1PZpv6joRZVEjMVK6xvHC0rBH9pJxRJVCmo1TgBypcmBj2uVADqTowwOhuoFDoRd7O0PPLv74F9uOBYNg8+YH8/LyUu7w+mCFV+HyEBzpEM0DKkWMi2HbMoCXFDBiWOYWgJN4wnogzAyX03g+eVc0wt6xrmbkb+OdqaNz4tRS/qb01KSrGcbNRWYGHheZGEj9EwR8lmhFCWVx5UASxIZCRBVvaHhox8Gm3msXfuyL75wI90viHMZnBBIBfXzG8YTYC8q7ZmX778rODJ5vGJF0v98LjkW1yQnHGnvUCO5Cf2wOpU45tEUFcKRh25LW1b63/5qlSy/vH++L2bXrL8tmzJj2gKGPlHGs4zXiHtyiLIDpoIiIA6zLAuq2oz0kg44w+Idww5HnrXSDINe+U7Pp6sVnfOmYWLeOjkFNzWNpuRn+VZmZwa8LvDuDBZPHFyZR2HMMwCBPypvY/0WkNvFjj4vUCJi9o60nAqZkUDUH/MG8bgB5S92Ohu/vbRTrx/slP95zd7j7w8UbzzNTSkqyfuTxwOm2FUslanuSTFDpaKZjGDbJuqlxChUMoqVseq9iC4OayAggKMHhkYHozuFh/aft3UObD5eaeLjn/+/bb17/aHnV3IJ7AMJLHTua5PN6qBmQgws6RLvjwsQATyAZ1PAwsDwLkkeCSCREqg0eX5pq6GJLV1v4suIpZ497T7229i8FpXnZz/j8nmU2cdqjBkOOZcStc6mUM44rVhAkUSILUOA4ta2t+6/1Bwev/+QnvzDubYujHffE949sBBIB/cjG7YT8Vm3t7+dWVOT/juftKSj5iR+OaKBTRSmihEY4vTrYDDU0QT9pUc7ctWv7vqtmzfv85vG+sA0bniupqCh6OjXFN49hbCUcGiEWp5iV6aYBHFK/sGIQD+iYpaNcN5bdMUDynuCIq9lb9+xvvm7m/FXj3goYy/UiOlvmnflVFVNu9Qel2ZYeTWZZF9DZTBSpSQxmktgDRiDfKL0NFc/wBasZSH9SQMN+sSuCJAcHOcG/vbdr6IHhFnd9xZJzj6ta21jGYCzbYKsiGEy6oLAw5QpBgMpItDeDYxFAiAs1llC8kGGBZkCi4CEBhowX+gfEEdoYLC2HWoPyoqd3eDC8sbsntHpPPXvgeCGzN63/+YxFp0+/27JGFrmOFkRTn0AgnQDhsLc+iqnAvjoKNaFsrCBJWJUBnvei7Wo4NGhu3N/c/Y2FCz8/bgA+uuB1ma6DG89JT0+7VzdiZYoigOOa72NmOFGG0NAQoXmSTN2gpjzEWZAVO7bs3Pe5xYu/sGks85vY5sQfgURAP/HnaExniNSkkpLsRzIzA591QfMiEtfj8ZAXKQab+MNPrUdBp/QwF01Nkg4NdEefa9k7fNv8T1SPaz8Ng3lxQfadGZnJn2IYI6CqaGyBCls82GhtiVrpSEnyekHXo+BYNjFBwTe6odkgBlIHQHfe27+36ZsVr2zby6xeTflsx+FTU7Oa90uF06ZXlf5ECkjz9PBQpuugp3YMBA8HroHCHkjjpwhtLaaC4pfAMjUAVDyLBywXWwqAQUzUGUaqHxnWn+/oG35q9uxjW3kYzyHEoPLuu7/MCvr915VNyT/PskLFlhGVUNlNErGHq5HFGZrDoEkMmuhQwRaqUOgJpoAWClMrV2KHa4MczOgxo9q6vXuabp+z6KLj3p7Yvv3ZWeUlqXf7/OwcVQ2lOZYFEnEmVMA2bAzj1NyHiL2grgN1MNQNGwTRB5LkHertHn659eDAjxYtG9/rQRBsbmraPRmZaefyAiRj6d3UVGr7SipH/1RtJqJJ5F5EhAfvtnQMPr1nf+t1/00ueTzvlcS+JnYEEgF9Ysf3mOwdXcqKi5lPTpma/xDP6cWSTKVTaeBEGUsqXYkfXL2jbCYGdJblbduQtu6orbtk8fJrG8frZFFaddObFZWF5dl3+jziIq9PSMeKAbUiRQ9uzBSQjoSoZtr341iGZHIoHKMIHmAFX++h7qH1na39t8w+/YJxzWqO5jo3/v2JnIw83+VpKf5zkpL5MnCHU207SjTmeR57qlSBDy0sXUsnGRuD2tqI2EdhH6y/40uWRaU7pGx5WhhG3tPTF35yqF1dX7W4evBozu9Yf3fTpsdTfD77jPLykktlWZ7a399a6vUit9wEmfgBUJ0DzMRxYUnQ/za+dlBEhif93kg4Bj5vMqlemLo7YFr8nuGR6O97Ovtfmr/0f7qP9TX9p+Pt3Pb76YFk94eFhWkLLSuai7oNnEuZD0QmmKViLsSOl5WBQw91BPxhG8EFVGjsY0DasvO9pu/PX3zx7vG8ro1/e3bqKUvmPW87+gxsBSkipaWOLuRHF5SjYklE39/lYCTiNrW3d19nM72vz59/VdyqbTzPLLGvYzkCiYB+LEd7go61fv3vp5UVZz0aTJaWCoIJgghgm2geEQfqsCIB7BCVM0RfY0DnHAz0PW0H+3/a0d34i/HinK9evZo977y5K6oqK35kWJEyWWSTUdkLMxqKbsa+PeVsE6oah6VYA2QPvvw10k9XvMGO1oaOlw92Dt65fPnFEyY9e6TT8eqrD0o5aYEyb0C4sbjIt5ITzBw1rJFSJs8KpI+Oi6lYLAqSJFBN8n9RmcPjkp+Rb+3iAkc2eMlzyFCd1/fWN902d+6VrUd6bsfye5s3P1VeOS37Fn+AWwHgpA4PD4o+j0yC9NBAPwQCAdBVtD/lwWXovFP3PCEOjGPAtNHbHClhAniU9PZDPaG/1tW3PBg11eazzrpOP5bXM5ZjrVv3q8ySAv/tBcXJn7bNWBZjoVYCEFMX1CUgLBIbFysSeeYsG7EWeBkuWdAGklLDwAZ3t+xrvrG48jPj1uJas2aNOKWIvaGqaup3Wc4NEvVH4ryGRS0Wi0TvZ+a4+MA2F2lpSUnQ3z+yoW5PyzXLV35+z1jGILHNiTsCiYB+4s7NmM5s3boXUzMyxCurphV/SzdCaZLkgqZFgedcEGUZDM2gCOy4O5njomgLpu0YZLiuA3vavjZj3hV/GtPBxrBRTc3vimbNqfitLDKzBd5RUIgDzwfB4PhiJxQl7N8hbxbBcIgCV1Xw+hSIRCIQDKQO9vUMvdnY2nnDaadddEIHttdeuy87N1O6uHJa0ZctyyhnXDS6QfU9nXDoeVkGS9P+5UWKZc5RER18waJTHAUmMiwPihLoNSzurabmru9XVo5vWXYMU3dYm2za9NSM4uK0H/kDzkJBMDNx8Uj02Fk6n8GAD2KxGKArGGbn1COALuiI8QoGeMcB5EkrctB1bLGp/kDnY90tsWdXnEt97E/Uz9tvP15YWpLyYHp64HRb15NRKNDlqKoQoYQ6qDSEFTHU/UeAH3Vxw3tjZFiFgD81bDrCO/vquy6fPbt63ECeu959/rJp06bcbRhqKlr+appGFk6EPY8tAFx4IKWSRc8CE2ycElsGllNGOtq7Hu4fMX6yaNFZoRN13BPn9eEjkAjoHz5GJ/QW76x/cdqseWVPcYyzUBAxQ9AAlTNNU33fv3uUBkRKcLhUp68efNDV4QH9xYbm9u8tWXLVuCiu7dz56sfLpuT9wjJj00SeCteMAnHwxY5ZCr7QKT9WA1lRiORsOBKDYFKabtuwe09d86WzZ3967wk98PGTW7fuF6lBD3Ph3DmV11pWrIIXXMGxVdC0GGkvEOR+vH+OX8EWA6ERovkLth5szPBGneNMkBX/4MhQZONIyL4rFDN2T7Ql5+GOMQIEMzN9i4oL87/NcMYCYKLJlqWByNO59cR5+hhE0DnNMWkmiGksmutQ3j5S0mhrgmWkGMt5DzQ2dT7a0xd+Yfnyq/6Pj/3hnt+x2n7LhidmFZdnPJrsFxfhXFIxIYI+JfNJbF1xwUoyZYtYvlLpZR4k0QuMGNjVtL/t8rJp54+LROz6tU/m5+SlPVRQmHWOKAuMGqN4FVRXJPcdUgFxYYELK1x8IGjWZUEQguSc1Ji1c/++xgvnLT533Fpvx2ouEsf55wgkAvokvxu2bv1L1azpxU+KiqfK1Ia8mhoCf0AhvXKU1kR0K75YqPgJvmeo8ha1nmRAZDytfX0jz7Z299y/cOGXBo52ODZterZsSkXpGo/EzEFBGx4lbdCljEeXNKTOGEQHm3LgkatrgWU64PUlQySi72lu7Lq/sdV+9nghmo/k+je/+puAkKx+auassustOzwVQE1hIS4PS2iD+JjFX6zE8AU16ym+D8vuTNwKFjUBFMULwEojpmbv7e+N/Lm9deh3i5ZPnOPd4Vzv+rU/y0/PD15QUJD1GUFwZ1u26seFI7YU/B4/ychFXoijqNHaVidCLPQ6qRLgaIWGJyh2/xAwyQdqt+y4R7fctRMpFHM41zmWbbG19NnPTL+wuCDwQ1GACqw4EM95oLxvSmvUyT2P/HV8DnENo8ZskEQPhEKxbR1t/Z+btfCSw3KG+6Bz21qzJiuQJt44dVrZxa6jZ0WjIZBlmRyPqO8hnTLuj07klVFsCpkZWEEwkJ0hgij539v13v7PzV549gmDVxnLPCS2+b8jkAjok/yOQD/xzBSmOr8g7wZegEpOYMDU0ZEM1auogcS/olwxoNMVOwZ0FkQ0aZG8BzoO9vxiKGL+ZubMc47Kz3nduqdTK2cWPJ8alJcTPXYHUbYAPDOaneF5kYSN9M4xmeFkH/R1Dx08NBB7aGBIf2bp0upx58JP9DQj/5q13fnpGdIP8opSZxlqONcleHb6Qh1lGpDziDvKYVBHlDSwPERDIfD6AmAZyGtHtLcAqu402Q63+UB9x4/nLrpy/7EQU/lP47TxHw9PzSlM/VFBftIcVR0s9fp4CIdD4PcnkQWjGqMgTD7eQiEMi/f5+bioid9zcd6540CXbQtb6/f136G0+/ZUVVcbEz1H473/l156wl9RIn0lJdV7XVIwrQBBjjRLxx6KCY6rgagooKFDIEio70+CJ8dJbiQcW7t/98GLF644ukU0Itzz0pNuS8tIOlOUoLy3twsyszPIA0babYDPHQUhkuUGLiTJ/UetlPWYC15PSnN396Gn9zf3PfCJcWa6jPeYJ/b330cgEdBPgjtk8+bfBGRB+syUsqLvMJxVwbEuCCJDPJ2xX07AaMRXOm5TGZckZfBBx6zCYUH2BRtCI9E1TS2dD8yde+QBFTOX6s9Mv7mkNOd6ADsdS852nFNOS882cIQ6E5epBA4ODYbg0KHwLw+2h7656igds473dP71r6uzsjLkc4uLc77k8UgVjMsl4wsVefYklsevfTSoY5UC3eQQ8W/qFGQsiCKERkYgkJQCwIrDwMp7Gva3/iTUGds4/xhLddbUrPGlJTOLqyoLv6MZI7M4NpaGlrG6ESG4Bz1GZUWxnUJLzLTU7Fo2cHGkNb3vAGwHe7l8KKYa73V39z/R0z+wdsWK75/Q/fIPu5/WPnO3N7sy+RdFhaWXKl4/vXYwgWEt9AUkPyM4zrZY4DmFIPl13egfGhp5+EDb2z86GjDq9u0v5WRlpv0wOy1pqePqUyxbI4BY1HKn2jECAegRjYQ4ywUBcSh8hOeIv3NMpaGpof2hwaj63LFSYPywMU38/shHIBHQj3zsTqhvNrz6qmTnw+WZ2cHvBIJiEbgaWLYKjqWD7JHANh1geJ6Ut9EVCl8+ekwDiUcusEFexLzH3xIeCf2jsbn7lrlzj1w9atum382ZPbPsOZazpummRZDsRMSGQWiUjkrdwMVpS4YFoBuu2dHe+0TfYPiby5cfX//w8ZhUXNScfjpXXFhY8L8FeXmn6zE1XZHRfx7A0MJEqU+WkI9uEhU5WkGhAR8/CHMgyn4oDCQKoGu2pfhSmw91h19qbQk9Nv+0S5vG4zw/bB/v1DxSVFCWfZXfJ5/jVcRyy1YltC5FgNeoIhn6gqMYDAZtTE4RiGkZBqKt3sdrYFsB7TslT0pvS1PvG80NfbcGM6S2k4EmVfPUajlrdsUTuQX5X0QbXXThw345qiESipiNVRgRWFYCLYrPoh8Mzazfs7/uonmLjtxita7uhcL0nKQ7U/1pp5m6UYj3FHrEUwS7TRo8PC4kbHQq5AiNUsVKAYPniOh7nCO5u76u88eRg8aTi6s/WqZBH3bvT9bfJwL6ZJ25DzjvmprfppUVZd/o8TLVfj9fwnIIQHMhNDwEPp8PVFUDUfaAIPkgMhIioCV8C1PlKArsYSV/j6lprzY0d367qurIONFvvPx07qmnlb+kePh5hm2RbIGiu/FFYxIfLZKxIhKYlYgkqqpa63bs2nfJmWdedcLwjo/21njjjXsKM9LT/7dq2rTTtGgoV1VHICXFD+AahDqIIj+o2EdMbYl+OX0c8aWLnU3827ANEEUP4W6zjKdneNh6p78/fGf3IW3PRC1+0OCnt7152uz5U1f7vMJMhnFLMDaRIAB4v1CxEtsxQeBQfRD75SbIfj+A6YBpIv2QmtPglQiSFxjG17rjvfo3RyLuHWeccd0xWZAc7fyN5ft/f+nnORVV5X9ISUtZwvEoV8tQg5644xnqpmvhKFlQewOphL5pGM62rVt3fGbZysuPyKRn584XM8qn5TyoCPwK27RTR+lpuNCiwjY0oOP9I4geiEViZEGNCy+f4iVsEp8/2LO3rvmV1q7ILWeffdm4OyuOZewS24z/CCQC+viP6XHdY03NU1klRXlfzUgPfMlx1SKOdUDyeABcHUzDIOVRpBUh+ApNTzyS/H6pFGkugiQDLwWaerr6fzlyUH3kSGRJN770hL9sZv7TaRn+c7AZjNQdgmpmbGAZzOZQSgsdtlgwbRY83iBour19y7ZdFy1fftlxkXedqEmr+dt9RdkFWdcW5Weucly9BMAQUICEcNNZC1xWjUvy4qKKI2OCtCeWKI1RsxKsoOBCzDAI5CrCc5669vaeR/s7oq8uWjG+FK+amoeyUlOlj5eXZX/VcbUqWeRTbNOkoEqGLv5IuySO6ubioEdiWw8AqoZOdF7iRIdob00HW1GS6vbsaf1Dz6HYMytX3nhEQWyi5udo97th3dNTZs2a+rwgCzORf2+7FgnoaNpCPMl1k8ydg0JKggf71pHO9o5XGjo7r16+/LLhwz3+66+vCVZVZX43KyuzWtUiJTxRfKQyz3QxSOeG9MvjVr94H2GVwNCRJojBXujs7T70l4PN7fesOOea5sM9h8T2J+4IJAL6iTs3R3xmW7euycpICVxTWJR9kesYJTF1hFqocgyhsiAa2eNBFKxLZCtHtZ1R91lTkbuKQT24t7934I6RcPTP5eVnHbbAx773XvhKRVXhD03byiIv/7jjG0sAQy4g0Ja4pKJdJvbZHbaxvqHtptmzL3jxiC/8BP3ia6/dm6KIzMdmVJVeHwgqFQzjZKixCHj8PBjWCAEwsoD1Uqqmhpk6Y1OzF8yqsD2Ci69RoRLsywZS0htaD3b8uaMp/IslnxgfymFt7WNpWVlpP0xP9y217eh07AGjWx+W/0nVgNR0UW0w3g5gEQTnAQ3R7SKCr2jQdxk8b0AKXvfQQGzXgYaOR4bDsOHMM2+YVCp4Y7md3t3ywvmzZ065x7CMEkESCRWTsNYcVEJEdTieeKTLogKG6YLkT+4+sKf+1qmzzn58LPv/121qa9cE09ICVxYWll0OLlc5MtQPkmwCsUiO0+QI1x9p8ERvwgZRQn90E9SYQbJ1RQx2trT0vNpU3/KjT3x6fO6bw72OxPYTNwKJgD5xY3tc91z71gvZKVmBGwoLsy80zHCR7JUBHBVsQyVUMcyokE6DKFyUKxVEGdSYBgIvQjSqg9eTZPOCsq2trffW/sGkN+fPn39YspC73v3TvBlzSv6oa9GieMGd8q8RXYu9YVJn5qgEKieCblgDwyPao7t3t9+1cuUl0eM6eBNwcETBh/qHS3ILs24uLS9YYRtqLtHTZ3TSU6cObahvTkVAiPsYUVWTwTJt4CUZQiMRwm0nDAUGsITb2dk18Hr9/p7VZ5zxtaMS4XnrrfuyCwuzb8vMTDrTtqOFthkDUcJiOs34UDBmFPCGAQI/qPhmmCzpG2Nm7gsGwVBVMq+inNbd1HBwTU9f9FddXYcaqqtXTzoU+4fdgOJg9QAAIABJREFUBmhfmp2mrp5SXvAVVVfTRVkitqW4NkObFqxEGZpOqmECJ1J/Am9S4+6t2y+Yubj6sKRfX3/9seDU8oKL8gsLvhoaDs+wLR6Cfh9Y9gAwLM4HT2hzCH0ltsNk4Yx4GQMUjx9sC7nw3o7Wpp7Xmvb1rj5j1eT1Dviwefko/z4R0E/i2d+6/s/5uUVpX09OUj6veJh8BMnhi1oQXQJqwuzPRAtIXiBgOUnygo1+z7wMDCtALKyqnmDWzrbmllsMx9hwOJn69o2/yymtzF8jSsxp/9RVoS850oeN/yNKXaCtpiAqRk/P8Kv76g9etXLl1X0n67S8+uqD6ZXTsm/Oykw5i2HNMp5nOBcXWiiBSvAFtFyKPXTCE7YdIg4iSB6CJDcN6u5mYuaueEG32IPDw+rrgz3h+2bMu7T+cKltaKyy+91fTs0rybvZ5xM+pqojBdgK8MgoXRsGDy74bJtY2tIWAO2f4wIEU0E0W0HfcrQRjWkamIYbCSZnN7Yd7HmptbP3oaVLr5t0FMSx3ntY/p4+JfOZ1PSksw1D5zBD1y1UzKMBHYGBuCTCygbr8jiPDit43968YcfnlxyGZSmyWPJzgv+TnpV+maHbswXWwwk8ttFMsJwQAINrJZ4sAEf1DnBFiD11vJcisSgu0NvaWvvWtjb0/PSMs646aTAMY52rj8p2iYB+ks80AuUqpxR/KylJvoRhtGxBsAF4F4YHuiApNY0kz6ZpAc+JhL6GuWEoFCHBAl8QumGbwZScxkOHBu7r6Oh5fs6c88fU90O98/LiotWFxVlfdV0riaCe4z0+8jcpCVLva9LPj2kAINY2t3T/z8yZF55UffR/v8VQXS7JL5xTUl5wqSRws1jWSWZ5E1zQAFCMBBAhHe+h26h7LoOBrVKH6qFjBkayYl0Dl+HB4/V3s6y4v72lY81QSF87a9bYxEpQwrSoKOWczPSUagf0CgacDNQwIJQ61wTFqxDpWkLFisv1IriKCMTE3xwWlpZ5EWwdQPEmt48M6Ts7O4Z/0d0f2fyJY0yxO9aPcu3GNQVVM6e+wLD2fELZ43F+0DIXAzqq4VlEQc9QkaOPbSzfQGtT55O7G5pXj5WeuWnT07n5hd7r83IKV+larExXgQ8kZ0J0eABEnqU4DNISwQoKMifQ9Q8ZBkhbQ618C/vnfa2tXb/Zv7/33lWrrh43qdljPd6J4334CCQC+oeP0aTf4q231qRXlObcmZwkf4pl1VwHVOBlEdTIYByBzMbLdTzRfMe3AWYVmDnzggThcAQCSbntw8MjL/X2dn2vomJs/t073/39oukzyn9nO0aRg7ZvuGc2bkxim6RCIHs85G/LcUGWfO279zbdPmvW5w+7vzjZJgkd8tLTO/ML8vO/4VX4sz1erkyQLGBJCV4HxkVONw8Ch3QjC3gRWyOIgVAIqBEDOuE48xJoyGWXeY0X5B4tGtvb1Tt8X1ub9vZ/QsEjil1RjI9lZ6d+U+C4CpZji7D36yCQi6fZN5rKaGqUZJoECBcHv2FfH2sE5Gd8e3DYU2dVDrz1be0Df+7oCD29fPnVLZNtPo7kfPfv+uu5U6eX/0KPhvPQChjHA9H9iHbH+UP8AYd8cHSawwjLyN07dtZ9Ye4p1evHcrydbz+TkT8t4+7kZGm5phn5uCYWeB9YOooPuUQbnsjoEv4/D1y8HWMgjRDbN2iK4zLd/QOhtXt277rxZMQwjGUcP0rbJAL6R2S2t6x/pjg7L/OmnNzgqqg6mONVMIewgUHxCWrtCLpug2PjiwIdwBDYRLMO7M0xrITe6Q29vYO3Dgy0vVhV9eHKXhs3PlMwZ1b5i6LIzENNd9T1xuAt4mJCjxBlMQL6InruKDTDH+rqHvrj5i37b6iuvkH9KEzNunX3Z6al+M5OTQt8OSXVM10UXR8GdEQM4vhzjACi4AEbhb0canBDEed0rlyU7UTRfMYCyyU6+cO2w7T39oZvbWsbeePf5VRrax/zJCV5l2Xn+O4QZaZMj5lBVPEjKHVi74rZOB4XKwEAhqmBgvLBhI5mgqgghQ4gEokS3AUny71DQ9Ht/b2RX3Z1hd76qAQNdDdbOD/5R/k5WZe5YKchk4O0Ikj5iXjEkvHEwI7cfMd0QdXdHe9uq/vcsk9e9qH+7jhPBQX5X08Keq7QtUg5siLEuBY+1tFwgWAaSB3kwKP4gRU4CIfDgAp9WDVBEJzXl9R76NDg63X7W29bseLyBJr9I/BCSQT0j8Akj17i+rW/Ki6amvW9gsLcs21tKNsGLJdiJm4Sf3K/P0g2RQ1ubJGicQq+oqh0qQCq6oDXn7l5aGjoWzt3Dm9Zvnz5P/kyHzCOqHE+9ZSiJ31e7gItFmEQYS9IEri2CZqF1DkJDFSWGf24nB6JWhvf2VL/2XPOueaoJGgn07RuWnOvoqVxlaUl2bdnZiWdKklssqpGQEFje1YGdSQELCuShZahWyBKFFGOWZlhoouXAC4gt90EhicUJT0aM/eEhvTH2ur7/jJKbXv77Ucy0pKVM9Nz/NckBz2zY+qQhL1dks2hFRcx+aRBnSGrOAdESQJNVUlLJhxDF7VkCEUi4FECWN1pDkf0jdu27fvp4GBB42TS3z/a+2PDhueSq6YW/jbgV5a7YEuII6BtCQJxJy0LUunAxRZiHzQz2t019OeGPc3Xr7jga//VMwHBdmVFoRW5BSn36po6DSWSedYlmT/dLyoPYc+cB44LEnlXtG7F44keBdRoDGQ52N/S1r22oaH11pUrv3zUevFHO16J7x+bEUgE9GMzzifMUTZseLKkMC/zrrRU/8cUr5gxPDIASclpcfc1FwwNfb0p/xkDvWlgAEFhEB4clwNTZw1fMHV7e3vndZs3d26vrq6Ou778/5eIgKu6XS98vWJq/i3gWmmYWag6qtI5IHkRdBUBnqGlY0GWCJpbEAM7N27atWrZsiMT3ThhBvoITmTt2p8Xl5dn31VclHN6JDyY4wt4Yaj/ECSnpKG6GNEQQJAcSQKJMhsttWImjf1adPVyWerFDsDalmm3dfceer1uX90josja5WWlV+fmpq8wzGiByLsSBh4Uh6EZH/0QlTosqhMuswu6ZVKjD1IdQMS9C6YF4PGnN7Ye7PhDffvQYyuXXXtSccvHMnXY2z711DmvGrHIzPjIUYGg9wM6Sr86BCyI+g6yHOjfvXv/9/e3iE/+t2cGWzGnLfQtyinIeMCxYhWxWMRLxHuIBrtBXPpIhcYVgGe9oGlYaveA7POBFgkBh3gGmxkYGoqur6s/cPOKFV9JmK2MZUJPkm0SAf0kmcjDuYzN658rzytIuz23IHOppoVykDaFwQAzNZSrxBc4Aq+wP8cJCli6CQwjkUydFz1gGY7GS/Kmgwdbbi4u3lDLMKtplPmAT93OFxZNqyx83jGMPBJAiKypCSDo5MWkKMmgR2OYFxLKnCD4unfuaDh79oIv7DicazpZtn3jjUdyiwuzv1NcWnymoQ4WiIpHVkODJAtHcRAEMAq8RPAN+MHF16hzGwZ4Kw4+xPnD8RYEYTAcHm7TdcNKz8wo0qLDaYLAEJqZQLJ5yivH8j0J6HGFsVHLV5wXxFVomkXohSx4IrIvqbOtpeOpjq7hp0477eRlJPy3e2pX7ZoZM+ZN+aseC+XTBdaoTS4ddyy1owEKecG6LHCKr/X1tW9e9Mmzvvn2f9ovAkmnlmYtKCkvuAUYWGhEI0HMzkUJ94LObShag31zrKLgws0PwPiIrC6W2wPBZGAYoTsU0rbsrmv53rJln993sjwXiesY2wgkAvrYxumk22rz5hfyUgPK10rLsy6KaUN5Xp8PXFcHyxjVkKHCJjxHPZUtmyXZIIJ/4lmIyfNibX/XwP82dfSsXbz4g7Wga/72SNGpp854keNgDgHB+bwk0whH+0nv3NKQ1sMDUn5iagw8vtTQgX3NN0+ZduEjh0vBOlkm6dVXHwzk5GSempnmu1ZRmFmBoLeAVEtMExRRAcuy6cLKwowNWxbE2/5933Xi+BUHIGIGjlKgqNmPmTf2djU97tVOtL+RLofKfTSgY/AZDeYkS0drPBfxFoLr2nyDYwvvtbX3/3yo7dCuRWddFzpZxvxwr2P39meumD6j7A7T0LIJnQ/QJpZqCKBwEkGex2VycUGsxqy9O2r3nb9s1fUf2D/fu+nxFE+m8rmigrxLwXVLLctJxcqJaUWBFyhiHvfJc3K8GoMGMCJYtgKC4CXoREOHrp7OwedbmnseXHFOomd+uHN6MmyfCOgnwywe4TVseOW55ILKlB8mpUifDQQ9WYYRJQEde7RY0kVuq6G7IIk+YAUFiASo44BuqODzyaCrBsje4L6RvpGfdx5qf+KDgHK1rz8WLKwoeC41KXg2I/LEuMPhTHBGJU9dD0kwCa+ZRCFJCw8Zf9ry3p6vnvURDhg4FDU1j6Xl56ZelZuT+jlZEcp1PSozcfoYsNiqQEQ1dc5CiuGoVOy/2uViNkckSC2DLAC8XoWgry2dasljzx0R0yjhSshW8V4wZuyIZkdUvWE4Qywr7e3sGny8s3ng9SWf/HrXEd5yJ8XX9q5ZIwYXeh7LLcg431IjQWoT+8/xIxk73s8IVDR0kBQvtDa2b9xad+Dc6urV/59aXk3NQ77KKZk3ZORkXe4Y0VzTNHnHwhYHLqQoon2UOohqgXg89FrHvr0ooWwygCwGB9va+17evPXATV/84jcmtYPdSXGTHKeLSAT04zTwJ8pha157qGz+4hn3OI52mscjpbFEdQpA10yQJTQSEcFEYybgSW8Wg4eBKmIyT4BURtQAKZBxoLXp4FeLys6s+aDr6m56+afBgPcqJSUpCIYBYW0YeNmkKHedB57hgI+D8xjMQGzprXe27fnc8uUJ0whUCBNZZ97M2cV3JCUrM4aH+/xJyUEYHh4An88Tl2FFudW43/goMAvbrC71VcfyvNfjBdcywLV1MEwVZJknCzNkORDKEwZ0lyFIegzqKPiDlRjXYbpEb3B34+4DqzsGY3uWL782cqLcu8frPFBHYOG8GX/gWO0MAbngDPUPJEA1wuXDNgX+iwuuYyP+wGlv73tha139xf+umIc4k9aGX59fWFZ+hx4JVSJ90J+aApY2TOVbHSoFTBdbtIpCMS4umMiEQPCqnDTY1x/buHdH000rV339pNZwOF5zPlmOmwjok2WmJvA831r3aGVZRfHd6en+xaYdSSKlcEMnQjMC5yPlPPROpiIVLJEq5UUAC2lMghfMmGUJUuCtxsaub5dXnrH930+1YfcfLy6bXnGvPjKYLvm94Lox0Mxh6gblohIZpWMhul7gFQBG2rlp297PLlv24fSeCRyWE2bXmBGG8oemV5Tn3Z2U6pmmqkPZmJ1LAksc0IjUJztqykEBcwwGAvQfx94uyb6phhj2zDG7Y1z8Hg/YiieiJC7S4hDjgNKhPOG3c6zSYjn89ne3vvdD1e6rOxrv7hNmMMfhRN5447HSxQvKfysK9inI2CBCO0SHH4MuPQCi0knm7mBQ50d27qpfPWfJVff/++EP7H1qdvm03EdjI+p8jhM4QWQhGh0Bf0Am9DPXRqMXOie44LJsBEcingIXZDZYDjsYjVqbmxt6frB42ZUfSdzJOEzpSbOLREA/aaby6C5k/frfzJgxveRuj2KfIoqQbJoqiJxIgrnrCAT0g/QbB2wSRBxA0QyW8KSxf8g4TCiqmpva2nu/XTnrnD3/ejbb1j89Z/6pC16yzXC+YUZBCaJu/CEqWGIj0ApL+w7hO1umBhwvN9fXNV8+be4XxyTAcXRXPjm+jZncu+/8empWbvD7ufnpp5tauBCNbmwrFrc0jQdthiPcfmCF98vwLI9ZOM3wzPdd0xgQWAEsHX2zOTBtnfqc8wzENEvzejNbhgZCrze39D4wf/6x8V+fHDMBsGn9A4tPXTrvqchAxxRCLcRPnP5HV060fYRtEI5XwLXl7q2bdn9p0cqvvv6v17h9wxOzps/Ou5vnrHk2uCnYHsFkHBfNJANH/INJ/dSJJgErkPK9Go6CoqD0qxgJjcCG/Qc6bj5lyed2fVQxJ5PlvjkW55kI6MdilCfJMbZu/G3VzDllP2MYbT7Hu6kcarzHNOAFhfQIDZvaoAoi0bak9BkUn0GtS5JlK0PACZvf3bTlpvnLLnvffAJR9XPnTPub7Wil+P6znRgYjkqyDNaOO4w5AskQJY+A7l29Xd2D/9u2ue7h5ZetRk3YxCc+AlvR3jQv/dLUJM95wRR/OZjhFGQNGDrKi2JmjXrvBlH4Q49yXsRFGVZsacC3ifMd7bezWFa3WKINAKwD0fAIrt+6vb7k1paWvl+2t4dfWbr08pNWi/1IbiqklVWVDV4zpSz7u7zM5NgavT2R1kk/GMypeQ4+Mxbe347v4KaN7636+Kdv2Dt6zB1vPzW7bGrWzxQPM8t2tFT8d+J6yABZkCGvnMwnyreaNrAuS4K6xHuBYyUERo7Yprh9z/7ebzW32zv/GxXuSK4z8Z3JOQKJgD45523CznrjxiemFuZl3pKaEjhLlPhkxmGARdtM5KDbFgnoROCCBHSTmIhgYCfZHqFS8SHbdGpb2zrv6Hlv72YMyH9d879ZC09b8LIkcfMVDwJ9DHBYg6C2WZsjSHpB9kN0ZAQkWQBelo2BnsGXG/d3Xjveft8TNnDHcMdIb8pMUaampyVdnZmlfJoXnBxWlMCOReKcfhliqBrmC4BpoQg8ceqg4Li44csoiA6rMERT37J00Rs42N3Z+6f2zt5fDwxorWeddd1h2+Yew2E4Lod669UH03NLAr/Mz0k+D0ADDlkGiGon7Y04yJ2hdXdSuWIV6O0O7diwoXZV9Zfu6/zNb24LnFJVdnpqZvC7KWm+OZYV8VqoDOjypJSODxYGdOyfowwvcUQkizIGdM0Frz8VQgOxQwP9oX+0t/T+pGbr4M7Vq/8zbfS4DFLioMdtBBIB/bgN/Yl74JqaX+UV5mbfV5Cf/UmO5wOOqRPEMwXFoZkLGonYwPNo90ltP3VVJSVGVDTjWF51HbbuYFPrLw/sbXresEJsVl7Bo3PmzbhwFJVtOhqRqXQMG0wDFbW8wHAcxKLDpMQoSv7tb765/aLlK69KgHz+w63yyisPJ5cVyv8zdVrBdUODg8XJSQEWkey2qYPk9RKhEVZAfjQHDPbFUebXBjCwtOvQAC/JIs5BmGWk5vr6lh+390b+frKbqhzNk7fxH/dPXXzarN+FR7rneH2IT0CHPNRtRxmZeN88zuUHRgDbYmH3zoYXNtTuvDYzM5+bN33mNaUleecxnFWiW2GF4FF4XBajpC/S3xAgGpfytTVgWZcumAUJOCEAsagTGhpU1+3Z0XjTmefe0Hg015L47sk3AomAfvLN6bhc0daNf6yaMrXwF16PuMB2DC+x9MSeN75gUBoUpSix0m6rpGRrayoJHIaBymJeiIViuuLxtWzb+u6TtVu3/T0tM/2z55736W85rinyAoDpUIAd+qJjb1BFChxqXjsWGIYBSlJmT9O+9qtLp53zUqI3+J+ndMMrDyfLafDZadMqrvB6xJmx2LCM9imIYtf0CLXuZKmGAC64sL1uO6g8JpLAwctCeHggvKX/kPpAZ0/fmwkU+39/fHZs+9VZlVV5T4gCZKnRAZBERLjjAgkzdJqlQ9wpj1qa8vCH5//y6MiI/uTc2fMuXjB/7qctRyu03BgjSri4wlaJSMvzJgscIkqwFYVe5o4OaHmMVTHDsNFLQeP5lG1b3973taUrvrxrXB70xE5OqhFIBPSTajrH72KwV1iczy0qLsq7x++TZgsiI5smcl8tQE12VLi0LKSeWaBpMWKHKkke0stFhTklkALhQ4dcgZcO/uWlV/5YV7+v4Morr/x8XkEeGBoqw2FJkQXHNEAWFYIORhcxSRKBE0TMbGKtB3sfaNvbdefy6gRV6r/N7Jo19yoZKf75U6fk3+7xcVWB5EB6eKgT/AGcjxg1XkEhUiIuh8FCADKBLtOlW+b2vftbfhCL9exNoNj/+/NTW/uYkOTz3FJcnHGdbcSCiF2gkqzI9ePjfXP6SqXiSyz09A7BE48/9XZV1dxt5517QXVMDeXgvDC8CRE1BKLC01aVLQCHSnwuKjTaZL+jjAT0W7Bs3tENZnPdrs7bhsLahkQ7ZPzedSfTnhIB/WSazXG+lldffVXKzWKW5Oem3JGc6p/uOLrfMnVi24glXBN5zCwGZuzw0b6hFosRUxf8WxQw43aho6Ozf+u27eysWbNS8/JySAYiKiKYaNeJLuCaBl5vABwL9chtolfO8R5wHem1HVsbLl204osJoYwPmVtEwb/22iNT8rMzvptfkLIEGK2MZ9HnHtvnWBKmHHOBl0mwiYTV+sHhyKuNrV2PrlhxY0LvewzPzqZNj6dMLct8xu9nzhYwyOpxiAFiFMiHCOcSnAJR7gMOGhsPQu227fYpC08dKSkpTUGXPMy8bUcDxSeD7VoEm4I0Q54lbBHCIiEubTwHuoXbgqOb7PaWtp4fhkJmoooyhrn6qG6SCOgTPPObNq1RWFYsNs1o9+mnXzTpHMQQgFVSWHZacVH+XaKHKwFLSyPodpKFoIKVTQIG9m1R7Y2oWyE9yjAIyIdlkF9uQE9fL6SkpIDPG4jT3qiGuMBiSRgVSe33rVTRUQzpPhzn2b1164ELF57++UTAGeN9+uKLd2fkZqRdsGDhjOsY3i6xtBEJgwOhRLkMCLzHME27saOj8+7G9va1Z575/e4x7vojv1nt278unbe4/AU10juLY3gQeQlsc9RhjcjJxNn+KAGL/4+YEA0ikRgkp6YQxDoqv3GcS0xWLDTUQatagQUmnplzDkW747IAUe08z8dYObBv17Y9P+w8FF4/GdUT1659McPjMbK7OfZA9X+QiP7I31zjNACJgD5OA/lBu8Gy9bRpgTOnTy//blNTw77m5s7Vn/zkFZNONnP16tXsWSuKppVXlt/pVaQlPM+muHG9cOIBjYYgDhpGUDcoYhjiUjAPUdHC7DAOGEKKG+ptIMgOaWo8w5K+OdHCorVhsj0wIrCM1NHc1Hnjcy/s/GMCyTv2G7WmZjUvsvkfLy3NuSkjI7mUAScVeBFJ6IeGh8KN9fub7lJd8Z3lyy9LUALHPqxQV/fsedOmFd8XGeku8nlQRRFBhqMKcaOAOGRxIC1QIEE9/phQOhuDAFJU8sFtbcDbXLds6meP2u8MEEwJtrAETsQS/ODgYOTtjq7BH/Xu69q78pJvRw/jdE+ITf/2t6eKppQU31FYUliy47337j140PxzgmI3cVOTCOgTN7awcePvcmZNn/IsJ7oLFMUXbe9s/Xtfz8gt8+dXt03gYSds17UbnykomVL6S0nmT5UEPsCJIpiaQTXEXRMcdFEDpPFgDzAumYWvMgf563HuMzF3oTrhuBhAyVHq72zGAzpLArqLlB/gR4ZD6svv7W38WgJ5ffjTWlPzYF52Wt6Xpk6f9Ulbjdj79zW80N/X/9f1W3rbEgukwxvPmpo1vhmVvsc4IbqKZx2/T0kB00CWh0xkX/GOJYtWkqVjgEZ2wahcKz4LVNudOLGRdSvK9XLgEJtiHTweBWKxEcC1sCTLAA4X6e8Z2rDvvfrr/5Ohy+FdwbHf+u9/f668tCD3F+nZKfNkkXcjMb1+566GS5cvr06g8ydoOhIBfYIGFrPaz35m3tcqKvJuimmhHOyoSbLS0dUz8FLLwf4fL136P5Oy1Llj65rZZeWlD/n8ynwtFhPR8hQzDhaQO0uDOuq9ExMR1BPFjBvFTOIBHYM5MZd4P6Cj/jVKnVATCmIOQvSrWUDaDyfK77y5YdvFK1Zc0zxBU3VS7xYBc+k+fyqAAi295qHLLktk5Ucy4TU1jxSdsqBsje2MLPApHnBMERgQiccB3r2Yl6NoD3Wqo1n7+6h3EswNIjhDVeTi7ngIUOQ9ZMFrGjGCRSHZusNYhu7u3rp155dP//iX3z2S8z3e36mpWVOWnZ58T0lxzieiWsjj9/ogEtH7u7r6Hu0d2Hp7AoA5MTOUCOgTM65QU/N4WeWU4sckBZYFk/0c1t5Q8cm0maaBochvW5o7fj4ZVbiwjTC1kF+WmZt6V8DnXSDLMkNK6y5m5rTkTty/RvvscY3xfw3oJD9hHBK8WeJShVAi1MT+vwEdlwmSL9C0f8/+K6bNTMjATtCtmtjtGEZg7941p0yZkvqsZUWmYJvIiAkgSUFSNqc3MGIURi1oMWOnIjHk3xiLiCnRQD4azPH3HDgu5Z1j2wk7TpEIet8IO7o6+u8dOWC+sLj6g22Jx3DKx22T9za9nCv7+buys9PPUzy8X9Wi4PN4geVE6Oo8tKmjtefihcuqDx63EzyJD5wI6BMwuUhvSQ3mXpuZGfyWKDG52BMT8aFF6hAqQolK/eBA+A91+7t+vnz5Fw9NwClM6C7RLISr8n68MD//dlniFqBhhGNpJENnOVSSI04fhOJGwUGkwBjPXqjONQZ0ggS20WMdS5VYrqf/Rl2rMOdB1SxjoHcgdH9re+ieRM93Qqc1sfP/MgL1db+9csq07FtjscF8rCB5xUwwdIbYz9JyOgZ0Chal2Tlm6aO89HhAx/45+T0GfFR/Y0FUfKDForT9xAkopr+rbk/T/cPtIy8tP/+y4ck2KbW1L6cFFeG7JaV5l9i2no6LdF7iITYSAdkTAE13ug42t6+ePmfVrybbtU2G800E9AmYJUTDZuUm/zo7J+00y9AYUULhCGpJyose0nPjBaW1s63vgZbO8ONLlpwbnoDTmNBd1jz1lJw+N/kTU8uK7mA5ZxY4FpgWYqws4AVUvEKULoLdEATHUI7u+x/n/czmgwI6zW5obx1pPaGQ/nLtzqYrzjrruoSu+ITOamLnHzQCNTVPydMq0h6WFKNa4F0vy8gAhh8UTyphbGD7iXi8AAAgAElEQVRFChjzAwM6KcEz+HuDtKZoQEfAHGJEOIipEUB3Q54TncHh6M72jr6fdffGXj7rrItDk202Nm58yZ+f6f9aQVHmtZo2kkuEo9BwzqaVN1zo8JLH6Osb3LinvumSM874Uudku8YT/XwTAX2cZ4j4Gze/8oW8/NR7XUvP5BhU57LAIchtDjhBJhzuaFSHQHJWQ1NTy03Dw7G18+evQtusSfVBSl5WunJ2aqr3uwGvd65t64xl69SvGY1AiEAGNa1wSW9xFCg3GtBpho6lRoZBu1YEDVHhE+RKk96irYOkBHa8s3HHF5Z8/Jr6STVAiZM9KUagtva3acVFSX/w+JyPo3a7obMgQjpwjI9UmhwSrP8loGOp3YlL7mIQZ3Bhi0EdTerj5XhXoVgSK4SSxw7DiHUNB9ofHmiP/f70cyYfvbWmpkYuzGNWFZdm36nHBsskNHDiXDCjGpGtjUZj4E3NwtIchAaHu/oGBq8przj7pZPiBjmBLiIR0Md5MjZtWpM7vTL7cVlyT3dtw4tcbNQ+FyUvGIgI50Tic8xzIiqq2YLk3dJ6sOPOoZBZMxmDOoKuZlbmLiooyPuJIMIpWHpnWUT/xt3YSH+cukiRwI4Aubi9JAZtlMzEniT2GF0S0FmyCECEMPHnti0wTKexqzf8vYqqzz4/ztOV2F1iBD50BHZuWzO1clbWGmC1mY6tg2MJIDJp4LgSbSaxWG5HMCjev4Sx+T4oDkvOBNmOWTr5mxodMYDfZYHlLKzcbWs80Prjpo7u9eef/83JWGb3JHu8H8vMCd7uUfjp4KoSUliRikcMgRx0XpYgGo4Bx0kge3yqYVpv7dzbeOkpp1T3fOgEJDYY8wgkAvqYh2psGzbWvfL50im5d2racDGuyDGgv19ywp5x3Jca+8u25YIkeHVeVBo62ntWD9Z3vzZr5SWTjmuKI7Nn5x9XVVZOuUONDc2SRBccVLtisC9IJTBR/51w1lkGGI6ChWgGT7NxxL0jKN616XYcitYgX50IoggDg0Pan/fUD1y/cpKOz9junsRWJ+IINDW8cnlJWdYtmjZUJAki4Z4bMYb0hAklE1CDAVkecZe197Xc6f1LKlbsqHMaWp9axO/A0FG/Qdx+oLHtthf+vO3VyUglRDpfeUn6ZzLTU25gGKvSMjSeY11AvwbiqYxmTroKnCABw2Jy44Lo9YFpWK2tLX3XJ7L08b3jEwF9HMdz584XMzKSg4+nZ/lXsowlGqaKzmM0KyVFaCwtIx8bf3YIlkbksfQmmLbD7+hs7b97uLnrb5MxqG986Ql/sDD5otKy7K9aZniWJACIAkc90wmpJ55xY9md0Nlw2Y6leZG0FpHWh6PCYr8Ndd7jIDrTQTMY5Ll7/l6zafvFiT76ON6wiV196AisXfuMd/Gi0idEyf4kx0FyNKyConhB4Hxg6RZZoCLg818/NCun1ShKY8OPQxb3WK1D8yH8k5yUub++rutXuw8cfKK6+qqRDz2ZE2yD2tqXPSlB5oLkJN+3AwFfpevavGtb9GlHPCCCBBlk9ljk2vEdYGASIyNVj4n19Ybe2N/Qe/lkBAafYFPx/ukkAvo4zsy+XS+fWlqe+4ztxMoEEYEgNGiTzDQuMkF52NhTdoDFHpqBmSqDWShKnW7t7hl4qKGp+4XJmInWvr4mmFYkXpRfkPZl21Jno2+6beJSBoFx2CjniNwllibJSw8pbQ5m6LTnjuPEOqiYRaU6yMuQF8CyXHAsefPWnfsuOv30yxN89HG8ZxO7+u8jUFf7QnZBRfbvFRmWYhUpGtFAkhQAi8oao57CaMAeXbAj1xwd0kYzdqxSoWERLm7xu0Talef31O2o/3X3oPqbFZPQqwB75jmZ2qdycpJ+IIjuTIHjebKAQU0JfMdhykKqFtReGVUgceFjOQx1l2N4iKlOc1Nz1xdmzz5/a+I+HJ8RSAT08RlHQIRnQY73tvzCjCsNIxQ0LRW8Xg+YOvbOMElF1HactoLgGBbXqww4FkPKzpaNUZ4DllO29HaP3Nk3uP9v8+dfFf/yOJ3kMdhNTc19Sfm5udUF+RnXs2BX0kvG4ExtPPG6LZS5dE3iuIaIdtJfd1xg8E+cq4tgQnwRqLoJHl8yWDp3YN+B9ktnzq1+5xhcRuIQiREgI7Bt47NT559a+UfH1qarWgQkUQael0ENGyBLPrBw0U4Wo5iN0v/HVTwGLwxwiscDhmYSL3pEepsG4kLcur6e/t80tHY+duaZVw5OtqFGWm4gULoyJUn+fjBJnO06tkyeX4YBfG7pEOBSh7YiWJ7S93CsiAQPg28+ARhWUkPD1q/q6htWT0afixNx3hIBfZxmZcfWFxZMm17yK9eNzeJ5hhiWxGJREHkxXmbHXjJ90AnalQQuAMfC8hQPumET45JozNQFwbulrb3vO+Xl72xjmNWjb4lxOtOJ381rr92bMruq/H8yszIucy1jhuvaLKGtEFAQUtgwM7fAckxg0SMSQ348o6HVSmpzgR/svUVjBniUlP6de5pWd/cdeiJhHTnxc5g4Ah2BlsbXlheWZjxpqCNFKJrEAE885XlOouIxCFyPAz0xgNFy+z+zc9O2QZG9oGkWiIICguxv7Ghtf2L3vqYnzjrr8klHw6ypqeGzM9SluXlpt8sKO88FQ7Ztk6DXcdFCWmeIJUB/BnzOERuD2bmDy3eXtCBtxMpgpi54wDbFPbvrmq5YsCCRpY/HM5cI6OMwim+9tSa9qjL3kaQk7xks6yRFo0PkZvZ4MEPHG/ufw4yldiw5j2brLHLSeRFUTSeBHfN2RQnGAJRN+/bV31RZuWr7OJziMd9FTc1DvuSA/7SpZYWrRYGZzzAuj4j10QccT4iA4niq647ZOQ3s9D/4MynhEW9WARxX0bu7hp9taOn4VkLX/ZhP50fygKiKuHCe/wc5ecGvOI6WIwgMaY9pqgleTxAQHoJ2p1QvIU5Pe185DnttWGZGqIgItsU4hu6+29XZ/7Pmjpa/n3PONZPOeRFvgl3bXzy1cnrpz1jOmqEbMR8mLggMxPcYYacQQxqHSj+T9iKVgLYQFIsLdQ5V8ai3A8tIAK4cNgzmH/vq67+aQLwf/WOWCOhHP4bQ0bruwtS0pJ/yApRoagQkScAKOw1IqHg2mn2SwI4SqdShDP+Q8l1MA9mjkDNRVR0YVgRF9o0wnLR19676G2bNumDPOJzmMd8FluaCYvL81AzPfUlJnoVI7bENumJH+gqW42w23mcbzchJN52+JPCPqHgIKE7VMGdX/rFrS+MXTlt5Sd8xv5jEAT9yI1BT81TSwjnTnlKC7JlqdEg2DA18vgDJ0m2L+g3wDAW90s8/n23iVYBZK4+odszo5S3vvrv3+vZublf1JJRzxatra3pzQXKacq/Xy81xQfNifxwpuPhhgSdYGczUidcSCei4OB+Vu423JlCOIy40hYp7IueDcFhv16LW9zLyFj/HjCIKP3J32/hccCKgH+U47q79U2lOccpjPq+yxLZNiedYECQFtFiEaDRzcYEUDE5YisMVLS1F0YCFPGxEgBqWCZKEQc4BC4FkHA+CoAwburPuvZ0Hv79w4QWT0hO8pma1nJ8+5XP5RRnf5liryjIMspLnWdo7t0AnAEGCkcNAHy/ZEVofeVGyYNkseLypYFrCnh07D1ywaNFFDUc5bYmvJ0bgQ0dg+9vPFc5eUP573QgvYjkbbMcEjkU+Fg+mAbjoBpbIFMdZG6ShRp9rLLU7DtK3FPSgb9i7p+HO/U3mb6urq1HUfdJ96naunZ6e4b8/LcM3zzBCSSyLnHuLsHcIGgg9GVDq1kE3xTiglVThcJHjENQ7JjDE/x1BgRwLjskAz8oArmiZJrOxrbn14qmzVyXU447i7kgE9KMYvL1714gpSWnfSE31XM1xXJFh6CAItGeOXFMMULhKJwFbp0poss8LtqHS7NR2aS8urqJGXgwIlotz1S3EzrHygKo56zoaO35QNe/cSWk7uOGVh5OLpmV8PTMruVoQmCrbMkimzgssOKiB/X5Ap+U4yj3/pygFL8hgmCiXG2yr29v6ldnzLlx7FNOW+GpiBMY0ArvefW7ejJnlv7PMUDmqvZmmAYLkIVxqfG4xw0RzIWyrsTwDkscDtm2AqqoEzY4Lc17wNHR197/cVt/2k6WTsGeOA/X2238qrawofSDg45dYVigooJK1rYHpoIqjB8KhKOHV42IHGSmYqQs8qmFGSbWSIN15+lxj9Y2KzVDfBpHzgGViFZNrGxgK35qdt+TpMU1OYqMPHIFEQD+KG2P/zr9NzS1M+rXiYRfhbkgviaDZUViFZpwIBsN/5zkGdD0ui4poUI4FDl8OqkrlUYn7GAY32nei+0NwPNo0SocMHdY1NHesnjXrU5NS/nTdul+kVpXkX5OVn3YxgDEFxSZI6wGdqBAhjFxzsrKPa7+7mOGgV4VAqhi2KwDP+oZaW/sf2d/Y/eNVq66adFK5R3GrJb56jEcA7Y+/+Nmqa8vKMm80rUghAuIwIPGiAqaB4C40V+GBdWiZmZclUKNR6lHgsuD1+gEE78Hm+qY1DS0HHzjzzKsmpV3ypk0vlS2YXfWzWCy0RPFwKRxnAiu4YGlh4EQOdM0CQZLJOwzbhYSxYzngCwRBi0TIot1FqirBDtF2G9HhIAVLFjgcP+DBZQSHY8WN772775K5p32m9RhP90lzuERAP8KpRMDMKXNTv5mfH7wOGDMfQR70Q0EymJkjyA0/+DPe9K5JLUL/H3vfAWZXVe2/Ti+3Te+T6ZNMJp1AQiBABI0GkD8oUQRBVEQfgl3fA9Q88NkFlIcCUiSiYFCKYCQiREgICRnSJ3V67zO3nXv6+X9r73sT8IkpZJJM5l6/fDHDnVP22Wevvdb6FRebagBg2BaRgEWBFfZgXz3Va6L2opKswPBwGLIy8weHhuP/6GkbuH3OgosnaPn9gZyqsvyvlFaUfiQ20jEVTVwws0nZphIpzCT/nFYwMFPHkh4HohwE2+QgGnX+undby3UTNds5xumW/rUTPAINLz0QKqop/FVOtnqZCwmV4aiCIcNJgFVkxIAgzRSFoVDSGeepKKKsM93Ei75gS9v+1ud6u0Z/tujC5ROyjPzGG8+Uz66v/znPOgtZ1svDtoNuREAQWLCMOHFRQwyQYdrAeHQzjkFaFGWIRqOgKBIJ4jSAU1oftiFxA287lOYmSn4AC8WjAEzT6UkkvJ/u2BO7d8mSJXSRTH+OagTSAf2ohuvQl7dv/3PF1OrSlRyrL/TA4lE0JWUogkE9ZUpC4CKSBOGhYQhlZoKpaWRhwPKcZyN1C9Nwj4jMUKAc3cmmYDa4683IygczYaLV4kA0qr3W0tJz25w5EzOob3jxoayC6oyPFOWHPi9KMM+0qNItbn5I68HFlz+5eKL1Ii+CaaK5DQ+8GAA9Do0trb3XzD1r+bZjfHTpX0uPwGFHYNOrv66YM6/2d54XPxuNV1IB3WOwhIx+AzLhVIPDktaZwMuEYjk6GgVVCTUODY09ta+17X8vuui64cOe7BT8wtY3nimfs/CsX9iJ2ELL0nMVVSRUU9PUQFKRrofuilhdw4QFvRsEkn2zSDONYNAXku+xA6KENsgWQbvjz1HyOqWip2kG+BU/ir2Dpumuogbe6GztuKai7kNtp+CwnPKXlA7ox/iI9u58+papMyq/oUVHS9AmkO48GbLz5DganDDDxI0pTmLsG40MjrSMjAxvLS4oqVdUtQIYV7I9k5bZCV0ryU0n9aikTCxwJOibhg0cL4PiCw5pWuLlAwdavzVv3sQsTSGlrbgg7wPFRRm3i4o71zDjhP6D44T9NwQfYWDHMdN1qswlCKh9jQuHOnigpffHrZ1t96b56Mc4edO/dtgR2LPrD0urKwrudt1YHYMAMGwNIYjTxWCOSmciAcSJvASuw4CFfHSXA1kK7Ni3v/knLZ1jf56IFqg4MNu3ry6ZWln+C05gl7CMm2EkNAL2I5r0BB9kAqpA4gcrjFhiR0c1xA1hWzGQlQX9XV0toyPDu/MLchcEQ2ouAccBXQttBAclN/G0NUkrmeRvhh0a6B35XkHZ4p8f9iGlv/B/RiAd0I9hUjS+uaqgqCL7SUXlzrVtk5NlmQQf3Klj6Z2UnpI8a0nxwcjQIGTl5HY27d3/y46mrt8GMzNnz5pef5voE6Y5npHlgEkCeoqvnqK5EQ10lyHod4SJop+65bjgD2T0Dw4P/2X/3q5vn3vuVT3HcAsn/Veef/4Bde6M4s8Vlwc/Zxhjda5FwTK406fof8rfpzt5DmybBZEEdc6Nhq1nt+5tumEiqmyd9IFPX8BhR+DA6l9IYlXJiilVeZ+0jHAxw1oExIrIbAeVHXkZHOz9eiwYCQNUyQ+iGgJTd5s7Ovofbuvq+OVE1UrY8trq3MKqjO8WFOZebunxIkPXANc3ErwFARcpghUgDB40XnIQyY6sHC65ATdtlvF2bN+x/bsD/d37Zsya9fXikoLLAdxcrD4iaNiyHOKwSPAyvAiWaSZBcngOCSzLXdfU2H7lzIWX9R/2YaW/8I4RSAf0Y5gQjY2rPlpdkf8DxjOrUbwUe2dEtt0F4HiRUs9s+6B1IKFpuPDm5m1bP3b22V9oW7VqhTituGbhjHnTvuuyiTMtNxGgSktUHjV1LOpI5oEoyITChf+WVT8MDw2BLxDqjmvO0219xg/mTz9vQgJuXnvtkdwZ03O+Lcr2+0VBnkbU5JJua0QPGwO7g+MoAMfK5I9p8mAZ7MY9e9qWn3X+VZ3H8PjSv5IegX87AmvW/CrvnPnTH1FVb6ltRXmOd8AiqoYcCei8qIKF/gIOCwIngGm64A/ldY71j710YE/vbWctmZiWoJv+/nT2lPrCbwaD6nItFi5XFXzvaFaNZjK4gcEgjG0wXItMwwJFVIARBIiHw/gz2+cLbm3cuf32qMuuW7RoeWLLpodnT6ubulLi+VnERZEXwbaSUriIIORYiEbjEMrJBtfQCX1XVgJdB/a3f6G2bukL6al6dCOQDuhHN16wZf0TRVNnFj8gic4FLOf6qfEKR/q8LMMRJyHTMomrkqJQ6oooqf3DQ0NP7mzc8PUlS1aQ2pPnecyerasurKkr+h/bTZyFm4HUrvftAR2DGYJOMNBLEkomUzBJLBYDUc5oi8ThiZ6O3rvnzVs24WQkcRwaXnugsKgq+5bc3NyPeK5dYySiRJAC0bGkDIcgQ/RM52Wk8IFtcWAasKf5QMcnZy1c/tZRPr7019MjcNgRePXV++rOnF33G89LnIVAMAzoKG/Ki7T/iwHdNLGdxpLeuSgGOrs7B1e3dvX+eKKaB7300qrQWfOnfz0QED+uaeFqX0AFPUYN4HCNw7UJy+uI6cHyOvkZJxCAL7GBlnzYJNyx90DT7S4fW1NfT/n2Dc8/oNaeM/1uRZY+Bowb4lkObAspqWgrjQm+B6IkQTwWAUlGRUhiVmV7nvCXfU0Hbpg3b/mEXNcOO8nG6QvpgH4UA4tBuHn/n66dMiXnVsfSaxHskeKcYx8JM2nMMk3HBlGkMq4MiqgIoe6mpgNX1tRc8Q5jkdWrV0uzp5ufLZqS/7VENFpByvaYhcsqxBMa0YDG42LielCsISWJihQvBKKIStPAYPg3na399y9YcMWEBOBs27CquHBK1nfyCjKWWUa4xDARWCRT3ioa1jAicKICjuWBbaH9YqB33/6mO3bssR+ZqEIdRzHt0l89wSOwY8ejV06fVvlDx01UYu8XMTKmpQF6jJBqnANko57QbAhmlTaHx/RXm/f1fn/+OR9vPsGXelxOt3XrMxm5WZlfKCos+ALDuKWx6BhJIGTxEEsn1QZE7wVckzDAYxVSYNFQSgQQAq3drb0/HG4O/2720qUU6Zr87NzzzAX1teW/8VyrzDYtYBFEx0lkDF0O2UAUCOy6FtnIcyxSAN3mkdHEN0rLL3jmuNzkJDlIOqAfxYPeufPJqvLSvIeB0RezrsOqoQBYeoJMflpiT4K6HAcYniMAOUUNhj2H/cfOxt2fmz37/0qWIuq7qj7/5ryiwiv1WHSa7bkcasA7RGAFs3+CmU/yN1M2o7QcjapLvCi5Iu/rGR5N/G6wf+wndXUXTcigvn79E0X52cqnqqvyrzLN+AzPNamiFLoyMTxxo0OOq0MWA84cHBz8w4493V9O99GPYgKnv3rYEVi37peZWRn8T8rLSz7GsK4fhVAolzppvILtNBMljD3wZxa3dLQNP97bMfjrhUtu6DrswU/BLzQ0rApNKcr+Rm5+/tWWaZZZhsnIsgio6IjvXyo7x7KZY9tEAQ8/1NvdAREBwJx8YGzYfHh/Z8+vFi5cFvnn29y+/em8mTNrHwbPWByNREKyKBF2AG6OTLRLRjiCawCqQyLwDtdR2+QsQ2dfb+0c+fTs2UtbT8GhOyUvKR3Qj/CxoCpcwKd+PStb+qJPFQqx1xuNjJGJjaA1DL74YbGUhL1fDEKuB7Ki7O7tDH+5uGzpS+92qo0bHw9mB31XVlVPuYkRhNrIyKAvmBEiZXsEnCBQLAUQw2Mg/cNBLqeNQB3UUCY95ub+/rHfjI2F75s165IJafyA2tm5GdJH66ZXfTkRD9dj2Q/91BH9ii0NLOvhJgkXEgDv9c3b9n/y/POvTb/sRziH0187/AisXXPvtGn1RY/n5IbOcJ0EoBmg5ZkgiQKMhccgI5QDiUgClGDe/n07mn450uv8dtEEtEDFkVi7dpV/zoySb3Cc82lREEtw46JFY+D3+wmSXZBlMDTtoNgTCeSSQipnnKyCFo56Ai9v7erou2cgYj/3r4J5asS3bn3qgrqplT8TBWYeqmYSiWeWISV2pO0icIhsmgiFF9c0xCWJg5GI9UDb5t4fzL/00rSQ1OGnL3HCSH+OYATeemtV9fS6ogfB0y9wbZ2IuSH6E2lV+DdOcoLa5JDaglgPRIayvQ4wa7dt673lcOXwxrWr/HKBfGllTcVXgbFmRKMRGXewRE0J0aSAfNekdCJSRog2Mr4MtBdFe1LM7qGh8K9aW4cfO/fcy6JHcFun3FdQJra4unRFRVXpR7XoWBFLduxYdueAQzlNE6kxFipxtWx7a89n5p595T9OuZtIX9CEHYE31t1/6by5tfdFogOlWZl+cBkTbEc/2ArT4hb45ZzO3p6xP+9p6rjzoou+PCGR2Bs2rFIqS4su9wW42/2hUJ0WGQFB4Aj6HClq+MH1RkB/CQvL4bjGcGBYDkWp8yIo/oz93R09dw1H9Mdnz35nmf2fJ8D69c8Fyop9dxYV517BgleaiEdBVERSZSSODcm2Iv4eauATAB5IwHDKxua9LZ+aNkEVMk/0i5AO6Ecw4jj5C/Kkr1dU5X8mMjZQFvSrRO4RudIUscmB5VLtcYzotgcgChIwrLy1qaX3ppqaS9/RO3+3U2JQV0qCH6+orrjZM7VZjMiDGccsgfLaMSN3k/KJqLCGn0gkBhkZWZBIxAEpco7j7ertGfphOOw8e7iX7Ahu/aR8ZdOrqyqmTq+4T1X5RZaVCGEpLkWdwb4bSkWKvBRuaum8q6176GdLl177jp7dSbno9Ekn/AisWrVKnFlt/ue02ZVfS4T7g4qPBctNgCBLEE/E0EQEfGp+byxsvrp7e/utC86/YUJWhxoanldDindJUXHef8kKX2+auoBS1LqhQUD1gWEkQJIRgIoVQiruhOh0y0BpaqyPcyD6M5sGurvvb+vu/83hkpXUxGh868Xq6mkFj4kSv8g1Y8AKHLGzwaCOGpHYuiQbCSI8g+sbC4IcHB7oGbmvub3th4ian/CTbJxvIB3Qj2CAt217Ym59XdmvXTd2Brg2uI5NNJxxslPzAarthoEXeeguwwIviB16wnu+uTX87aMpgeNOtjhPubq8csrXHStRhfxXtGI9ONmTKmopoJwgKqDFI0RmEaklLMvqpg2NHe0DP7Es8YWJGtRfX/vkjKqa0ruyswMLXEcP4tialk7EO1Ba0rY8b3Bg9LmmPftvWHLpjUNH8BjTX0mPwL8dAfQbyA1JD0+rKbpMVBhwbQ1csCBhGiCqPuA4X28k7L3Rum/gtvmLrt87EYdz9epfSHNmTr8yNzvjy8DY9a7rysgqERSUsnXBMw3S6sM1h5jL8CJpeSEYFUV1UB8mkJHT2dHeed/gaOzh+fMvPeJ3b+3atfzs+uA3M7PEL3munmeg6hxWNzEhRylYLMQT7YlDYQn/vyAHdu7evueq+jkfbpyIY34irzkd0A8z2qRUVMb/ICdbvpJlzTwWEBTjgCz6ABFrnmOBQ8wHaGnYdjjgJdG1XWtbR8fwJ2tqlu8+2geKQJXq4srPh3J9nwc7Ue44BrgMVU5DgRncwaJtIX7Qo9mnykQrmRN4iEQi4AtkmDzr29PS0vHj/v7RZybqznbz6y/MqKzJvS8YkM9gWMdnWQYwHtrKSsQUwjLdbY1NLZcsWjQxtbKPdl6kvz++I7BmzU8qzjmj/k+yYs11HaRnsaQWbKG0q5LRk0g4m3ftar/trLM+NyEDC/pPnLMge1koqH4PGLNO4EDQdBMycnIgPNgPPp+P9LEFRQTPcklgJwpwFmrYK0QRT/TndPR39zzQ09L+63nnHT2lrKHhz1POOKPuKS3Sc5bqEwkmxmPQdhX3EwwwhOtO1zY0dMEkRVZ9Y3rCun/HrrY7JupaNr4z99DR0wH9MCO9d+9z80tLAg/xvDnbsTTgGBZESQEjhpNdwK0lOiATcBpua3FXK/n8PZqhP7h96/YfL1r01WMqE23a9HT29KqyFf6A+BHdHCtEOVQiIYuiDrhTRglKUqIygOepRCoGfF4QIRbTIODPNKJxc0s4HP9xNNq3OsULPVET63icB2mC27Y9P7+6svgujnNnciyEsNWBGQNZXGSle9u2XdfPPfOKdwUcHo/rSB9jcozAG+vv/UaI3+QAACAASURBVNDCs6f/0jPGylOOh4bpgRTIHojH7X807e799pwF101IYyRCud39tyXFJbl3iLI7n2VsSU/EieodlVzGCEptizGIIiaHvmeYPPDAMhLwSmh0sG/w+Y6evq8dTWb+9tmD19Hb9fIthSU5txh6uBLR80hh4xiOYIE8h7qxUWEpBP0ypPJpmbCzvaXnqpr6dJb+797GdED/N6Ozfv3DgfrpFffxnP4hjrdzOMYBFihAjQPK0QSgCm6G5YKi+sFxnVGP49ft27f35hkzbux4L0vh9tefziurzbsjlKUsdex4OaWwIYoeLVklwo913QR4qH2OoDHcVHgsQdfj91he0Hhe3Llr157vsKz+j4kY1HH81q5dOaOsNOenWVmh832KX8YdvJEg2UO8u6fvobbukduXLFkeey9jnf7dyT0Cq1f/IlhdEfhe1ZTM61jeCqIcKfoHAOPrG+iPrRke0r47fd7VE9LW0/NWsHt3LlhQU1P5U07mZpraUECLjUJGThbpi5PKInLKMUEhQVSAREIn2Tl4PJiGA2pGQZ+VMF/evW33t+YsuvQ9ucc1Nq4qqJhS9EsXjEsEURQQTCwQf3kGbJPaR7Mcqm1a4IEFgiQCy8kj8bDxTHP7gS/Nnp3GzLzb25oO6P9mHdu19ckzq2pyH3FBm8F4CH5jgGcFEtDBoeYrjoN9ax7EYDZEhkchmBXa393R+9WS8uV/OR5L5JtvPlpQVlx4e15R7qWuk5hi6A5Ikgq2LYBlYDkKJShx4qNpBNLbBGo7ipsONDexzLDfF9y2f3/znbYdXTdRg/qaNfdWzKyvfzQjGDof0f8cL8Ho0BCK+by5advOKy688Lr3tMgcj2d1qh5jy5bVubrOOosWfXDkVL3Gk31dL7/8q+LFC2ue5dnofMuJgSj6wdBgKBLjXtvb0vvF886bmH7mOK47t/xt/oy59XeBk5ifiI8qio8HQN43smYIJdSiSnDIqnE9CIcjEAxkUB0MlwXBl93T19n9RHvPyD0LFy47Lnz7tuYXLi6rLLtH18eqcYPOsyLpobuIKCbUXFzDkJfuQSKRQIQS+AK5za37Oq+onPahHSd7vpyq508H9Hd5Mhs23KVUlNXekZHBX88yRjaDZXUmZYtKLRORb45iSgyL0oUOZuhRVuY3btiw/ppzzvnGwPF66Bs3Pl6SlcXfWlNTtwxcuywSjoHfl0U4m8AYhDNKLR2xaoBlMtp/Ii8KimIwXGRwYHTL0NDo94eGgmsnqtfw+vWPLzzzjLkPxqKRmRIqdnkecma7t2zd9YUzzvro88drvE+n42z8++/zK6aX3Ou6XqKje/irR4pIPp3G4EjuZe1L916w8KypK2WfUWpZCRD4gG7pwro9e3u+OvvMa3cdyTFOxe/saPjLzIqqsrsVSZjvghniORcc1wAjESP6GVjNo06RHklMEJ8j+gKQiMTAAw7UYE5vT0fPmv6u4RXzzrn4uFUoXnttVe6is2ses2ztAwAuh+dG9zrCHmIQ9Y40YAcMRyf+FSSJcrlof3/svi3b4iuWLVtmnIrjfbKvKR3Q3zWgP1R9xpzy31pWZKEgMMAjIM2jgRyRlxgsMWNHtqTjMmAYHKgZ2W0DA5335uVtvYdhVlAy53H6YFAvzM28rai46FKe54uj0SgEAj7wwKR0NjcpyED8mrHvRRWdsCyPGbsoBaK9vf1vdDQP3Lrg3N1bj/f1Hafb/LeHWbv2UVkWlI8sXLTg21okPBU3K6KqRrc17PjFWCxzxUTdqIzX2GHLKD8786bCorzPixJvdncPPdzbr/0iDSx654ivffRROX+e78aqmtwVALEMxKbEIubmjs6x78w+4/oXx+v5jPdxd+9eMyM3K+OHPM+ekxEKZMTjEWAZVK8UwEE0u+scVKDEdU32Z0B4aBj8gRBg8i6qod6+7oGXBkfC/z1r1kUtx/t629tfvrK4KHiPB3YREebyGOBJUoJOV3htaHDhEXwQUuV4QQGeDWxq3NZ05cyz/l/amOlfPJB0QP8Xg9LQ8IBQmJ93a3aucpNtRHIF9DvnqE47WvlS1yAqtIBKZqQsJfoMhvNt3dHY+InZs8dHvWz9+lVTaqoK7s3NzlpkGvEcBMpJCnV3w6ycVBCSXE5CpCO7boqKxx2wIAfGYmPRzR0d/d9u3BdvWL58OY36E+iDJhL5WfLHqqsrviKKfKVlG8bAYPhvZZXnf3QC3cYJudStrz965vRZ5Q/rRnSmPxT0NN3esndn9w1nLrpu6wm5gAlyklWr7lLqqqY8Wl1bcDEvOP64Ft/V0T7yg+Ex6+klS67XJ8htvOMyd29/YUZ+Sf5dWVkZZybikQwM5AT85qGktAO2YxLpVcvSCZIfbU3RMyEW1YnUsi+UM9zR2r5+sDf2tfnnLBsXjfrdu18snFpXsAbAmomCUSTxIC1Nj/byGY9UIdHNDRgexkbCkJFVPNRyoOl7lTVv3TsRk5LxnkvpgP4vRviNV39dN7W+4HFVceZhiYr6c9NyNhqi4ETD/g75uc2BIKoYPkdYzr9yc0PbreOZAW18bdX0efNr7xMkONOxDB/2ylHFKSWbiIyPFEIXA7ogyGCZKBOLNBQHe2OxSCT22v59Tf/d2iW8NRGD+po1K3352f6b66bVXiv6fGWxseiev760d8FEvJfxesGfeebujJlT839SVpb5cd2I+tEpzGOk4eFh54nG3f3fTWvgHxp5nE9nz5/+V5+Pn5bQY13Nre2PxfsTE1bSddu2P9cXF+f+NDMreK6uRfwoyuTaFPzmOdTamahMMugHgf1zFiTFD5HRGPjUEHBSIBIPx97qGRi5qbb2/D3jNUcR8R6NbvypGuCu82wnG2lyIiuS6/JsiyQolm2ALKlE2wPXMTSCsUzmjQN7mz81Z8HHJyTjYLzGE4+bDuj/NLrIOy8tYv6npNT/CcMYylZkapno2IggR2lXVG3D/BcDOoDE+bHcneAVeUd7e+/15eVXjNsLkLrUbZtXnVVZnXevKLJzWVYViKsb2KT8TvrqSelG7DtZpgeqEiBUNr8/SEAvABA2TH17f//InS0dvesnYhaCVRRFLFpeOqXwi4FAtm/r5j0fn7dw2VFz/sfz5TqZx966/tFlM+eU3ee4I+WGEyNKe54nASdmN23d3HzDmWdfn5bMTT6gV1787ewlF577m2h4eKS7r+ue1o6Ovy1bdsuE69Eimn379gWLSqbkfc+nMmdyvKdyKOTqumDoOgGdyaJC/k0MUBzMzl0wbQNEATXakR0jRQHE7a1Nbf9RN+vineM9h5uaXqwuLFZ/I4vSOaipIbDYMnTAs2k7AD+4EdEMk7hZYkA3TXskEtae2L1/8D/T7JZ3PqF0QP+nGdu446nLSkuCdyiqPcuyEe0qkn2P5xKtdFJ2JyIyDBE3BtaVgJN9TX19Hffv3Ru570QFx4b1Dy+prC37vs+XfSZDRORtAIbSPDCgU3EGFHzHlwKrCAposRiwaLvKoMKdmHA9bk9L8/DXfveH119bseL49vzHeyFIHX/z5mcuKCmu+OLwYOSJGbPP+9OJOu+pfJ6Nf/91fuGU0MqcPPEDkoibPJuKhIhB0HUhPjigrx3pjXx63nmfTntNA8Dm9S98uLS06BPNLU0/PGfJ8m2n8rP9d9fW3Pz6mWUVhT+3rehcTYvIfh81isIyO1LQCJqdFcDQLaq2aJsAxO+dJ8kJz6lWLJp4o7tv8JuNjSeuJTc09NoXMzPVWyxLq8ENCDAe0Y9H/3VsFaIHuyijNwZ6WDBJH3XY1d4++qVp05a+MlGf13hcdzqgv21Ud775RGluIf8rVYULVZ8o28jvZrHMjtQOdD1DlTLkaqIspE12vILsiwLrf3PXrsbrZ8686oQBNVD1aWo5u6yiovRO1afUe+DyrmuC6BPAc2wwLOSR0hca/2BmTuI+Yk8QA4D/hxWisZjzxtad+760ZMnElLLEx/fKK8/P9vt9OWeeueQVJtVvGI+3ZQIcEysXIiNcUze9+E5dHyqWRA94FsU6WKJi6NoCGDbX3t83dsvWRukv6TYFwEsvPTdXUSTz3HM/OCEV4HBaNjSsriovz78vFFLPZjwzqCUi4PfJYKCzGYuhEPUzkrKqZJNPs1/dNEgmrKoZYNvQsGvHgVvCmn/ziQSYYi+9qjL/N6JkLdFiQ4Io8cADyjujXTS2OlkCficJe9KUyrKdmONIL23d1nLjecegWDcBXuVjusR0QE8OG/Zz9u1aefWUKRn/rfj5SiMRB04QwEDZQ6RU8BQ9juBxDpGYDoBh2BDIyDrQ3TV8e/Gjm//InOAsl6C+WW5ZcUH2d/KKCmaLIg+6icJ0LnAoW4kCDcj2SAZ0cqseFcLhgCOVBkFSR7q7Bl86sKf99iUf/GzTMc2iU+CXHnjgAeHGG2/E8sSk/qxb92Bt3dTcBy1z5PyC4mxwDY30TamDFU9dAD1RHxwe/Xt7++gtC86/eUIajBzPh9zQ0CC88MILzkStUr311nPV2VmhO0tKC5bGo2OZwZAKpp4g/WeBo/roVCMd338aIMnmHj3OcW0ABuKa2djc1PllRhh6df78E/8eDfS+fn1ugXg7gFZpGhowDg885yPYJayKOoTGhkkJpeSSn7lca0/X2E3VU5f+9XjOh4l8rHRATz69119+qGxqXd7PQxnsMl7whERCI+prDCcRSVd0BcJAKAsyQbYzLgOCmjMEwDTs2NFy3ezZVxw33vnRTKjnnvtRwM/LV9fW1fxPSUVFlmvpgJrngojmMdiHQlU5fAGSgg0IIHVdYFF2jmPBcmyQlUB/e2vfP7r7xr6zeHEaaHI0438qffellx4I5WbzX6uuLrpR4PU8246BLPJEcQthFUQ9kJMJmlnTjL6RYf0nA/uj98+/9Ma01/Sp9CCP4lo2bPjjtKzMwB1FBbkXArhZksiB65kgyyIRnKKWy6lPqgWHstHUwRF9KHq6ervau3pvj8bNP19yyX+MHsXpj9tXDxxYnZuXpz7E88YyVRF4I+6AiEp9HlYZKejXJdoauB8hhqvILjKjUe/F/c0d/5H2c6CPIh3Qk1Ny784/XlNRkfltjtNrdW2MWCbyKH3IiqDpBt3lciwJ6JZhkwydFwKt/QParcVTLnryuM3sozzQqlUrREfTFldW1943ffq0qSgWgS8pNYoxSR8qRWEj95AquQPdtZuORSoRlsn0d3YOvDY4EvnPxYuvPu6c06O8rfTXj2EE1q99+Nyq6rxfqaozQ5Zd4AUHHMtItlhQAYkjblmoJoglWMvhG/bu6/jCvAWfbziG06V/5SSPwKZNT9dmhPx31lRNeX9Cj2eqfj/ghh7tTz3XPmi7fPAySakdP6kM3YN4QoOuzu5dDQ1vfTMDstZf9plvRU/WbQ0OrrskJ0e8x7a1Kp6VwNYtoiFPcEse8nI98JDGRtJ09G3nQBD8ba2tPd+orLnojyfruk+l86YDOtEK/33O9KnZv83NFhfbdswnyCyRVSXe5i72Hl3w+VFu1YZEPAEcK4A/WDAEDvPM/m09t049CgvB4/XwV696JDeUy+cHfNx8f0D8VGZm9lxZVYPEoCXpn452o6geh37iZPeGPPVkQMeUjUVhHBZgJDwGWdn5YJvMSP/A6NaW9u5vnnfeJ7ccr2tNH2f8R2DNmgemlZdm/qSysnCpaYwKaoAD3JgiVoK0WAjdkkOHOmrvSwFH0VjMenlvc8fNCxfeclwkPcf/TtNnwBaBpu09q7Aw9/aKsuLFeiLmIwYmFoLeqOsj8rjxbwKKQw/z5CeldpWyKMUKnaZp0XhcbxwcHHnE0t03XJ7rXrz46hOeqTc2rvKXlRbcy/HuRxgPAkS8C5CXfujq8WfYTycBnWFAT9ieKAVf2bX7wCfnz/9I72SfHemAjlrH2566YsbMKT9y7Wh1QhsFnw+pHQC6bhKaBCvwYBg6sSdVlQwwEgngPGF3e/vIx6qnX3HCZCGxz79hwzO5uSHlwrLykk/wrFfoecYUThLQ91B1LbRypSV2+iKjYATt/WOWTjJ0lwrO4B+Gdclu3peZCZGhEZDVAHggxj1Pamjc23Hz/PnjT1uZ7C/g8bj/v//9seyy4sBtlVXFV2uxwTxBcsG24qCoImBKjpUawnbgeGKAgSAoBMlhOVbyZXT3dQzd29rNpRXkjsfDOAHH+Mc/Hjt76tTKuzJDgTmGHpVxvcJnigA4TGSRmePa6DFxCPyW2tBjQE+9/0SnQsL2iwaqLwAsr/ZaRqKX5+SWjo6eJ/SwsXHq3A19J1LApanphRlVVQV/0mKxWhGFcCjN9mBCcii0470xwEsK6oN0793d9qW6GRdPepbLpA/oG1c/Hqw/e8pKUXI+kNBGlGBAJlxu03CB50XQDRPUYAYYegwsyyYiB7YNw7Ka+fSmTXu+vnDhNZHxfodXr14tVVeLxYrIvS8r0/8RNajWuWYioGmxLL/PD5ZhkA0IUYJCfqlNM3JBFMEhsrDYQMUAj4x15KVSYQn8NyJgcZcuKn4wdAN4QQZdZ4b6+6NrRsNDN82fvzw83veXPv57G4GGjQ9/YHp91c8dV5/GMei8Z4Eic6AbGogcS4VEWNpiIeXWJL8X54aA+BBb2t7aGfvc1Pqr33xvV5L+7fEeAdRAnzq15Jc5WcH3x7VwSEB5DIKVQbdFjlReMOEgDmbIyDkYwOmGnkilE4Ac3dSznEA2Apjho/iU6g+CqdujouKL6NHEnrFI7MnuvsjagQGr/0Top2/fvtJXVTn1QUVmr7RtQ8AZS9atZFxPVRbw/nBzouk6yJLftSz2r1t37P3kyagsjPczP5rjT/qAvvmN314wa1b5fZYZme4LKWBqMXAcCxQ1SMrris9P3H4YnmY2GOj9wby2/u6BzxSULBtXDuSGDauUjAylJD8/97Kgz3cJy3k1LOPk6kZc4FiXXI9nI0ceNdupWYlhUUUo/IMlOKIO9TaEKIvwPuJ7THtRyEun7mwIC2CIi5lpMuAL5O9u3t99Z/XUc04aPuBoJvJk/e6GDQ9l1Vbk/54TmfMyMlUFbTHRehLzF/LcXbqQY5UJnzlu3nDeUNUwm9AvJX/e2HCv8UJPc+yWWSeh1DpZn92x3PeOrX/9VGVN8X/xrFOB/ETL1IBDLIyJUq4S0UKPx+OgopWz45BATUGxSXAcRwN6KtA7Lp0LqYqe6+E6R8v3iuw3gOOHwOFa45r5556+3hcikUj7/PmXjiuIsr39b+dMmVL8+OhwT3nArxLWzqFWIcUBpFD6DNmIeGCZbFNLc9enZsy97PVjGdfT5XcmdUB/4YVfZs6YWvTjYJC91h+QRNJ6SvabUZ/dc+lEJ0Az1wLbBZCV4JhleFsPtHR+or5+ed94TIR1636X6c/KKMvL8F9WWJj3Ice1Sj3HyvUcW2BR0Ab/JJXqELlMAex0oqd23jyDSFYWWJ6HRDwKvCQQ5zVEwKOpDAn2yE11ORAkGVClSVRUVIsyPBCHtKi7padn7Ad1sy54YzzuMX3M4zMCWzY/clFNdc7D/oA6RdejgBs9jmPJfE0pBqYYDmRuJF34DgIkHQcEHjs28q59+/tvmD77+o3H58rSRxmPEXhzw5/Pr55a+k2fws8UFT7DNmIBsjYRC1QR8L1HFbjUZh6rM7T1xiHfFhKJOCh+BRLxOCiyD2wnVZZ/GxMmGfBxTXFcANt2LJ8aCAPDduu69ce+rs4/aj3hrvoly2PjcY/79q3NqSzL/qPrJs7nOEpXQ+U4shFBz3TbBVGSwPVckqUTEi6rxDs7hx7tamy59dzLPnPSgH3jMR5Hc8xJHdAbGladO7Uy9yFZdqZyvAcOZixI6WLRWY3yH3H3ioFR1zVgeAEkJevAQO/wHflFFz1+NAN9JN9du/bRgtra6jMdx7o8Nzd7piwrhboRKWZwd429JFyMSfDG/49lc4r2xF7SwR0reRlxR4s/R/12Czg0l1FVMBOxgzt11G/Gyrwk+A3PZuKMosQtXYNINL7dtphnu/Z3PHfGBVcNT3ahliN5bifrO6tX/0KaVV/w69xc6UqO42TDjIPAUyVASllMoZrpFZLAnqxdEs1/zMY83OR5IPlCIwO94SebO2LfXrTos2nf9JP1UI/gvNu2PV/sV8WLMzKCl2RnB2YCy/oc05Rd2wlgpu7zB8BBQRkeHaQAHNMkVUdgHMJoweUN/43eDizqEhDUO103Utk7TRpw2aEhgii2aYYbDGb2W7bV7lreur6+oWe1Mau1PyoNHm8hmmh4+y3+IPcN8IwS29TATJikhYCKl16yjciJtKWgG4gTYUASg/v27Gm9YfYZl6w7gmE8Lb8yaQM6Bs+aioK7C/P9FzOsHUDupomcHhRKJYhggZSysSQp+3xg6QngBDnMCoH1W7fuvX7evOXvWTZz1apVYlGRkxMIqPPzc0OX5OTlzrLMeK4si/nxeNxHwUuUapYK2HRhJpZv5G8E6qVAcKQnRoI7+c8k8EuyTProaEGoqio4HmIDeIhrcc3nz054BnQODo81xmOJV0ei4XUw6vaecdGVkXQgP7Xfd2/FCnbbZVM/NL0m825e0Gtw4+Z6FkgS8nap1Cv1uaav+MGFOrVoE/4iKnFJAKjhzQKwcrCpaVfHTV1Dna8sWbKCvgzpzyk7Ag0Nq0KqoJbG9cg51VU1Hwj6/LWsxBe6hum3bVNycX3A/JVHoKwNLEc3elilU1UZbNTJchABfyigk7nC4tqSDOhJDQtFUUFPmMCxLAiSApZuDAtqKA7gdQ0PDa1PxIynx2LRtj17jKHjoT64e8tfympnlD4Siw29L5QZBNd0SOtTRQlYj4GEFgc14AdTN4GXZGBZCeJxUxsejv21t3XspoUXXdZ/yj64cbywSRnQES1+YO+zH6+uKvmOY8emYfeY/M+jO1TcjaKgASpsyYII0VgYAsEgWDa7q7838pnSyg++J/DQhhdXZVlcoqyydsrynJyMc2WVL3dMI8jyTNBzLYjGY+BTiOkLycCpCASlnhxCqGJPDOVu8G/sh7PkJeSSpfbUnKELu0COYaPnMMCIIMpDhqF3d7R1vzgwEnmOjzC9C5eNP7hvHOfxpDv0xtcemV47rfB/A0H3LAYMHyLZMTNHtUDc4OFzp+Cndwb0g8q4qYDOKkT50HYS4JiOzoG8bufuni+dcfZN424yNOke2jje8PrnHg7wmaGKvPysj+XnZZ+vZmRVOYkw2qxlkPXNNUD0q+DoGqnYIV81Ho8R8RZcFciGL5mV43pC2zTYvkkKVAGtVMZicWL0gz+PxWLgC/gdXgyMeI5tMZx//8jQ4PN9A8Mv2jbXPnv20vh7ueW25pcuLqss/UUs0lcp8iKIigJ6JEo2qixRjMM/uO4x4NgMyIFMAJA62lraV1RULX70vZx7ov7upAzo69evnDJnVvmjPOeexbPgZxjk5mI/xiM9IyoYjJrtHqAXeiwcgYy8ogFT0/+yc0/nV44V+b127aqC3JDvnGCGb3nA75uWkRvK92wt37ITpBKAgjAKZtRIO0MPc8yw3FQ5nTsYzOlkc0k/1HZoTxwDPsnciWY7ZvVoq+oSoAwejmWVflaUBuNhbXd7e9ufEpb5Zm/v6NClaZWwCffuoiLc9KrcO/KLAh+1rHARx+OkpX9ImR3NLYi8FmZmqeyctmAOWuuS2Y6qYhLlLTs6AdC5LtsfHXVXDrTwd4xXj3TCDfgEuuDta9b4NFHLDQblc4tL8q4IhdTpILL5VnwsA9cHIgWdBMXyyILBBQ+jI00XDlZyaGuPfjCAYnaMfws8RdFj5Q9XTJxnpk2TBo6VTI4Xo1rCaNKixlbDMFeG4/q++voPHlMLZ9Omp7NrqnIfkiS4hGN4Hul4DmIFJAFsU6cgZdsB2Z8BehTb+Tw4Llqushta97V8Yt45H2mfQI/uuFzqpAzoBw48+9kpxZm3igJbgRMEJzQqENmeS8pQuBDyjAgsFqxcGyRFBTMeP9DS2nVV3ayr3zrakd/098ey/VlZS6qqKq4RRK6OFfmC+OhwUPYpYJoayApFIBPMx9s45BzHg2lhBp4qidEzE5AIAcdRChoJ7y76HJvkmrHXhK5K+AVOlLu1sNZu2uxLXR2dz4z2R3odpWL0ePe8jnZM0t8/9hFo3P74hTVVeT9jOWO2aWnAC3Qhxr6ol8yqcLGjQT0lKpLqpyeDP84hbLCy/qQgiQ5YHWJsDyQ1f0vL3oEbq2Zem1aQO/bHdFJ/E6uQb768MssfVEpz8vI+GQyp58kZgWIAJ1cPj/AI9LWS9NVkEedQMMcqJWndUa2CFCsC+/O4FtqJBAWmoayw51BHSgYz/gQoii+pqimMuo7XY9vO9sHh4UfCYXPrsQT2jtaXlpaWF/2vpcerUzRLDj0rtBjxcbddSsHD87oOAKL2eV4abO/s+3555QU/n2ytw0kX0N96a1V1TU3BrwMBYXFkpJ+TUS8Y9c4Jvgy1jWm/GgM6z6JUJtJBxH4tpj2zc2/3t46Ud46UM47TC2RBft/0qVOv9DyvwnOcIlEU/IRiIqOdaZQi6J0kkhPoDhpfINxcEFoakUXC3MohvS2Go+AVQj1DV/ZUBoY7bcYFkUfJWmEMXGbQspyOwYGxrfFw4pFI22B7WrP7pK6xx+Xk6AiYmQ13ZWZLF6kqm2ETyiH1pMHNHembEgVAWnrnWEpnJNrXuGnEVY+UVj1wWR6d10BSZLD0CAisBxzOO1DGtKjw7P7ukW/Om5e2WD0uD+4kHgRNnAqzfGU+1XdVZlZwoS/orwTXLbBdK+CBTUruh7wekrgdBFUABkcU1TJAEkTqqZ4Uq8L/hgkEAusUn4+I0/gCAZK9265DtOSxS8hy3JgLTL9lOrv6+4Z+E/e8t3aVRQaWM8vfLjL/rqOzZcuq3IqKgl8KLH+5LxjktHCEYAJQs940EmTDKgYCoMeiZN3meBHQyOOS2QAAIABJREFUuiAWNxq62/uunrPgiv0ncehP+KknXUBv2vfc1yoq8m8eGe0py8nNBFv3DgZxDOgHrfo8luqeY4bOS9uamrs+UzP9I4eVQ129+vFgeXnulJwM/8eDQf+5ksgVx2KRatzF4o4WRWCQQkLR9Dy4Di0bSWimYKHcbBKMkpwKpA8KyBt3SCcglZ0jvQ43AhyLJVMBy6YewzD9nuP1xRN6U3//yHMjI+HXh4fHepYtu8U44TMrfcLjPgJomTurLnFdTXX+t1jWqtX1GMgqegskSMsIpXxTlVKcyUQJDvUJcFOIlr8IcErNL9zAAgsm0TDggWeQk26BTIB0uKiH9nR0jn5nSvW+p0+kUthxH7T0AQ+OAM6f2hIoUIPyecVTSi5XfXKd5+pZLmMXUUc+TBRI4S/p0EbbfKT6Yzok+cCPaVBZWYI3EjkwNI20B5Eih9+huB6XYJJIcoLUSEGKcrxvwHGcvnhce9IwrBfjcaOromKJfrhHtK/xzx+qnVb7My0WrZNEFjhZACs+RkGfLlXIExWJnB+rk6aF1UoYGRmOPzCl8sLbJlOWPqkCemPjqoLC/PwnVR+cz3M24ep6nggu9qkBgyItfSN9DTyLqGjxktw21DvyVM/uwf+evfTafwnywBelrCyRIXO+6pyc7E8WlU45H3fAlpHIFiSOwU0B7mYRSY9ldeSD43kQpMYyCllwiRCMqZMyEr4ouEiTUha+QGiykhSIQPc0lueIkIQkoaqdNAzAmsBwQyPDI6+MDA7/IRw32154YWf/RLWDPNwLPln/+7ZND9bW1uX/imGMC5B5K4g8oSKyPNLRXDDQkENUqDGPmSBlU8HlgeFEANMDEHiwLR2Q7mMDA4ZtgcRzxJULd4s431PtG5YRdJb3r9u7u/eLdXOum1RZzmSYX2vXPpNRWBiYEgop1xYU5C7zHKOA4Tg2oYVDqB+LgRGBlSJPlSdRswIzYMdGwBwDkqSQDaADOkHPY5EeP9RIBW2bqZsbUSlkKKAOU3aO4y2GYwdd1x00bfOpvr6BP9m201NTs+xdFTfRa2Nu/fR7QyF1qW6MZQoitotMutlw0A4Wu4tIy8MNCbYgEQOFPHVpy+ZN+69cfNHkMZuaVAG9ef8LV5RX5v9U00YrJJEGUeQvuiQbFyinm5QnHcCAz3GsZuj2lp3b91535uL/+D8OZAjaUHm9ODPb9/6c7NzFkj+zEhwv10wYBWSOkTmOoBNa5kQUOvX0Temt43ckQpPD8hHSymKRKLkuRZEIUI5sMJJgFXzJ4rEE8KKgS2rGQCIa6fRcZl9nd9+fZY7f0dobHlwyTmIPk2GRO5Xvcf36hwPTqnJ+FAq5l9muXiSyEnhYUhcALCMOgqqS1tFoZIzML1UWSVYugg+6W9p7VMnv+kP+EsEngWEb4DI8UT/EzNzDgO7xhyw1sYyPiyUnDhg6v6pvf/i2mhMgcXwqj//pem0oK12aZ5RIQf95eXmZy0KhUCWAVRAdG8kXRR41imhg50TgMENHoKXpgG06wKJ6JoclewrAJBk74jKA4jcQwsEi4DKpQkk9JdBSgCHywx7j9PCcN2LZzg7LcNb1D4bfMAy+q67uouF/Hu9tDU+fW1VReq/q4+YYZgwsOw5+4i6XxIYwZvIsNKC76PvuKkM9fZH/bO0SH5ssmKFJE9Bff31l3szp1Q8LvHORIHqy55ikZ45YX5bYSWIvG4nn1LSEYwgdrLfpQOs9MdO6e/78G0mjkhikvPL7KSVTihbn5+VdKwXlWkMblSQ16Lf0mJ9m0lSgBqkimJGTiY8TmHDHk3wLoNWAg6A2RGvK6FWdlHGUJIiEw0Q7HicoKiNpWmJU9QeHHMtq27+v6Rmbcdf09sb7l75L5eB0XYQm43017//TRZU1pffHRtuqBBEIytizddDiEZBlNBMSiRUuL2PZE7NuzN7BHu1P7N3SsO27IZ/sVU+r/X5BScE0EFiIREbBH1DAdRJEC9xzEaWc9MhOzl+P4UHggv39vdo1xVX/7++Tcdwn0z03NDyvel6iND+nYJkkMxfnFRTWadHhLNWnyKg2iVVGRVFIiVvF6iDJwF2K40mW5intlyXVIfJJIujtZIvQJdk7lZslBSGibMjHHcuNcyhyZVqNba0dD4dHYw1ikOupr1+OkRrWP/ejQF5V5W0VVSU38BKbZVsJWglwqfkUCm1R8WrasvTQpc1DFL/y6q4dTdfOP3d5x2R4lpMmoO/b/ezHqqtL77RtrcaysBzpgRLwg56IEyAF+u46KLBBSJlIG0vgxD2wdduO686/8L82vvDCz7ILgwWF+SWl7wsGAh8KZgWqHNMoNG3DR0BFhgGGpYMPBRtIed0ivfJUzzLFCcaeD/WjRhQ6bifo91zHIWV03OESXWVAsJIPXNsFlhe6gOGGPQv2d3R0PdbR171l8SvN/cyKFSk3xMkwVyftPRJgULH/PpY3Lw0GcNdnQTwyTEqdiMtA/f1Egi6kgmSAbsTAc0RQpJy9+7b33Dp9weeewY3oW+vu+nzd9PKvehxUKyouhKTwTnunrgBssjRK/k2yLgQZ+SPhsP235s6xL8yf/4mhSfsQJtmNNzT8qTCgKueVlRVfI6nKdM/Wggzj5bhE74ChUtiWCwKvklI8BnCcT8QXAulxWIQnUtrJHnyS234IUU8H1CZtT4/oZySxQAmWV3sMLdwyMDj46sDQ8Ku2HT3Q0VE0FPLted+8+Wc84PcpFakePpMEDaeAnocCOqUec1Kwp3FX0631sy5fORl66ZMioG/Y8FhxWXHuw6GQeqHIA4+TUZZ9JAAjyhPV1oiQDFpLIoeb8UgPOx6P7dn4xps/qqyaJsii/wMF+SVTOUHOA3CDoiSoiDxHYBGGX12Lg6RK4Dm4QNogyTzRR6cqTUmdZCztA/bF8Xy09+N5GoiiAPG4RkpICDjBQA4uaMCKI47h9cW0+D96u/tWjsbi3YsWLT8mTuckW49Om9vFQLx9y0OX10+v/qHn6TWOjX1NG0wzDLJfJLoJpoF6CSrwsgKONUZQ7sAqnQNdkd8faDf/59xzqbb1hpd/VVxdl/f9YJBbxnGQ41g6SDI15wEHN5k0QyeVJGwTeQzYuAFl1eb2lvCXamZcuXoyLIqnzeQ5DjfS0PB8DueZUyuqiq8LBtUltqVnCSKXZZoGCJyAfuSkVUNa5KTk/jYjmLe3F5PiNalKJSFPuhRoh8p1+KEKdYhhoqZSoiSPhsdGB0fHRvf2dvS80tvb684/68wvZ2fnVGI1k7I2qCT2oc/bYKEeC5zo8/p6h19p6xr+7NlnX9V2HIbklD7EpAjoO7Y+eXVFRcEdoshUIhrSiuukv4MymaZrEH1rYsaC/HMWVdUAHMtAudQYA2wPw4iCL5CZDcAGDR1pbDxoiRjOYOAEEUy0HVRVoveOkwuBbbIoECMEPBZxvSJKSzxZNF2XJeh2jNq4l8ANBrKJZAzkLK8Zcb1Lkv39gwPDL/b3jP7BAKd3vB2OTulZOokvbvO6X1YWV+T+Ijc79H7T0ESJF4BhDWBFHRJaFFhU+kLsh8ORBRH76ZKogOPx63ds6/zMgsVfewegreGN/10wa3b5A66VmC35JFK2JyVLFzUXKFWJMCo4yldHQJ1jC0406v2luWP0ywsWXNs6iR/HpL11xHAEpMyyytrSGyVJPI9nmUyG9XJRMNg2DdJnx3VOYBng0QgmSYUjaynKzSIAGEvxLEXHo0Y8BQYj4JeC5tCLwOcPgoEmQzw1kMKAb9t2QuDEsba2doPnxLL8/EIGcUekkulRMByur+/4YJBHnwLXAdOCzu7u4R/t2u3efzxkaU/lSXDaB/Q333yidPq04vsdO/4B1afwiZgGAX8ILIMqwzGCTQIzrmkY0FkGd5sYhR1agmcYEGUfjA2PgM8XOKS0hZroSNmwEMFug6r4KHhElIkkImbpBLThUGAb5Zdj3xxI8MaFM7VbZRguyolqLBGPRmTJ1z4WDr/SfqDnD/5Rqbdm2bI05exUfoPG8dpwEc3PFW+urim+ORaOFCiyBLaBJhU2WM4omX8mVnw8HlxbB1WUaAXI4wZjUfu+v651vvfPC9iaNT/xzZlZdGdeXva1jh7N9hhqp8oQMyI6NwntiKUATsSZJDQbglmlPS37+37a1GY8mMZsjONDP8UPvXbtWjkYjJSU5Odflpkd/KAgceXgGSHPdrJcz+aoNXMyY2ZQB0EgAR1lrIkfxcHAS9k8WOXEihJavioqaiY4JJgT90eR9sctCzFJAKIgg2FYIEs+8jeqeLJEgwHPlxJOwuNS2VoCREbGkON6nsu/sWt36zWn+4b0tA7oKKhQUZb7taLizBtdRy/FySLxiA5mIRFHz3MVTDdBBBAOaqUnezIUrUkFF1AxSZAkMBIa+bcgcpTKQUqbFLFpGTZCOomDFR4Q6R4IHqF0jUMuRmTB9Dy0OnR5ASln4ohne03dfX3rw8ORv4YTVq9pZo5MFlTmKb5+ndTL29f4xIXVNQU/ty2tHk0xHNMAnsPsxgBetMBw0FCIJ+pdnGeDldCB9aS4GCzetuGVTVefc+HX/6X05daN99fMObNqlRUfmeMCNXHhGFxMDwV0BqlIrEOIH5aJfGIVTJ1/q6dX/8rU+isnrZvVSZ0Qp9jJN2xYleX3i8WZAXlZdnbmBxRVmgKem2U5ZlZKgjrlPUH67Aw1CyItnmRCgwGdlutxvnlg2xatkKJCHQrTII/dQgtrhQR2pM1hYoT9dgIo9hB3lAzopEFPK5/oLEcCO48bAmyxBvtaW/sebu8c/t6SJdcflvt+ig31EV/OaR3Qd255bn5lVc6DDGvM5TATwRiNvWtCUaPWey5rUeAasRulmTP90KFBLjhOCJygWBpCQRfyb/LfUEzBpEHd44HBicbgd5BHbh/ikVu42xQpOtQXjIMHYWD5Xkt3tnd0Dj4y3DW21z9iR+uXU0Rn+pMegY0bH5k+o77kPttKnCsJLM+jkIeL2Q+uRagaaAN2bRheIsJEPgk1tnWQBHXbYE/s1rzya/7670axq+k31xZX5d8GplaLTnzopY2gONyookANxyHFyAZEJxNPbVZCxLvOeRnrdjV23jJr/if2pp9SegRo0rOCffPNWZkia8ysqa35HMuz0yWezzNMrRCpthh4MaATbrtB/dmpVDEaYhElzkPYDaQMC3RtRmU64jNwcG0+pGh3MHAT3jl2TSldjnyXwW0CluItwliiKHjELMm79jV2f2rWGZcftXz3RHnSp21AR2vBnMzQd/Ny1WsY1szlksAJBh9sMqijyKXH4oRIlmgOBvSUzzjN3OlO0CalICL8QiRZqX76IUciD2yL7h5xAVQURNAnDioqOa4Xl3zB/kQ40pVIGC/39Y/8qWewt+v9778xPFEmS/o6T8wIrF//XKCoML6ivDz/44lYrEggSm64p6QZCaXoADgMgOl6oPhUiI2NQiijeCg+Fv5zS+fg12fN+o/Rf3e1Ozfek18wJev+UEA5n+f5TFz0kGWBVsHxaBjQShuBnXEd+5oqKm+BbXHgOb7+8KjzQHPn4E9TYLsTMyrps0yEEdi4+vGgVOirzMvO+mxWVsZ8QWKLGc8tQT46ChjpGgUN+4NBQrlUg0EIjw4mqZfU2hkz8lSQp2ss/dDA/E8AuOQ/WbKmUwwIUaljDOr/TjamLjAsYkTEcHjUfqytq/s7x2qwdao/g9M2oL+16anFM2fV3OfY0ZksQxXa8IOgNCI8AOh5juXL1CRJBXWcECihSVHo6FrGsi6hoSH6EnvrWO7hGZRtxaydh2g0CrKsEq54QjdJmYhMTJRClNUY8NJQZGh498ho7I+xsfjfo23m0KLlyxOn+uRIX9/JGYHG7U8sLqvKvBs8/QwRrSLRKIP0JhF4ZJLSJG5KHQ9BmTxEtTgoEgeSFNiyd9/gp+rqrt95JFfetPehcyorpvx0bGx4oSjhnEVBEAeUgApmIgGua4KsSKSfSbS61QwAUMG2pO29HeEvVs1Yvv5IzpP+zuQbARSsyc1NFPMs86EZ9VOvdFyzVhC4LJZjJFPXiCqmz6fC6NgwZObkgWuhZgdDmEa27YAgyqQSmmpZ0oCechWk1GK6q6XrOWUNvc2ACAWTANdiFyysojIsKGo2mBo0Htjfcf2MuR/efDo+ldMyoB9YvVpS66X783JDl3uuHgKgGQ0J0JhxkwdPLUexPJ7quVBwBX6QpX5IOQ4nBZZucGfJMskejoc9RwYYIrNpEslNy8IJhP0dDlfeYeCF4f7enp1xTX+qd2BsY08P13+6oyxPx5fkRN7T1rWPZhTX5d+l+uwreNYOCZxIMnNSbieZRtLn3BWIBwF+ENwpq2prS1P3T3Uz46GUGMfhrnv79pW+ouzAV7NzAtfF4qNVgUw/gGtBNDpGkPKURuSAZetE9AhpbLG4DYqUFevtGXuquyX8n+cs/cLA4c6T/u+TewRefvmx4mk1lUttV7t8SklpHbBOCBwrBxMkTJRwIxmNUuU3lpdAj8eJNjxZiYkgV2pdPgS2OwiEw4CO7U4EQqXWbmRppIRmWCfZFkVAHlIz5dGxEf2p3Qe6v3Y6qmqelgF906aVFWedOf9Zz07Mcm3joJMQUWZL8iFJjxxtU12cCBREgZOArpFJP/QkcINm5jbwAhBaGwG22Ug9w24mdbKSRBlX2zDLCRqwwkh4ZPRvnV0dT1tR88C885YPTu5XOn33RzoCu3b9bklNdfH9pjlaK/AOcfzDiUYVBV1ArCblimNvEfvqHmpp6pwk/aOxseVzM2fe1Hmk58LvNbz+QNWcedPus+zoRYYZ40JZAaKpgP7WWILHvqdhaKAq+LdFzIB4TgEt7u3t6de+NnX6x1YfzfnS3528I4BS2YoAtYWF+Z/MKSg4zzVj2QBGQTQagVBmJjiWBRzpsyPok1ZQKV7p/+pnIe4Jq6fM23vn/yege0StU1YUIumtaTpwjIrvzu7Ozv6ra+sv3na6PY3TLqCjUcp5i3L/K784+5bIyGCuX0GeLpVcJQE9VaohyErshacCOoIo0EgAazupgE4pbFjqxIBOFeQcwiEXWR8IkoI/Q6uhCADXaWrG7sHBsadauge3OE5k9HRGU55uL8KpcD8NDb/PqajKeFDinQ9L6BWEVSHUXUffaoIGZgBQXJvMZQoWQkMV23E3NHUMfr2u7vNvHMt9NDX+/n1VNcU/1vSRMxjGAVHiwdApBZNUAAioiS6saJeJ1DjFl+X1dAy/sH/v8C1LPvSF016w41jGNf07/3oEnn/+ATUvmJlfUJz1gVBQ/nAoN6caLD3HRnQ8EaZBB0zqrkpAce+gpdFjoh0MSb3eBph7+9mISQtZ6+nxsBcvCKhFj2h7Md7b2/er3p0d3z3dLKVPu4C+efOqqXNnVa+0TO1MWZEZz8LeI6q1UVCFQzi2SEVDKhkCJbC0gy4CSPd2aEDHyeIRPm/S5hQnFpU0xF0hZiksow4Bx4/GIyP7x6KRVyLD8ef7x/p7lyy5KZZ+kdMjcLQjgIpw+5t+f01ZWc53PEevxjY56lWLvEdoalj+xsXNY7BCxJB5iqwcgWFbImP2Pa9vGXrwWG1yt69Z6cuolW7JyJS/ovrYXGRjcCCQsrthYM/eBdOKkZ6nbRnE+8AyESAaHGxuG7onHLX+d2HavOVoH3n6+wCw7oXfZQbzlWK/T7w4Nz9nmd+vFDOcW2DZhg8TJsvQkuNEgcp0faZodiIZixXSg0C5VCZPf4brNTG0iseJ8Bd+4jED/KEQuKa9c8eOA9fOPevq0ypLP60COuWdF9xWWJT5GZFnCnFhEniZBHPMqmnJHSk/yFFMli5TAZ3Y7x3qtZOAjn121Fb3UNgANdcFECTfCIAQHukbe7W7t/83Y7H4/j17tKEbb6TmLelPegSOZQQaGh6dVj015+dGIvy+YEDhZaJ7EAOW4D9wznpEpMMlWv9UBAnnpsBK67Ztbbp27tlfeU9ZMpbe6+dW/9Z2o2eLqPTlCcQDG0FKsiKCbqA5h07MOfCDXSiXkcE05C37m3u+uGDBJ46pOnAsY5X+ndNvBHBDu27d4wUZAWVueVnZjYGgOstx9GzX9QLvLLkfsmkloZ2YaL0tkJN8LGnQkszyKVOJ+r2j2RXZsPL8aGfH0C9H9nnfn3/ppaldw4Qf2NMqoG9+/ckZ5TW5KzOzAnNdxyCodIFHf2gREhqNtwyHqHXMuBmwLQt4ToaEFgO/X4WEHktJDYKZMMEfCIFp2SAqiuFZzgAAO2La8EZbS/vDg2Ox5sWLr/631KAJPzvSN3BCRmDt2rszaqum3JmVo1xuW+FiSWbBQYAl8sFTpUWWelEjXzyW0EDgJZCUjK7e7sTdhaUfvvu9aqxjq2ruGcyNFeV5tzquUezaaJghJuVgD2FMUgPCujxhinieond3D6/u6u398vnnf/qo+vcnZHDTJ5lwI0C82nOVucVFBZ/3h9QaMxHL4Xm2lEX8G6LhWRZMPUHAoKIsQzyhgV/1EQltnmGTol80iNMP3QSgzoKLbVZswbrIcOJ2bt3S+Kmzz/vklgk3SO9ywadNQF+7dpW/IE++beq00s84rpaLyFzMqJGmhghKRfbTEjvqB6N4BotSggLxjMbgrkVj79AgJgYpHjMKHt83MDjc5bnsq8NDo8+MasOdaf7t6TL9T437OLBr5dLyqqKfRaKD9T6VA0H0QEvEiQufRXrZ2OLhgRckQpVE0G8soUMoo+TVbQ1dN8xdePWB43EnW7b8rmzu3NqHR6NDF/IeA4qikkycZkDEI/Og9DG2o9BkyHHQdlXu2rFz33cHR/p/d6xl/+Nx/eljnF4jgGt6lh+Ki0pKrs7JyXyfZSVKGdcuMIy46Ati4u6A7aIEt0CwTZiZ4zruz8oCz8CEziEubrQyS0Odx6A0bBIR77HDvf3Dv23vGrrjdEnOTpuAvuHVJ+bOmVf7qOJnZhv6GCmTIx2CZUSSoTs26gVrEAwGiXa7Y2MZ3aEgNw+FYBTQEybIqm8EWE4HlzO1qLZ1cHD0T0P94XUgj/amPNFPr9cmfTcncwQ2b36ksiTPf48osx8MZcgCAxbE4mPgV2VwHBsERQUrkSA0HvSeRoS5oTsoXLS/vzd270jcffBIaWpHcp+dnS9+qbA482aOEapMYsN6KJiTCldK0IE0M1EEBAF6qILovrl5a+PnPvjBz2w/kvOkv5MegSMdASzHb93w+yn+jMAHq6sq/x8jcDNtI+HnBS6ErI9YLEzCNU5N1e+DRCwKEk+TN4JxxoD+Dr92HvO4ZPVJ3bd5a+OnFy26asORXs+p/L3TIqCvW/e7zOKCrHsrqoqWRiL9ObKCD5MKwGhxHVQ1AJZJ/40LUiKRAFWVCYKdBHYHbFESBxhe1OKjsT1jsdirekxbow0numely+qn8vyd0Ne2adNj2SEf982qyoJrXM8oimujkJnpIy59jmmBz4cmFBQQhyUl1DhAq1RfqHh0uGfo2bbmwdvmn3dj7/EchI0bf59fUVn4I79PvBw8I8gjsp6YXfzTJxnQ0RdBFFQwTE/v6h58uqt38FtLllzTdTyvKX2s9AikRgCpb0FFLM/IDC0PZQTO4QWvlGGdfMYDiegmOC7SQ8C1URMEwEFRGfwkNWcOys4ib8RmQVJztY6m7pfaegZvPv/8qyZ8y+i0COjN+5+7Ii8v83sMY9fJMk80qEmwdhBIJJLMhpYsBYijb7kkAC8yYOimJkmBQdv0miPh6Fsjw5Gno7reHA7njqbNUdKLyHiOwNq1K/icnLKrZtTXfjsWHqhBwRhR4oiCFraAeEakJhYcgCiLoMUixKBC1wF8as6mvdvbb6ibf2SKcEd7H1u2PDt9Zn3ZE8Dqs1xHp+ZCB2M6LWFSuDELIieCYaGRhow99cE9u1v/eyxiPnY6inYc7Timvz9+I4BKdMFgODvkl8/Nz8+8XJSEGYGgr8QyzAzLToAqy8SalfVcYDmqAkqkk4lYDb0u2+WBcQPAsGr3gQMdP/O46H3Hs9o1fnf/7kee8AF9w4bHisuLMx/MyPKfKctiLioPodkEUnyQXsNxEimls6xARAp8ARU4QQnr2uigrPo6e7pGX+zv6P9DX3i4L93/OxlTcHKec8OGe2fOnF39K3CscywjBgiEU30YuOOU/22jBKYNLkZSBt2mODDRK4DxNfX0Ru8c+f/sfQd8nVX5/3PefUdu9t47aZI2XXQChrIEkaVVhiiyFVFUfuKu+ldRUAEFRZChP8evMlS0WimUlm7apulKm6RJmj2andzxrvP3OfempqU0aZsmTXrezwdbe9/3jO957/2e5znP8316B/94to6A9u1bqXhc0XfHxju/RIg/A1A6eUTxIoywH75EJkwrgmljPXYNhoas7Xt3V9174SW3TNsCGOfnG3tuzhrd8a+99lRUTkZScUpq0n3hnrAZgmhFW4aRRMEAQrHYEKaw2WBa/pDnFuuvY5aIAnpABDUswew/0rt57+7a25cs+/ihc3OmYxvVlCZ0rPJTuTvvgazspPsoWHmsmMTQALjDwsDvw9KlEls0zNtVVbdlW7RdUF39PZ3tu72+oVWd3d3rLKu/+Wz9MI5tCfhd5xsCq1f/1jWjyPl9p9P+qCfMkYTiMZaJFfmC5SVZickAFqpQQHI5oK+rExSHCJoaNmiY6uryXQ1fWLjwrrPq1l637vnUeXPzfyMI/ktBCBAsC4zuymEhj+GzdAuzQNzR0NXRAZ7wGCDUMVhT0/jXyurGL95wA5eFPd/e7cmc7xtvPBMeHxmf5vQ4r4uLCb/c5dZS9cBQsiwLkkgsMEOZTyi+yI6SsNy17IHujh4I88R0NNR1PLuvuvlH1157x8BkzuNM+p7ShL5p0x8KsjOiX4yLiygZHOx1Opway5VlNctllbnaRUEzJTWsA8DhO9LW/u/uru6YrutgAAAgAElEQVQXhrr99bMv/OiRM031ORPg+bPnLwLr1j05+4IL8l8yzd4SEY+oBZR4DZaTRCU2jPVwKGEsol23dBbc6Qv4QJSdO+uqu79cXHrH2olAb9ee//1QTlb8jwgJzGAFYhihB/8cjo3DGBQRN86CBoaF6XaYzqbW7iqvuuPCspvenohx8j44AiMRWLlypZIU6U+IjHFfmJKW9EmnJhZKCokA23CzctckWM0D5WPxWFZxhUFfzxAYurirob7zk3MXfmT3VEV0yhI65s3OKXU+HB8XfbfLqaQZhh9sLHaPwm8EZf5kHyFqK9ikb3Ag8G57a99LHT3eA4sXL++eqovFxz31EViz5hfRKcmeb2Vnx95EbW8saiUwoSNUvKJBC1gQgiqFw8V/8AhJczlb2tp6/tB0sOeRBZfe3zURSLzzztORSUmeH2ZkJN5k6AFPIOADjzscLEtnKUN4hBUMNMWxygACSmvKYFmK3trWs7Ji757PXX/9g70TMVbeB0fgeARWrFghXHlxTlJYpPuy+KTYG6JjY7L1oT6XJEMCtUxFlJH+dFbTwx9AtSatu7a2+YWOI3seLitbMUJlbOpgO2UJfdvaFxLyZhX8KTwyotTwDoajqIAoE58kCToR5RZTD9S1t7ev6en0/6utu6+F1x2fOi/ldB7pW289Nnfxgpm/Nc3eGUxAxsYSkcFAcvQsYV1nPCoKEjqFgSEfSIoKmiN887aN5Z9eXPblAxOJT3n5r0tz89JfoLZe6tBk6D5yBKKiIsA7NMDkNFngHsVAVBEk0Qk2VYEIKvT2+KqqDtbfuuQDt07LMpUTuQa8rzNDAM/ZN216LVYVzby4uIjrU1NSFoNIEmxzKNqGwTC01DHeCjUVDF3cun7D5o9cddUDZ/VI68xm9P5PT1lC37Pr1XuLZ814mJp+F0GfJKU+IEp9R1vrxvbOjpWDg1AXCMT282j1s/Xq8HZPFYG///1nWfl5UT9LTYm6iBA9Qg94WbYFc2GzoDOBKcMx4QtWf8AGIqogSo6mhqYjP6mtP/CLibYcVq9+1JWQEP71mTML7tIDQzF4FhlUWQwwCx3P+VF1i4LEcuRRPU4QnKAHiL+ttWf1oYMtD1z24dsaThUrfj9H4GwggO742Fg9LjosYlFcvPvm+CR3DoVAvG0JkQGdgkPz9NTUNj2Wl3flj89G/2e7zSlJ6JiycNGSlL+ompCFehtHujrqBvp8/+zo6nu5oUHqWb58eSj58GzDx9vnCIwNgZUrnwkvKfI8GBen3uUJE5MoylTKAgQMb4jQJUaMIjufxsA4LJkKYNmoxqa+vX9P66cXXHxX3dh6G9+7tm59NjMtNeYVd5g0W5VQxa4f3E4sQ4npQKjQIaGMJkiSysZLQcXgOOgf0Fs6Ogce3bv/wHPLl/OiReO7Kry1M0Xgr3/9TViYMpAUEe/5aGZ63pURUQmZlFpCd9dA5eYtO5Zfc809R860j4l+fkoS+s6N/0jPzst4wrB9za2th9d4A4Prvd66vom2XiZ6sXh/UxeBNWuen5GbE/n7xDi1VJZNMHWs7mcCRTEMDIyzVXZmjlrUWN3MtnUWsOP12g0d3eajFXvqfr18+YpJ2aiuXPlTR35u1Dczs+Pul4geJkoWq12NlyhKTI1xmNBtKoNpYcooVmrDjYm2dW/lwVuWLLl+SqcDTd03j498NARWrXpSBQCPyxXx4Zyc/LLExOT4vRVVP5s5+5JVoz17rn0+JQn9jTfeCHc6B1RCzIHFi5f7zjVQ+Xg4AscjsHPnH5eVFKf+wjfYUUCIH9wuB6DLHYVjmL60jQFlQshCt8AGH+imDd5BunZ/dds9F1/8P+Oi1366K7P69ccKZsxK/XNslKtYkHRG6Kqqgt+PBY4UsGwBZFkDICojdKAq6DqArHgqyyv237l48XXTQlrzdPHjz00NBND763INJoWFRdtz5iw7PDVG/d9RTklCn2og8/FyBLZseSE3Lyf+T24nzKHUy6pGqWEqBFD6DSQAZqGLIAk2EDJM6CYcrjvyQkun+eBllz3cN5kovvrSD6JzZsU8l5URd52sWoDnAUwrm0ggiCqYBkpuKiBKTkboKKup61i/Wtu5q2LfjWVlN51RedfJnDvvmyMwVRDghD5VVoqPc0ojsGHDb8IiPPJ3szKib1EVGmsGBkGUUAWOBEs6WgoLikNVK0JsoLYXAoYJvb3m2oM1bZ9YtuwbzZMJwOsv/zg3ryj5D4mJEfNcDgnsYBk2EEQFBFGGgE8HECWQJZTcRDJHaWUYauvoeamhseurV111a/9kjp/3zRE4HxDghH4+rDKf4zmBwMaNT5XOKcr9LQV/CbEDoGqYmmayM3QscsIqQFEbqGCCQEwgggwicR+q2NV4x5wLPrNuMiexcf0zV8+bX/QMte1krJMgEWDCTZSITGYZI/JZuUpRAlHSwOe3wNRJZUV55ccuvuzWPZM5dt43R+B8QYAT+vmy0nyek44ASlOmxjq+ll+Sc4+/tz2cua7BwrpPQCFI6CDQYF46BsoRVF5TBgaGhL/t2dt0b1nZ5ESKr137gpaZFvFsembaRwJeXVMULHgU1N1AHXdUt9M0hc1jyOsHhxYGkqxZe/Yc/HnD/qbvfuiWz/RMOvh8AByB8wABTujnwSLzKZ47CKxb/cTiiz4w7/dgDWTYdChooY8gdExBRwuYEMqi3v1eCm5P8p4dO2uunzfvU5MSKY667hddtPhv3sHOUhld7IIAoiSAHgiwlDU8KkDFO0mSQHa6wPQbMOQ1mnZXVH/qoktuevPcQZ+PhCMwvRHghD6915fP7hxDYP2/nknMyYv7Y2ysfDGlQyDJWNjRAtMODpSIKP0aLFFqW2gBK6CokW3VVa1fyiu86Q+TMZ26mn9dGRvr+ZXL5Ui3TcrKUJpmgLnXLZMwcRlWntLG/6WgyA7o7fVte3vD5htvvHFqKm5NBs68T47AmSLACf1MEeTPcwROAQGstJaVqn4zJzfqLiPQFcUI3bbBRDbEUqSiwNLX0Dq3bQpIoC539EBHR/+r1bXVn1u69CsTWglq+/Zn5Pi47J+lpCbdHPAORkqCyORqMXAvuPEQQCASO0+XZRlsSsDn0wcaGtp/X1Pf9j9TuXLVKSwrv5UjcE4gwAn9nFgGPojzCYGKHX+8sKgo6iUK/ZmEGiwQzmIB78GSjkwbHbXdbQKawwG+QSwFrO7csbtm+ZIlD0yo2x3d7bOKC14Nj4qYZ/j9MDQwCOHhYUBECwIBL6iKG4YGfeBwuFi0u8/nB0dYTOPaNW9/7pLLPvnX82ld+Vw5ApONACf0yV4B3v95h8Dq1U+lLru44I9D3qYlTlVh1QGZlDvWQidooUtAQsVZsNKa2+0GIkhteyvrv93V1fH8RCoi7tn12vLi4pxHh4aG0pwON1A7qGJnmF4QMdSdiiAKKtOft0yUqhXAMO1NW3dU3XTZZcu5hvt593bzCU8mApzQJxN93vd5icDrrz/jzM4kX01LC7tHkUksBsANXyihysqmUpFZ7FgIRdd1PFPXe/r11fv2t9x7+eVfaZkI4N555/eROZkJL3o8zqucTrfkHfKDJIogCHhSrgMRKBAInqNjpLusuFAGtnnfgUO/qKoZemL5cq7iOBHrxPvgCAwjwAmdvwscgUlAYP36H88pLc140alIJUBMFiUuykFyFAQZdD+WVRWAUBNkTWYjHBgwDtQeOnLPnAvuXz8RQ9658w+LSooKXgRq5YEdLOfKLmKy4jGAyXaYRI8pd6BgqhpYhrRj47vbby0ru3lCy7xOBB68D47AuY4AJ/RzfYX4+KYlAqtW/SC2uDjlV3HR7mskyZb9ui+oiW5RUBQVMCndtk0QWfAZgNfrBVdkQlfD4d7n9+3v+H9XXfXAWVVew4IV+bnpP0hJTvgUAEQFy7sGa7bjEQHGs+OFYzUDBlhUBkLUobq61pVN7QMPXXrpDV3TcuH4pDgC5zACnNDP4cXhQ5veCGzd+uTVs4ozn+jrbc+OiIoARXPAYH8/aJoGpm6AKApM293QdRZB7vXaYNlhG3eVH7r94ss/f1aLtWx956W8ktl5fybUmsnqtWOCfIjEgxruwSMBagZrog96TXC7Y2r37K25b9bcD75BRp4jTO9l5LPjCJwzCHBCP2eWgg/kfENg9eqfpF64qOBF2/JeQokNTqeTKbBhoLttmoAR8KiZrrpc4Ov3gSM8DqyAWFt/uOu7jW2Vvz+bwXEHDrx8b0Za4nds045D178gBH8qMAcdI/gIaIzQZU1gmw+BaNDeMfjPyuqmu5YtWz6puvPn23vE58sRGEaAEzp/FzgCk4TA2rUrJImqty1eMuf7/f39CU6XBooiQf9ANzg0kZ1ME0rB1FHXHQnUATZ1+ETRsWHj9oo7Lr74s41nY+hr1z6VMG9eyUuWEbhcUxzB4DwWuIcSOBarCkeom/27ERgASVVAJM7mXXuqvl572P7j8uXLJ6Vu+9nAgrfJEZhKCHBCn0qrxcc67RDYuPHJ7JyMuBciIiIulCQBAvogADFAoAGQZQGl3Vk6mKhFAZgSAJUBHO7DNQdrvpxbcNPLZwOQysrXbszJSvyBINp5tkHYubkAQYlaG4kdx2C7WJqdolIwLROOtA+8Wdvcec+SJR+f0Dz5szF/3iZHYKoiwAl9qq4cH/e0QGDt2hVaQnTiFzKyMz5v21aCaQyBJ9IFhrcLbKqDYAsgChpQSwNBdILXa4LmdvUN+gb/ebC8/v4Fl94/rsFna9e+EJFfkPwbt5N8SJZlRRY0Vvscc88p4M4iKEdLzbBgdLs1AFqYu+PAnkM/3lN1+Only7/omxYLwyfBEZiCCHBCn4KLxoc8vRBY98YjJbMvmPW8osA8WTTB5+8HVaVAqAUYXY610kUBCRQD0wQwbAqWbW4/eLDls6Xz79w2nmhs2fLi3Ly8xOc9YY6ZLLLeEQ7UtMA0dQBiAaDWPFEBLDfTbieCDt09feVVB2o/efFl9/AyqeO5GLwtjsApIsAJ/RQB47dzBMYbgXfeeToyLTXq55FR0g1OjThMyweKTCDg8zHrnFD8T0G1OADJZJKwPr/VOOSzX67Yc+ibV1zx0NB4jInSFUJtbeEPo6NdtzmdWgJqzBMqgSKr4PMFWDU1rHkuS3iWr4BpUBAlcaCzo/svew/UfuHKK+/sHo9x8DY4AhyB00OAE/rp4caf4giMKwLbNj91zcw5aY9RcygPCd3pUFn7VgAjyiUgoAbLrArBOuSmJQV0Q9xUXrH302VlX60fj8Fs3PjLuFkzc/8oSsYlNrXARPU3UQNVcTIlOEboJqrXSaAbeJYuASHSgYod+x9Y+IGb3xiPMfA2OAIcgdNHgBP66WPHn+QIjBsC27Y9n5qZGfXrcDdcqZsDoMoSq8JGbBEEgkpxAvv/FtGBgAiCqAElyv6d7+75/KILH1ozHgPZsOFX8y6YX/B7QTLyLAPV62wQbAVkWWFeAbbBQO12JPSADaKkmYKgvrFhy867y8pubRqPMfA2OAIcgdNHgBP66WPHn+QIjBsClFKyu/z5T+QVJHxHcwgZ3oFukGURAGuiM1GXYJlVTBvDvHBRdIAoqq2NTR2/2/pu7TeXL19xRqliK1euFBcvdHw7Mlq51zJ9sdgfErciOFHrlW0iMEeeCiLIkgamASBKjpaq6sPf2HfA93ueqjZurwJviCNw2ghwQj9t6PiDHIHxRWDjm8+lz1uc9bLf1zlPkVEp3QIRgl/RYeE1NJSZSht+IsheAGnHth0NH1my5L6OMxnN+vXPJM4tzVtpw8BSVQ7WZLdtAhLRWPCbIAYJHT0FiqKBDSIEArB92+aKm8quvLPmTPrmz3IEOALjgwAn9PHBkbfCEThjBFav/q0rL1d5Oi7OcYssUtEyA0zQhRVCIUHLnBKslR7MDUfSVVRn1e5dtZ8onf/AGUW7V+z43YUlxRm/1o2+AlSDU2SUn7VZRDv2J8nBAjGoNS8IEhBR6W9p7nqppqLlW2XX3957xpPnDXAEOAJnjAAn9DOGkDfAERg/BN7d8qtr587P+3nAN5AKNACSQFk+OhFMpsxmUxVsS2AVz9BSV52RbV2tPf+3eceBr11zzQrv6Yxk38qVSths+ycej3az2yNH4QbC69UhzB0BpoE1zyUWEEckCQwd5WgpqKqrbseuyjvmLbxl7en0yZ/hCHAExh8BTujjjylvkSNw2gjs2PFcTn5e8p+Irc+VZRuzzsGmASCCwdzdlq2BjQa7YIEoiiw4TVMjN5bvOHjH/KVfOHg6Hb/7ztNZaelxL8YlRFwYCAyw1DSnOxL8/X5QtDAWEIebCUHRIODzsnQ1lzP87bc2bf/UsmV3Hj6dPvkzHAGOwPgjwAl9/DHlLXIEThuBLaue9OTMzXjJ6SDLgOphmkqBgg429bOzbLAdLI2NimYoCh7lVz01lZXNj3X0tP7mdAq2VJa/cFdBUeaX/UPdeYoqMPImBGubo3UugygpAAJa5zoYpgWK4uzp6h5cWb+35X8WXnXrWS3jetpA8gc5AuchApzQz8NF51M+txHY+e6vb5xVmvdd0xiYQc0BEESLWeR4Zk5thRE6pq/hObomO0E3qQ+o9ub2itr7lyy5/5Qs5rX/eCph4ZKcF0xjoMzhFFVREsDvC4CqhAERHQAmBsehcwBzzgXwBwxwaOGVu/cfvGfW3I++c24jyUfHETi/EOCEfn6tN5/tFEBg7donU/KyE572hMkfdKiWFHS3U+YKty056P4WcCI2GBYKvSigKJ6qvbtrv1ky9+6VpzLFAxX/+5H8wpQVtjFYZFpeUDD/3cKzehkkyQmo+CppTrAM3FCgkLvsO9I9+O/dB2o+c/nld7ScSl/8Xo4AR+DsIsAJ/eziy1vnCJwyAitWrBCuuzrllrz8xG9Kkj9XJCazxpHQAVXjmEsco98pGBYFTXOBIMjdHW3ef1ZVtH/uwg99pmcsnW5/45nwxIzop6NjtGtE2Qyj1ABZloDaFFPSQHOEA1gy+HUbNM3B1OEUZ0T93orKr1QeMl5Zvnw5DohfHAGOwDmCACf0c2Qh+DA4AiMRWPfvJ3IXL535UiBwZBG63MWQVY6pa3hZlgGmaYOsOgAz2PDvmhJevntPwx2l8+8sHwua2zY+VTp/4dwX+jobSsPcKggKAf/QIAiCCJKE5VFloEQDUVDBYMpxEmhhUVu2b373lvkX3lI7lj74PRwBjsDEIcAJfeKw5j1xBMaMwOrVj7pSEqJX5ObEfhqIHkVsArZtAhFs5m5H6xzzwy2K/45WuobpZU3NLX2/3LK9+rHRlONWrXpSnZEV8Y3kpPjbDdOb7AhTwQoMgWEEQFEcAKCCoQMoWjgE/BYIqBonu1uamo78bk912w+u4sFwY15LfiNHYKIQ4IQ+UUjzfjgCp4jAhg1PLrygNPsFIlgFAhXAtHSgto8FyAkSarxLYNoC01o3DB0UVbP6evxv7N3VfM/Sy77QcLLuNq19rKB0Vu6zDk/EUss/CJbpBdMKgDPSA7bfBL/PBlVxAxGd4PeZ4AyLABAd+3ZsrLht3kUf33mKU+G3cwQ4AhOAACf0CQCZd8EROB0E/vWvn0bNmpHytNMp3ODSHLIg2mBbXiY0QwmGxAkgEQW8fj+z0Jml7o5qOFTV8pWc/Nv+dLI+q/c//2BOXuqXDK8/2dD94HAKYNoBpkZnmQLIUhiz0LF8q6g4AWyhta6x/eWqurYVvEzq6awmf4YjcPYR4IR+9jHmPXAEThuBTe/89MpFi+c+4+vrTtNUEQzThxlkoFt+UFUVDL8FmuYEPWCAgFXRiNAjCWE7123c9ZGysgdPKMm6du1jMQsXzPgLWN6FMigigAmm3Q8gWiApGNkuAdU1UGRXsMqbJYAUFrV/26bymxdc+ImK054Mf5AjwBE4qwhwQj+r8PLGOQJnhsDf/vZI2vxZWS9GeNQyzSlDwDsIkiqATx8AWZZBBBkswwYiiKCoDvD6faBpEVW7dh6+bu6iuypP1PueHU/PzC/J/LupD6RqRGPCNRbtxyQ4IKILqKUAMV1B61xUAGSH3n6448+VTb1fKCu7+ciZzYg/zRHgCJwtBDihny1kebscgXFAYOXKFUpKrPu+RYvnPBTw9SWLUrBQC4gAhmEABstpigMoEAgEAoDV2Jye1JZ9uw98tXjWHb89IaFXPHtHcUnad/1DfUmaqIJlowt/EFhxVlSGI06QwA22JYGlW6C6o5rra5ofyii67k9kuOzbOMyNN8ER4AiMLwKc0McXT94aR2DcEdiw4RdFpTMyXnI5hLmGOQSG6QeH28EIXQQRsBgbErqsqmBaBvh9Vr9tOf+1fsv2248v2LJy5YqoS8vmPK+qxgdUhYQTC/PbdRAkAyxqgsHOz92giGFgBCjIqhNMP2zbtqPy5iXL7jk07pPjDXIEOALjhgAn9HGDkjfEETg7CLz22oqIpfNmvhgT77yGWj6BiBbYQKG/vx8UUQGn0w2mYYFuBEB1qiyIzTdo7dy0fs9Nl179taqRo3rzXz+es2TJzOcESZ9tGl5QBJGVZ8Vcd4vaKCMLkugARXCCjtZ5eHxvb3PP37ZXHn7gssvu6Ts7M+StcgQ4AuOBACf08UCRt8EROMsI7N7xm08VF6X8MGD0JaByHLrWsdoaprPpug6KorHcdJuYIMtYw1xtOVjZ9JP/e7Xl8RUrVqAaO6xcucJdlJfxUGFh6t0gBBKoHQBimSgqy5TnLDtY7xxrruPZPAbDqVpE9aGatttzij+28SxPkTfPEeAInCECnNDPEED+OEdgIhB4663H8y9eWLLSgv6ZQAzmbscUM5RkDXi9jNCRlE2qBwleDqMBv7R9w9r9d115w8MsMv2tfzy+YMGSwqc1B8xBfXjT8IMk2IA/AliSFa3+YFR78E9JdILgiNy6ee2uGxcvu695IubJ++AIcAROHwFO6KePHX+SIzBhCKz63297ipcUvJCY6PmQoQ8omHdumAGwDRM0lwvAojAw0AeucMxHt1kOuSx4+vfsbniusnzP//MpGplXXPDtWQsKb9Z9PTFI36JAgVADBELAMgmTkBVEMaQZL4DsCO/o6vC9sm1X3cNXXfUAL5M6YavNO+IInB4CnNBPDzf+FEdgwhHY+e6vPz57dvb3Bgc6c5xODWwzKASDF8rABm1snf3JwuBtFYYGpENPPPnL76iqatz2yZu/lZgcVejz94GmKWCaBkhYV92kzL0uCgpri4nLUABRclbv39d8X9GcT7054ZPlHXIEOAKnjAAn9FOGjD/AEZgcBNb8/WdZsy/IeVEUfRe6VAkkGXXcg3XR0UXO/iRYapUVMAegKgz0WbDqH2tqVUWxLrpkSa4nQgXTDDBXPcrFOjQCuh+J3cHqrWMlt6EhH4iSYtlUW7ursumOpUvvOamM7OSgwXvlCHAEjkeAEzp/JzgCUwSBlSt/6igqjHkkJyvuFkWyoqnlZ2IwQGwszHIMoaMbHaulge2Cww3NIEkSJCTEAhGDFrwoq+ysHc/QLdMERXGD7jVBcaoQ8AVAlBxNh+t7fnWopfXxK654aGiKQMSHyRE4rxHghH5eLz+f/FRDYNP6X15QVJT2jFujpaY5CKJiB4mcSsGpEIMFx7EvNhVBABfYtsDC3bCoi00DwVrqRGZn5bJIQddNUAQVTAMYoVM08olz2+Z3q+5YUnbf3qmGER8vR+B8RYAT+vm68nzeUxKBNWt+EZ2REv10VlrEVYbR50ZCx6x0wZaDfA4moHEetNpFMA0RZMnB6qfb1ABJISxNDYPgRBGfsVkQnUglIEQEM6CDaUu9Ign/+9q3dn/+yuVf7J6SQPFBcwTOQwQ4oZ+Hi86nPLUR2LjuqctnFSU/5vJAiYXV1whlhI6WOhI6040LsjoQwDrpwdKrgkBB1ASglgWGTlm+OhK6YVhg+HRQVQdImgNsP9339rryB5Z9+JtvTW2k+Og5AucXApzQz6/15rOdBgi88sq3U5bOLXjR7aHLNCeABSMJHQPirJDLnYBAHCwCHmVdCbFBkFHq1WQlUtEiR+scU+BQqcbv9YNAITA4ZG3Yvb3pU2U3fqVpGsDFp8AROG8Q4IR+3iw1n+h0QQALtuSnR305Ny/xflWzE9G9TlE6jkW2W6EodzTUJbBNACIKIAgEABXmmEteQOV3oHYwqt3v94NDU1lwvG0JtYcOtT9VUdP2i+XLV2AEHb84AhyBKYIAJ/QpslB8mByBkQis+eejMy+Yn/8bRTbmKbINNjWZFCwlNphYTpUgYQMQKrB/YxXaCLrjkeiRyGV2xq6bNmrDgSihZKwG/kGyafuW2tsvvPpLx2jAc/Q5AhyBcx8BTujn/hrxEXIE3oPAay+siMidlfx4UVHGcsvoc4ioI0N1Ji1jhQqsoKs9mKOOhB5KbwsROqa0IakLksKi3y2zHyTZ2d1Y2/3ijv3937v++gd7OewcAY7A1EKAE/rUWi8+Wo7AUQT++bfvzr/y0kV/NIy+bFklrAwqi3m3AGTZwTTZg2IzSOroe2c1WpiFznLUQQATuV6gAHYAFNlxYPvO+k8sWPrF7RxmjgBHYOohwAl96q0ZHzFHgCGwatW3PbOLilYmxDquwPzy4Bm5xc7TBUEJFVnBYPf3J3QQg9KxsghWb1/gn+vX7L7z2pt/0M4h5ghwBKYeApzQp96a8RFzBBgCa9eukCJd8V+eNT//f4zBrkhRYg73o0IzQX13vNAyR1P8vRY6RsirqgqWYTfv3lX1zX596HdlZStCh+0caI4AR2AqIcAJfSqtFh8rR+A4BDaueXz+4g/MXGn6ezOIgLXNDaAYDUdFlpY2XLTl/Qhd1oJ1zwN+e/vOnbW3Lr3kCwc5yBwBjsDURIAT+tRcNz5qjgBD4M3Xf5pcUpr+56gYbZGBUrASyrtaINhI6CQY5c7O0YNWOsXUNmgQmiYAACAASURBVJbeJgbP0DE/HVTdpo63N7y5+xNX3PBQB4eWI8ARmJoIcEKfmuvGR80RCLrdX1iheQrjvje7NOcmX6A7WVFpkNDR3Y7paRgAx7TjgvnpxxO6N+CHsLCYhoOVLS+198APyspu93NoOQIcgamJACf0qblufNQcgaMIrP77Y3MvvXTer3WzZw6AHywrACIhoGkusI3gubkgC2CbJstRlyQFbCqAjZ55gqltjm2bNx647ZIPcnc7f604AlMZAU7oU3n1+Ng5Aiza/UlPeqrnWzlZcbcbRm+UK9wJ/V2doMgaSALmm2PUO1ZcC0bAo6sdCR0rrhEgHYebu39ZW9/xKC+Tyl8njsDURoAT+tRePz56jgBD4M3VP1k8f0HBC06HlcfKqkKQxC3DZn8yK10I6rcbhgk2FUFSnFj3vPqt9TtvXbbsi9s4lBwBjsDURoAT+tRePz56jgBD4F+v/CwxtyT2yZgY+YYwjyIEhrxMChbP0BmxWxaIImGEHgjoQAQFFDUs0NnZ9/qObbUPXsULsfA3iSMw5RHghD7ll5BPgCMAGMlONq5//OY5s7O/p2h2phXwgSRJzEJHYjfNkNY7BTB0C2RVAyCO1n376h7sGWr7a1nZCh4Mx18kjsAUR4AT+hRfQD58jsAwAuv+/URu7oy4F8I90hJVIozIdb/OiN0wDJAkESwrWJlNVpzQ16+/vW9n3T28EAt/hzgC0wMBTujTYx35LDgC8PrrK5xJCRGfLSrKfEgVaKw/4AORiCAJQQudETtWV8MzdSK3VFW3/qimsfeFa6/9ygCHjyPAEZj6CHBCn/pryGfAETiKwLo3flSYnR/7fLTHuVBzOsAOGIzATRMtdAl0dMFLGhiGvaF82767Fl/xtQMcPo4AR2B6IMAJfXqsI58FR4AhgAVbkhMiv1WYm/oJWZXiLL8ONpZfIybIDgeYeFJO1L7uHt+zO/bu/d5VV32nn0PHEeAITA8EOKFPj3Xks+AIHEWgYsfTC/Nz458RwJwpAAHR6QTT2wOUYPqaBrLiqdu4ufyTSz/wP+9w2DgCHIHpgwAn9OmzlnwmHAGGwJY1j8dn5kevjI11XWSbFni9XgiLDAfDFwBZccDAoL39wL7mGy64+LONHDKOAEdg+iDACX36rCWfCUeAIbBy5UpxdnHv97My4u7WA75IjG6XnC4IDHpBlNW+zo6hP+za3/ngVVc9EOCQcQQ4AtMHAU7o02ct+Uw4AkcR2LnpF8tmLyp61t/Xnqk5HGDoNpI5CILcuKfi0L0z59+7isPFEeAITC8EOKFPr/Xks+EIMAS2rX0qIa8o8VWHU1iEGu6qMxz8Q36QJeeGdZtQ6vXLhzlUHAGOwPRCgBP69FpPPhuOAENg7doVWkpc9sM5han3mfpQnM+rg9Ph6Wrp6P115YHa7/NCLPxF4QhMPwQ4oU+/NeUz4ggwBDaueWp+yZys50SZznRqGnh9dN/Oipo7Lrzwnq0cIo4AR2D6IcAJffqtKZ8RR4Ah8NprP4uYXZr+isejXoLpa/0D+pryivpbr732C+0cIo4AR2D6IcAJffqtKZ8RR+AoAuve/PWXL7pk0We6u1rJwQMNT/17TdNPV6xYYXOIOAIcgemHACf06bemfEYcgaMIvPG3Z9Kyi9P+5HY66JZtO+/+8Ie/uI/DwxHgCExPBDihT8915bPiCBxFYPPm//uk19un1NTQF++55x6DQ8MR4AhMTwQ4oU/PdeWz4ggcRWDVqidVy1LFa665x8th4QhwBKYvApzQp+/a8plxBDgCHAGOwHmEACf082ix+VQ5AhwBjgBHYPoiwAl9+q4tnxlHgCPAEeAInEcIcEI/jxZ7qk2VUor1PikhhE61sfPxcgQ4AhyBiUaAE/pEI34W+qutrU2PjY39lNvt1rxeLzVN09IUzRQEsPSAaUuyRAUBqCAE/wwEDGrbLBWZEJFIkiTJAoBsmqYx5PO1t7a2riwqKurGG5BUm2tqksJjY69xak7RMAK2qjrBBhACAa9g27bocLrFId8QcagOARsDAFXXdUHRlM6mpqa1qampu8c67e6W7jQq0QVR0RFLgQglpmHESrLsAQAfADTrur5DFMjeztauHX7b35yZmdl7fNtr1651l5aW3iGAEKkoCggCGF6/v7mlpeXloqKiwRONpa667gpPlGeGQ1WJqjrI4GC/LQoClWQVbNsUBEEghq4P6bre7XQ4Ogf9/mYYGhqISU/vIIRYY53f+91HKRW7mpoSZI+nVFO1DyiKUgQAqbZpeQRJpIZp9MqyXA0Au0zT3G4Yxl6n09l8Ov1ufHNjdnZh9tVup7tUc2tZgigmWpbpFEUJq681UYADAsDOPm/fDstvVUdHR/efTj8ne6aurk5LSEh4UCQ0RVZVDd9FI6Bbsqp0+4d8+zWX63eEkDHny9eV10UkFyR/hAgkRlIkKRAI9HsHBg5Fxcb+41THXl9fn+h2u1M8Hk+pbduzVVUtpAARFKhCgGBgYb9uBHZLgrTd5/NVeL3ezvj4+FMW62lra4sLjwy/T1aUeADA7w2YtmEQQezVBwdXh4VFrj+VsdfU1OTExcUsDwsLc/v9fipJUsCyrCFBIJ3NzW3/zszMbBtLe9XV1Wp8bPxtYWFhGTiugYEBs72z/fXc3NwtY3me3zN5CHBCnzzsx6VnSinxer2fcTqdP7Usi4iiGFxTCkBtG4ggMOtWDwRAFEUQkW8ppUAI/gmUACH4dwBi2zYViGA21jdeN+Ab2NTR0eEvKysz25ua7o1LSHzctiwiyDKAZYFFabCt/16sEezTMAyiqCr+3SaEVBJRKD3ZZBmZdXSURcfE/jwQCKSrmibieBVVPfp+GrpOZOybEDB0HWRFoUCpv6Oz84/7K/d/pays7Cixl5eXR5QUFTeKkqTivNiwqK23t7fPT0pKqjzRWKhNtwFAiW1ZuEkhkixj+wwqy7JAwr6HL0pxHIgrEnmbP+C/y+FwvHW6C9rd1l0SHh3+EqV2tihJCsNZFAlbP1wbQsC0TNx5sXUKBAL4Y22JoljV3d19dXR0dNNY+sayqsUzZny5cEbR13HTBQAoIBd6W4DVTXc6nexfcMOHnpFAIKBrmvZ7ALjvVAh2tPFQSj9tmuYvJEmQLNMkw++SZZq2KEmGYViXKooyZgLp7u6+JjzM83+EECmEGW4GfEQgkaONBT/fvn27nJGRcU24J/yHoiAkEYGNSxBlhjkNfmWC3xPTNEGSpOF3k70HpmnWVlVVzSkqKtLH0h/eY5rmKhDoB0zTlGRZZu3KEnvPLGrbfkGQok4Fc0rpkwD23fh9Co2VjV3XdVtR5D2ESPPHMraWlpaYmKjoOllRVKCUfX8AyK+ISB4Yy/P8nslDgBP65GE/bj1TSj8TCASeUIMEyAjJNkMkFCSfY/qyTJP9OAmiCBSChCUIAvvPCOhGQ1PjbW1tbf9oaWnxLl++3Gqqq3swOT3jx8NWhG0YwIidUiRv9txx5I6/cPhvSHiHiUCy32+yuCHp7el90u1y3SPJMg5UDJEwawN/SI8h02NJFW+o/vMrL5fgOIc/2rlzZ+zs0tmNpmHIuFsRJYkCAbO6uvqivLy8E+qY6/7AHllRCrD/EKEGmS64KYKB/n4I86CjgP28M8LDeVNKLSIIpm3brzU0NtyemZnpP5WFpZb1KBDhPgCQqW1LBBsNXcN9s/9LgGGNm5oR5GLqur+lp6dvfkJCQsdo/TY3Nj6amJj0udA6ijgvE9dPEkEgAutD13VAr8bwn8g7lmVtlSRp6Wjtn8rntm3XEELSAWwkTvb+4FjYRgoJjdp/EQT5o2Nts6mp6ZNJCYnPIhHb+D6LIpKiLkiia7Q2KioqXDNLZr4KAB8IvXv4DgqIPwiE4Y3Lgmvu8/nA5XIhGbMNMuIky7IlCMK7hJBFo/U1/PmRI0eSw8PDqyRJUGygEu6sbKDgHRwCt9uNe2Gjt7d/dnR09P6xtvmfzfALAPYtgiDIuPkbXkPDMKgsy0Z//+B14eHh/xytvcpdlXkFMwt2U9tWiMAAsL2DQ8+4wsM+M9qz/PPJRYAT+uTiPy69d3d33xoZGfmcbdsCIYT9B0hhx5H58QQ5/IM1vJsPBAKgKqpefaD6Q2vfWfs2ipAg4dZW1TyYlZ31Y3TQMzJBzglar3SYFEKky/rEDQL+QOuBgCXLcr0giTknmuj27dudM4tKnpNV5SMhkiEBvx9UDT2waBUE/wttQNBqFYZ//EOkahqG+WXNqT0xsv0N//530uJLltUQQQha6OwXmRiHDx+enZGR8X4W+nYAQE8C/pgPkwvYlkXRWh4m95HWOiMgtJoJYSaaIAiNLW2tF6WkpIzJYqaW9QIl5CbTNGVZxlMPdH5YSBS4z0ILk+IaIczsOo7s2bQkYlJK2w4fbpx/Mpdq+fbtV5fOmfsyUKoAIUEcRXHY00AtXQdRUdjWgXlDgn8Hm9qmYRhf1DTt5+PysgJAS0tLWmxsbKUkSZptGQLOY3hDiGRs27YtybLv4MHqxIKCgoGx9Nve3n5bXGzcc6ZhSPgu2pZlCaLoJQIJH+153Rf4kyRLN3i9Xsnldh//m2iH3oGRzeBaEbZxkIKvS1dX10diYmL+OlpfIwj9U9HR0c8YRgDXnoQ2M+zj0N/NgNd/v+ZyPTPWNk3T/LUokk/h5nD4ux/a3OA7hN6ypv37DxS937HTcD979uyZWVxU/C4ABF8CAOrzeX/pdLk+O9ax8PsmBwFO6JOD+7j22tLSUpCYmPgP0zQ9eIaN59oCYTtrAQiRbcuS0RpnhBG0zvHHTqe2jUTHdvJo3eOXnlp27+atW5YtXbr0IN6/du1aLdoTeV/J7FmPAqWM0NE1j787oiTVUwt/7mw8O2dkblNbYH0jkQbPQPe8ve7tj6LrfuSk9+3bpzgUxxWpaSmvSLIsUdvG/pnXwLYsJEfDtMxNvb29e2yL9pumHp2UnIJWIp4tY1/Yvrm/cn/Y8W7O7du3p82dM3ePaRhuSZYFPRCwZVXxVVZWlhYVFdWcCHx0uVumOdswDElVVXZUYZlmnyhJbej+lyVZJKKA5IAuXAFd88NEP9wetW2TCEJHX2NDcUR6es/JFrm9tf0zcfFxPwHCfjSPkjkhxBAEwef3+bYf6exab9pmu0iIy+F0zQ/3eK4WBMEpShL2z7AyzABaiCYAfZcQafH79UltugEoXYDuXbyHeWRE0bINo7mltWUdte0OSZaT4mPjCgRFmTHCU6K3tbelJyYmdo7XSzswMHC/2+1+zEK1G5FthmBwcNBwuVzysDfGMs3AwGD/FZGRsevG0m9ra+tHE+Li/9e27eF3Hd+9I0Ag+WQxDl0dXZ+PiolC7xP6utk7zFzqsmzjJk2UpK7e3t63uo501Xk8noDPNxTrcjgLouPiZgNAFNv8qEo3ISR2LOM8+q5QWm5ZVrEoEuZR6O48EoiIjlLwyAw32EHPj/gqAPnYWINCBwYGnnC5HPf6/X5FlqRjPFu4UcTvrNfr/4rH4/npycZavm1b6YySmZsV/CIEN3jU5/P/LDwy/EunMkd+78QjwAl94jGfsB5XrlypxMfEf2jhogUrFVUVQ1YZHo4Obdi4ofTCCy+sHW0wr7/+ujM3I+vOvPy8nxKJmSNBl6htd/3lb38tuv766/HH7LSi0HW/f72sqEvYxgOv4NGAYRr6GzW1tbcVFhZ2HT++Xbt25WVlZH3a7Xbd6fP7/upyu+84/p4Nb7yRtuSSZeVASLhtWfgLaRNRGNi2bdvsBQsW1J1ozt7BoW0OpxMtdNwAoVVu1tUeemJfZeW3r7nmGqawhuesHR0dEW63e2ZR4YyHw8PDLxYEAc9scXOBGxG0sE1ZUSqIQOa9H7YHtx+MyZuTVwOUOn0Bv+xwOPBWxNBvWdbmioqKe+bOnfuejcfatWtjCvPyvhkXG3cvkSSFrafM3P64STOam5u/kpyc+vjx67Fu3brUpYuXHDQMQ1U1Lbh5ME2z80jn6k2bN9+Vnp5+pLa2lhF9eHi4oCiKIyUhZVFSatINTqdzBhBYdCpnuSd7pzDgKjMzc58oimmUUokQiuyl7ywvf3zOnDmfx7P9UIyEATZ9lYjSx0d7R/Hzqv37r87Iyn5FxvOCoGfKAkpb3l6/Lvv4zSTev3btWikuLi6voKDgXV3XFU3VcFPJ3Op4hm9blq+r68iP6vbufWbBpZd2YXDo22+/LcR1dgqH3W6M59CS4uLmZmbl3N/d17O+ra3tqXnz5o1JVre9vT3b4/Hs0VRNsY2AKMiytWfHzl/FJSdmxkbHXCHIMn7PcDD9Dc0tWemjbA6H8Tly5MgPo6MjHwRKVRZ3ETzCCMacBONPqGna3v379xfMmjXrfb1IIQt9k2kYDtwQ41j6enseiYiKwtgLfp3DCHBCP4cXZzyGVr5t2/zSefM3hc5n8UzYJIQ07CjfuXTevHmto/WxatUqNS8r557svFzc1Q8Hq+EPV93mLZsXLV68mEXDn8qF1vl/Ap6uzMnOeZm52oPWNjqYTb8/8O+mlqYbcnNzMeL6pBdGs5eVlb0nan3nzp1Js0tn7wUAPPRmqW9AYGj79u2l8+fPP+Emprer593wiPBSRjJB69x3uL7uE9l5eXi2+p5rxYoVwpVXXpldVDjjBXdY2KKQxc7uo7ZtGIb+iOpwfOv4B9HjUZhfeGtMTPQvMAAO/RhIIrquBzRN27x169ZrFy5ceNKo8oodFZfMnFn0CohihG0bzFI3TdOWJKlv7979hSUlJUcjrtFdf+DAgcsL8vL/ht6akDsdNw8D//zXP3O2bdvWdbLqaxhINzI+YbQ1Ge3z6urq7JycnF0AoFmWJYpsP0J3vbV21VWXlH1wKxHElNCa2dS2vYdq67Nzc3NH9Q7U1NRcmZ2V/RfLNFWMmQh5S9qBQPqJNiMbNmwIW7J4yVtAYBZ7B20W/IWkZwz09a/et2vn5xaVldWPNh/8fNOmTY7FixdjFsaoFwas+Xy+Hzgcji8Axch2GyMefTvefXcmtayEeUuXvI7vLQt2l2VroK//bk9k5IujNowLOjDwPVWRviwrihYKqPQODAz4wjwe5lUKHlcpaKq/s3nz5qveb8zvvvtu8by587bYloU7TfREWa0trY8kpSR9Yyzj4PdMHgKc0CcP+wnped++faUzCgq3UUpldvYNgK7vhv1bNs8vGgMZo1Ua7fF8JiMn9yemYYghl6hp6IHe3Xv35sybN6/vVCeCbc6dM3cnte1CEAiLyGUR9oLQV1NTkzeWH/CT9VlRURFXVDijWpQkDIgKWjsE/Hv37p1ZUlJy6ETPGgF9pyiKJRhUhRRjmmagtaXturTMtNUn6ys0l722ZeVialvIy4AHz4FDdbU5BQUFLSOfR0uPmtabRBSXGLouyyoalOx8E+e+NDc3d9QgKNwQySB+Orcw/0kWTIf7FTzHtyxjcHDwOxEREd8f7hMJvaqy6oN5BXmv4b2WpWOQILqje3bv3ps+a9asoVNdvzO5v7u7+5bw8PDfYOAWjo3aptXW0nZ3clraCy0tTd9NiI9/mK1ByIswMOj9eGRk5Ak3VSPH0VjfeFVKavKrQAi6iYPvOaXdRBQwJeyYC9egurr6rpys7CeIyMaBC4cWrSXJ8jtr3lxz3WWXXXbK7/VYcGloaEhKTk6uIoSoBDDWxcaww4r9NdULA4FAeGFW1lua05kPkihZuk5FRWsnAkkaS9s+n+/7qiJ9icWOsOgT2vrqK6/edcNHbvwTEHAGN50Ye2lbAwMDj0VERHz1RO3u3LlzxuzS2e9apqmJuOUCsIaGvI+6Pe4T3j+WsfF7JgYBTugTg/Ok9VJZWVlSkF+wI3RGyMKsgJCevfv2Fo205N5vgEhYcZGR90fHxT/qdLnEUDCaLYiiHwh4TjUHG3/Ed23dlVM6f9Zedr5P7eFYL3NoaOjrbrcbzzPP6Nq3b19UQV5+gyCKzMIIWeg6YjFjxgzM5X7PZelGuSCKJRj4hx+ild3W2v7ppNSk/x1tMAf3H/xMXkHe44ix3+cDLehCN+oP1Vzzbnn5mpEW7u7duyNLikvq9UDAhccgNmXR8pjqtJoQ8uHR+hr+fMuWLZ4FFyxookDd6PIPpVKh9VVNCCkc2c6uXbtmlxQVbxREUQNi43cez4f91TW1NwwNDb0zb968CSvaYtv2nwkh17JsAhvXHgKHKg/Op7JcbVmBefn5hW9iMFbA7yeqplkAwi8JIRiZf9Kr+XDzNUkpiS8DIcOBXEjo/UQUok/0ILUp5ngvMi1TwuBAUzeorCiB3Xt2l86aNYvFj5yNq6ur62MRERG/FQRBBBuPmij19/b9prat9eH/bMZIWkLC/QkpKd+wTQNd8aAHDMs70D8/Mi4OvRonvfx+/49URfo829RgUCWlfZu3bktOjo/7YXJy8mdFVZEAu8SAegCjpqYm9USb5127dhXNKpm5g1KqhHJakdB/4va4vzLaGPjnk4sAJ/TJxf+s995QU1OcmpVdPpxyhoFwRBB8B6sO5h5vPZ5oMOhavmn58s/nFRQ+apmmGIpGxlg4QwrmeZ/ShS784uLim1JTUp9lY/pvHrS/pqamJDc394QW9Kl0Ul1d7cnJym4FQjBcfpjQjaqqqln5+fkHTtSWZVm7BEEoHo5yRwuvs7PzS3FxcWgFn/Tas2PHzILikk2SLLMNRCgS3+zr7bk/fM2a58iIlLrQBgtz3jV21isQ8Pv9vqGhoQ/HxMSsGa2vkZ/7vL4/aQ7txuG1RaIeGhryt7a2Zoz8od66dWv0BRfMq8Ij8oDfL6qaxoIaAaCvrbn1U4kpKacsvnIq4xy+d9++fe4ZM2bg2a3L7/cLmqaBbRmd5bt2p+L5c2VlZUZBfu4eAHBiJL5tWbZh2h2apiWO1l9zQ8OHk5JT/nwMoQMMEIFEHf9s9ZZqT3ppGh43qZIksfQ9tEIDfv9mzem4cLS+Tvdz3MwCAGK9zO/3i5qqCWAZdvPhhs/2dXT8eUAQzNSEhOKY2Jh1isMRSt8UrEAg8Kzm0DC18aSXoes/kSTxfhadTgFjCPpq6uqSvF5v7MyS4n1AwI3yUgG/n6oOzfL7/asdDseHjm90//79xXk5uTvYkRC+owCWz+f9idPNCX20NZjszzmhT/YKnOX+Dx8+XJSanFJOCJFD6VVUlCS9tbo1JSk/6chYum883PhAbGzMT1HwJRRwhMpl1uDg4If9g/5OKlLLtm0Wxc6CxCwiEjAJpZJtCdb+1NTUo+eL+KPW3tb2ZEx0zH2iJImGyXKrLcMwBltbWzPHGgB0snEz4iicgefISJoY6Y9WiVFbWzs3OzsbCeM9l23bFYQQjKAPpgMAWH19fV+PiIj40WgYVVRUpOTl5FZomhY+bOEjYQ4ODD4SFh72zeHnce71hw5dm5aesVIQRaYgYlrs7Hugubm5eKzpbsPtHT58+IG0tLTHWGT3f9PXA3v3Mu/LMRujrs72Z6JiYm4HSiX0z2Pkv6IotqGzIL4dLY0NX0lOT9842lzP5PMjR45cEhERsQrHi6laeHju9/t+6XS6kIQAjxJycrJeFQi5UpJl1AOggiib7e3t+QkJCScMZhweT3ND84eTkhOPJ/TB44Vl8Lw7KiqqKD8vH+eK/mf2G6jrunnkSOfDDU1NT4/1PPxUsairq8vIyMjYbdu2A6UH2bk9oVZz/eF59S0ttUuWLBnctWtXeOmsmbjpcQTfXREt7QEiChGj9Wfoxs8kScBc8WFCH2qrq8vxS9KAx+F4PCou9k4AQWRBcqrCNnUN1dUF6Xl5x8SV1OzfX5xdULhzRPqb5fMOcUIfbQHOgc85oZ8Di3A2h1BfX1+YlpKKZMUIPRTBbdTW1cZlZ2eP6Zywvrb2s+kZmZjrzQgYc69DgUZ4fHt8hPtIBS1MK4s9Pu91aHBotdPpXIZpcGihssh206yVZRmFXc74ej9Cr6urm5eVlXVCGdoQoaOFjsI8uDFBQv/2yPPo9xtYyP2NBIo/ulIoShvFZl4UJfGukc8dqj70xazsLNwk4Fn9sDBNT1V1VWF+fv6YNljD7TU1NS1LSEhYhT/gIZEb5r5vb2+fl5CQcMzGBdXzSktnHrAtK5q5ezEUHr01RKL+gJ9qqmbrhv5/Bw4cuPdsnatTSlf+R7r2Opw7HhEEMe4qi4qK2zA8p46Otk/Hxsb+enhjZRgWBnF+7z95+t892YvBCD0l6c9Hc6cpxfzM91joGAyXHJ98SXpmGrr+2XcidOm7KnZdUl1dveVEQYAh9bUzkvj1+Xyf0DTtWQy8xPcMz+2pqRuV1TXHpF7qPu+fZE1FbQYx4NNRl8E43HD4AxkZGZtOhoFlGE8IonDvUUIH8B/av78wIAjtmkRnpadnbxQVDfvGrjHmwvJ7vY+5PZ6HR7ZbUVFRPLNkZvlwTj+z0L1Djznd7mPuO+MvKm9g3BHghD7ukJ5bDTbX1uYnpWfswfPqESPTu3u6Y8eq0V1XU3NPalo6RmUPu8jRTQzoMg0F3/y36eEfSDyrB7Bb29vCk5KSjjmjNXVjm23bc2RFEfGHhVKq27b9liRJHxwP9E5C6POzsrIqTtTHiQi9v7//O+Hh4d8by5iGBga7nC4XS5NjOf+UWkDgr0QQ0CV+9Orv7f1BmCf8IcsMnt1iLr2hG93Nrc35J9KlP1nf+/btmz1jxgyURx0+N2abo7q6ukuzsrLeowPe1NQ0Kzk58R3LNB0iqtdQSiw7qAQshxTaMNr+P8u8QhTFx8Yy77HeU1dXF5GQkNCksZcGRMMw0EwPEEKcI9uorq6OzcnJamb4MHlVAT0/rYSQtJMSenPzNUmJSX9mKVvBCwm9nwjkmDN03HylJCXdkJySipsGGVO7MKBQFEVfxZ7dpaWlpXg0cfQ6dOhQeFZWFlrzGFwnBAJYy0Blm1g8NkAMHQ4HreaRFwAAHLhJREFUvusDjY2NS9PS0o4JghzZFqV0u2VZJaIoSiGxIApgbSdEWjDyvs6mpqtjkhP/YluWJAhBKVgg8Nv/ZKd8+mQYWKb5c0EgdzPxIGAaEIGa/ftLcktKDh3YsCEsf+HCN4EIc9jmRGTKd5RQ6CGiEDMy1bG2tnZmZnrGDiBkWNsZCf1Rp5sHxY31fZ+s+zihTxbyE9RvbW1tfmZGJlprw4SOZqHZ3dsTM1ZCrz548M6cnNxf4hc85CL/7+jfPwOd5au379kdkXBcJDW1bNxgzECXomlbaPFjUNgfCCG3jwcsISlPlEI9xuXe1NQ07/0KxViWVRE6Qx+20M0Qof+/sYyJ2hS15MOGJUOJIKA1t5oI5OqRz7c0NP00MSX5c8NphJjgJshyb/ehmpzo3NxTKoLS1tZWHB8fjwp3KpIyXigZ2t3dfW1cXNwJJT6ZN2HBBStNQ78E3dp4SMJ8r5aJgdV4lEJlSbZtancFAv6vuxyu34xl/qPd093dfU9kZCTGIzDrFN+Nnp6e56KiotCiPOai1F4FQC+nti0SQUKIjI6OjrKUlJTN79dP83sJHZkaCT1m5DO42fO43TclJ6c8hd8JPD8PqfEN7SjfWXjBBRc0jry/ra0tMyIiYh8GMA7XBWD66IYOiqwcte99Pp+t6/rSiIgIDEB9z9XY2JickpKCmwWFCT8FpWStnp4jH4uJiX9PFL/u93XKqhINVCBM316WfLt3744/mffEMq2nBQHuGEHoem1V1azswkK2Sandvz89s6BwF7VtDxFDZzQUMNbjlfKKiluH8/X37t07a0ZB4fbhbANcK6936Mcut/tro60z/3xyEeCEPrn4n/Xe6+rqCjLSM3YDpZiewxTQbMsy+hr646Kyo8bkcm9ra7sjJir6V/hjjMUqQkImqNCJxVyCTPLfgiX/faco1ds7O+ISEhKOSY0yAnqFJMvFLI1GElGjHAn9L4qifGw8ADlK6JQGg+JQeQuo3tjYOCc9PX3fifoYGRQXmp85MDDwbY/H84OxjInaFPPhHaygR7CICtq+rxNBQBfz0auzvfNHMbExXxphyaMl2Vd/uD7nVC306urqOdnZOZsJAWVY5x25uamp6drU1FR0xb/v1dzQcHtSavIK24ZEgi54TKdDexjdwCwM3rJFUUSv7HZJen8FurFgE3w9KFb6QmtZCnl3jNbW1oVJSUl4VnvM1d7cfGlcYvw/cQNpmyhvK6LuwSZCCGqtn/Bqa26+Jv6/Fnow6I+QXiKQuJEP4Bl6TEzM9bk5uZjbLY+QwB3atHlT0ZIlSw6PvP/gwYMFeXl5FZZlSSh4LxIBDMukssi+B0zd0LIsppXe1dV1UUxMzAlrBXR0dCyPjY39HarasvTGoG8LY0vCTiTMNNjf+6jD6XxQEFgsAcPgP1XPvuHxeN43C8QyrV8JItwONpP3RQtdr645VJQ34oy8tan1kwlJCc9idD+qO5o6E58xmxqa7k3NSP0N6g4UFRUVzCicgcSPmgwIh+Ud8j7iCnPxPPSxvvCTdB8n9EkCfqK6PUrox1roRlNLc2JqauqYRGEa6+vvSElLZ4QekhxlPxbvvPXOgjhNqOukFH+kMbjLcjgc+AvgUBRUsRT7TmRRDPT1b3KHhS1gQT8Cy0E3bNveI8vy3PHABa2wwvyCNiIII9PWjPr6+lmZmZknjHK3bXsnpXQmO18OEhBa6N+MiIh4ZLQxoSb93Dlzu2zLUoerpCEnEiK8RMRj3aT1tfVfSs9IxzaPujMt0xw80t2VN5YCKyPH0tLScnl8fPzrgiAwl3sodc1obGxclpaW9s5o48bPa2tr78jMzPyabVppgsSq9bDzVUY3BKhlWbooipcTQk6plOfIvlsbWy9ISE5Yz/BBggjGcuhNDYdv9Op6lSAIQ0hyhBBNEzRXwPQWZeXkvnQUo2CqZaCquirt/eIMmpubP5yUlIRn9AwLXD9CSA8h5Jg8dFSIS05OLsvNzf27YRgKVjcLFcHxle8qnzdnzpxjdAD27duXU5hfsJug7zuEC0s1JIJo2ay6IZuqaZp6a2srutxRA/09l8/ne1qSpDuxVHHIm2ITCgfrDx2+3TK8XaYpWoJDICRAiKjY7jBPxPXR0VFfBwwyZZixyn6NhJDM91tXSikeI3wSKNNyR8z02rraguzs7IaRz1Cb4hECVl5jmu8hHYTure9uyw4LC/P7+/3ZcxbMwaOpYa+e5R0a/KEr7L8BnmN5t/g9E48AJ/SJx3xCe8SguPS09JFfToyaNZtbW5JSUlLeI616osHVVlffmZae8Ut2hh603vDHsnvdO+vTy8rKTqm6GD7f1Nj0SnJy8nXD5SlRLlXEQhpk9EIaYwGvessWT84FC/Aclumeh/LQjZaWlpnJycknzDG2bRtdpbOwONupEvqmTZuSFy1chFHYQYsvWKLW7unp/nFUTMwxYhxVVVU3Zmdm/QmzAdhcgrK5vo7OjpL4+PhRpXhHzr+9tf2huIS471uWJQ8TC7qnDx06VFwYcrOOBS+8p6Gu7t7U9IxHAn6/R9U0dPMG50EAreO/EUIwSOu0LsswHrdt+lk0CYfL9mLsAG4KgVJ0jeMaoW8dhGCxG4maJqaTYQnA4cp9+pHOIw/ExseesFhJc3PztSFCZyREKTVChJ5w/KBR2hRjDwRB0EYUMdIrD1RePWPGjGNSB/GIIjEu7gqfX48RiGARgfoGBobiiouLfoAysxgTysqeyrLe1NR0YWpqKqYkvueilGLt+riQhc6selEQLbCpDratI3GHcMAGmS8sdIYtYJAlCuQqiqJ3dnaWxMXFnVBLgVL63H/2aLchliGSDlRVVeXl5+dj30evuoMHCxJSUss1h+NoHQHckxzpPPLz2PjYL1btrsrKLsyqDGViIEdwQj+tN3/iH+KEPvGYT2iPJ7DQT5nQD9fW3pWWkfl0KFAJx49a7j3r3lmfeSLp1dEmeLiu7qtp6RkYbMbKiqHL0bKsQF1dXdqZqsRh3yyQKTMLz0JRKe4ooY9ioR9D6CE1rW9FRESM6nJnZJLARE2CxbODtcStnr7ez0VGRj4zUnp0y/otMxYsXYAiIccEKQ72Dz4QFhE25spawX7oX4e8Q1e5XC4pVKUN/9n/9ttvh51Iv3y0dSnfVl5aOq90i6Hr6nC1NRRQA4AhQsioaVMnaj/kvWgFSl3s7DhYfAflalFeF1MogZomEhyRWC2Qoxf7bTpahSxI/AeIQGaeqJ+WlpYbEhMT/ziMa8hCxzoD7yF0VBKcOXNmjc/nczo0lu8NPq/XGBwc+klcQtyoamirV692XX7Z5YepbYcTMbQxAwhUVFRcVFpa+h5CZ0FmmZlb/6Pkhrr9w2mRQC2mCTGcJxL0jKBvBI+vgjnrBDc0I8romkPeocfdbvdDJ8LAsqznBUG4dQSh+ysrK3NnzJjxHonnnu7u30ZERH6c2jaWGA5uMERRr6k9lNPZ2eldeMGCZhL0/LB4B+/Q4COusDDuch/tSzTJn3NCn+QFONvdjwiKC6ar4NkupehyTxqry72lqenuhITEp4dTiUIBX34iEPfpjH/3zt2LimcWrUM5WovawcIRAKgU92m32/2702lz5DMsRWtWKboZMYI6WFCGgNHQ0DA7PT39hNKqx1voSOher/e7YWFhJ02Xwn57unt+GxEefkvIwhouLWvUNxx+T1Q9nlF+9CMf7Q34/e5QmVi2QTJNs0pWZKxyNqYLi5zkZOdgNTGcIytBilaZbdv7ZFk+IemNpeHG+sb7U9JSfoabN0zfkxSmEeANBAKZHo9nTB6dkf20NrZeFZcQ+5ogiiMj8YdvCTr2Q5fh94McInUb09qC7wXbAOAGiQiCXldfl5mVlXVUq3742ebm5o8lJSXhu4MPYYo7epF6CTn2DP1ox5Tie5Bjm0crEeLGpZEIJGs0nFA9sXhG0QFV01K8Pq/idLJAff3gwYOXFBQUvCeX3+v1PiH8//auNTaO6zrPnZnd2Qe5u1zucrncJffBJUVBtixFfigSaiGBXVtBghhNnDZB07hFHMBuajRFkRpt7SZOAcNok7ToCygKtC5QuI0SIK0VpW7aok5TRXEoGJZsUSR3qeVrH1xRpLived5bnTsz1PK9NMgwP+4AggDuzp2Zb2bn3HvOd76P55+RJIn+Bm0/e6ybjnlmGKdB3DQouttKR6+d3geHAx4SIMfBNW2qfmcYBijQgZmNA55fnueVXC6XymQyQBBds8Gktz8Wn3E4nR6qTQAbQoaqqj94/fzrz33ilz5xlUoTO512QH/F29nJzFl2ejgO+HMW0A/4Buz34XO53HA6lQajktaAri7ll3vbJcVNjE18YejQ0F+brGNKkoFJgYoEWqPe9Qba2Rzh8tgw4rwoILBvBddXnudLly9fTrbrWrXVge2AriqKx2InQ0DXrYC+KSmOGBjIWUepMIzVH95syl/zdnq/ut0FTudyHx1IpaF26wabVcgqw+qT47j8VsGhWCh+p7e3F2Re7To6vMzVeq36dIff/4/tALp869YrPp//tzVDd9JjwkqOEL1YLH42Fov9cztjbPYdSDEfO3rfguRyQQCGVSOIBtWy2Wxmt33yNE5h8h8cx30ICFbUppeqwxkquNkZug65dugqQILDYevgc1TJjHa3UdU9aF+jQ0GpCBPyd4IogHjKmm1ubu5zsVgMUs7ml82U+wpCa1nu9k75fP43E4nENywCGd1FU1VtoVz6SjyReHk7/KjiG+HADS8GHQbWd7VsLvvo22+//aPWPna7/EOFYkDu1pycgHY/pHHAfHitDa9FLgWNAIqLWTISYJVOYy7Pa9PZyfuSw8Nj68/RMAzoFHkSAZnQCujZbHaNamDrPouLi48Hu4Lf1VTV6XA6QZcAxtfHr4//Qzqdeoq2lZoTLlihs4D+fn9UP8P9WED/GYJ9EIeazWYz8fQgBDHT79kKxvmZ6Wi7rOqxsbEvjBwa+StNVUUrFYvh5Qeek+/3mnKTk19KD2b+BBOzhQc2q5Y+htDmadV2jwUB/eg994KWe+sKHdjfJ/r7+zdVilsf0OlqRZFfkNzuLV/us9OzfxSJ9DwPtVRd03hqXGO+kLVSuXQ6Go1uSpCamZp6uD+ZgkAn2b7miiwbksslL95afCAUCm14Wbde+0Kp9Fy4JwLEOgmSsvAZLM15ni8ghPrX41QsFp/CGE/EYrFthUlgv4mrE4eHjgxdtlzLeANTfsMiZHraFSKyjw/lnmik97Lkckn2ZBA05PMz059uNBpvAmyt5+qr1Qxo4gYVOSiXBHy+3xhIJF+CDg1YtaqKYkCt+s3//aFvfUmhUCg8HY3SLJId0GGFXkVoo/QrHJNmODKZMke4TiBn0i4BJ3UiUyvl0pd7otG/3O55U2UlJwhCjBcEqbqywnX6fNr4tfHHanLtR60T0lKh8HykNwpZHtrzbpkbyW/+93893BEIvEddV/r6uJWVFSGgKLjp80FmCOu67pAk6dhwZug/QVOdN01SYLJjaJr6UqffvyFzhDEG98KPWwEdngeooW9JJKSzGIy/z3HoEcBNkWU64aIzCfM3af4wWcq93VfPgX+PBfQDvwX7ewL5fD6VGEgAs7s1oCtL+eVouyv02Xz+892h8N+4PR7qGW3W/YiGBH7XWu6tV4t1A0QtApYyG/1I0zT9Dtv99Ww2++mtLFQrlcqwIAiPdnV1PZHP559cPzEZHR31n/jACaihrw/oW/ahE8O4zHHovhbpVow19RuCJK3WK8H6tLu7O9nX2/tId3foi5zJOBbtYG69EHW52XjV7fV+fqs7C0zrM7/wMDCWw3A8+0Vv6Dqs2G42FPmzgUDgB+v3Hx0dHcgMZl70Q3rfZHPzlrkLdVqbn5//TCKRgJf6mg1j/DpC6DGM8aKu63+ezWb/9siRIxs6HEB6NTWQeMPt9Z5SFcXhhPQ3Ajtt9ZokScd3+6RqmvaKKIhfUhVFdEoSwoZh8IJQOvftc4l2LFkvXboUf+jBh64TjN2Wgw9tR5svzD8dj8eBBb+6zc3NPROLxf7CLgtZKfcaQgisQzfdKpXK73R3BV+mDHbTwpc06nUQjtGqtdq5setjL506dWqDL70ZCAnMPSD1bZYSCNFzkxO/uFxbG9AJJuMcxpDGN7MxPI/lWv3f3b6ONfoEW50jweQ6R8gg8DMgA+SUJCDSvYVE/tQm9/m7HMd9FIid1gRPzWaz2/JSbkzeOJMcTIKjIP0tWyqHJhHRFD6CP+sWy32DHfBunwn2/f1FgAX0/cX3wEfP5XID6VQaWLF2QAfTBki5tx3QcxO5X09n0tASY76UzCIg5ABhRQOrLGSZONBXFpXeslJ1hmG8KzpEaJHZsFXK5RdDPT0v6DrtiV39XNd1QxRFnRByBSH0E1VVbxuG0eF2u6Gt7QFVVXmn0wk+4rhcLnetV6KDtPEDJ+6f5QXBS+VlgUmOaH/2dgF9lOPQsZaADh6qkLatcYKgcobh4Mw6sANrmsBDKhTY2ZaXuzXR0cDFixd5WPFsu5VKpQ/3hMLfg1Ytq43Lrqdi6CLgeX4RE3JB19S5er3u6Ap2P8gR8pBlD0oDECXCmboAwES/wK/rebdPgBDyfULIo7Z+gOWQl9U07U250ZhWVV12u6Vel8v1JC+I/digdWXKPSAcUarV6u/6/X4QYtnVpmnaTVEQ/VaQhWdEl5vyOXeH5zPtDoQN4ypCPEgCg6QuOKLBM3cZ8ehk6xjz8/O/1dfX9811AX1HMh/W9bcQLxyj/fHNJrKc8sD+FqxUVV3XLtaq9UuGoSmQNXA5XT1eX+cpgnESmc5u8HzRgJ6fyj3y05aUe25sbDg9fOiKpdJornYJ0RcKpU9F+vvAznbHrVQofS3SG/k9S4Z1lQODBH5DdgwmbhzHfQSBsY2ZsdnSUa31wAST0h2VuW67i8U6z9Zavt6oN/54p/LTjhfDvrDvCLCAvu8QH+wBqEJVLA7tUDarmvaQLy0vRYPB9oRlpiYnfzU1mPl7y9jD/L2brm3Uddm6Qvt/O5jTr3EcV0D85rKdtJbOcTcwxlHwx7aRglor7Qiih8F0XFurnGpgIwQreRDzwEtLS6H11wF63adPnYYVOpD2oO2HOCSnMTMzc2wrUhzB5C3OMI5zgiByhsFxpnwr1DkBL8JBDdMUBIFzNq/RIjFZBiswsflXhNCn2r3jt2/f/sNOb8cftLCJ6a6U/S0IcGzKdKPCOBja2mmP/JrfLOEo+QvMdx7c6rgY4/MIocftc6eKQISAcAy9Q6s1a5M7ADwJWE0jXhBAcrSRy+UymxGrtrtOcLxLp9MV6Ne2DXKgTHO7uvJUOBwGNnpb20Jp4c/CPeFn4dmjmRzAheNAd73v+PHjoM5Ht0Kh8Fw0Gv0mCO9ZLXwwKdoxoFvOfFDiCJvuf6uMNEoxpKIvd0lq9vMO9x6CpsDDZ5CeJkTLTuXODA0NrarZVZduf7XD7/t9DmOqnU+fIUGQxyfGe0ZGRqrtAECFbYaG36EysJB2N9mPerFY+OW+/v41kwKs6eeRKJyFWG7V6aGFcWCne1culJ/oDgVfs9zVeGjDAwxp2t0qIS3dWvpKMBTcseOjnWti39k/BFhA3z9sfy5GnpmZ6evrjU5BwAQyD31JE6LMzM32t+tsdiN744lkOvkvLelFOntfTcvdDeprGLqmWhpXRPzGuq4NjmWp+WNZlodAdEM0SUDgfgVBfQOG8FKHeifoaQPxpzgx0Rs/fHgN+9rScp9WFcXXSoqbnp4eSSaTm7p2aU3lx6LkhAyAAwI6jaN3swZ2QIdiNdRyOafbDW1XwDoGNbXa0tISmIr8225v+s2Fhc91h8JgfOOSm03R1dLWtMp6bhkUMgGgtOb2eEDxT+VF4ScIoTPbHfcOQ/1VURR/xaqt2gGP7mIpha2mWuFv1MAHpGsRUlVNffkOO7st+dvWcygUCk9Eo9FvcYR2GUAAhAlKc3pi/GhyZGRb57TWcW5MTp5JpgffsFa5QNyCIGvMzc1+sT+RAAteul27du3Zw4cPg7QspY2D+x9kV3ie3zLlbu87OTk5mBnMAL/Ab5UHeF3TkFXvpkENnjubnW6L47ScJya6rrw3fv3Evffeu8p/0GXlhuB0xmlANyeDMOm7gni0KwElYuClRqPR4fF4zGwAWL02m5dcXs8aq1dFVs47JedZU00YEkmaNjc3l9isK2D984J1/YcYkwdoUIeuibskPJjEaIuVxRdCkdCWKnW7fe7Z9/cHARbQ9wfXn5tRR0dHoyc+cAJeMlBPRoosY8nlWslP54faJcWNXxkfSWQSFyWXBClsIBAhSo6z22y2vlp4GWQRjw7vBMj8/PzxUCj0omEYj7ndbph80JW4ruuQWqetbZZEJl0lgYIZIeSNiYmJX1vv5gaEp4F4/3WnJEUpGQsmHwQ3Z2dnh1OpFEiQbtga9fq33C73WfDTBvY1GIPAhMUm7FkkIXuFpiuyXBZFx4XFpcXXarXau7sljK0Lfh6e5x+N9ESeJxgfhXY+sNekGJirZXrtsKq2GPTQ4vdTrOM/9XX5dpxETE1NRVKp1Muqqn7S6XRCrZSaiiiKgmxeI2RcYLPGrxu6ca5YLj7fbmvjekBXVla+7vF4nhV4QbQyDuColy8tlKHssWqnu9NzYbrEHRvnMAlAiaOljnwZifxpe//p6emPxePxb8Oq2SrfADu/LAjCtqYu9v6ld97xyh0djydSaXAUgxS/TXRsfUfaGnqwG6yUgRZgCKL4XqlYuDA9O/v1kydPUj3+ixcvBj948oMTdzzKO6H1CzCAeerK8tLZYE9PWyp+9rndunnry13BrpdaukyI0mzW8rMzidaVvqHqr+mG/kngK3BUgBE3y+XyYF/fzjbJ1iT4qqHrvRaz3r5Wet43KzefCUfC/7TT/WKfHywCLKAfLP77fnRIoZZmSod0Xk8G/UFBJzoEwslAINC2KhmQpXw+30C9Xo90dna6ecJLmiaLkiTxqmGAtBqkiAnPO7AoicgpOJEoiJC2U8uL5auxWGyN4cVOF10sFs9APdfr9R52OBxQgyWKotQNw5hoNBr/U6vVLuw0GZm5fr1P6uhKdHS6AppODFmTi5FI5L1WkZfW86hUKp2NRiMM7l+CIDiQjniHx4FgQiGKIsEyuItqsi7oVULIUiqV2rVC3k7XDZ+D25jP5zvd6fV+yO3xHjIMww/YchwpV1dW3mpUq+cj8fi7m+l/tzM+BHdRFD8SDoc/7HK5ooZu+HjEQX69Ul25ffHW8vKryWRygxBJO2O3fmd8fDwWDAaHePBqdzr1ZrNZhH/vZ+Jz9erVfnj+OlwuryBIeOHWQlVV1eI999yzKmkK+v3BYPB+r9frhXQxxrher9dzu/WYh2u4cuVKVyAQGJQc0tlAV+BBHiFwIzMwJk1VURYbzeak0qz/X0NVR7dq5QMCZSqVSnX7/b3I4RDqy/U6Z3DlSGJ3aoBwPjBWoq/vqNvnC0FmSpZlQ2/ohapSnThy5Aj4INAtm832B/3Bo9AXX21UG4SQua1U5Ta7n6Ojo6F4PJ7hMXbKoFan68Tp8KgKVqp6pTI/eP/9bXk/7PZZYd/fOwRYQN87LNlIDAGGAEOAIcAQODAEWEA/MOjZgRkCDAGGAEOAIbB3CLCAvndYspEYAgwBhgBDgCFwYAiwgH5g0LMDMwQYAgwBhgBDYO8QYAF977BkIzEEGAIMAYYAQ+DAEGAB/cCgZwdmCDAEGAIMAYbA3iHAAvreYclGYggwBBgCDAGGwIEhwAL6gUHPDswQYAgwBBgCDIG9Q+D/AZrBLkQy4lP0AAAAAElFTkSuQmCC;" vertex="1" parent="1">
          <mxGeometry x="-60" y="1180" width="201" height="201" as="geometry" />
        </mxCell>
        <mxCell id="OJ_15BZ6CnOvVyB0WR51-8" value="ENTRAR" style="rounded=0;whiteSpace=wrap;html=1;fillColor=#990099;" vertex="1" parent="1">
          <mxGeometry x="-30" y="1590" width="120" height="30" as="geometry" />
        </mxCell>
        <mxCell id="OJ_15BZ6CnOvVyB0WR51-9" value="USUARIO" style="rounded=0;whiteSpace=wrap;html=1;fillColor=#67AB9F;" vertex="1" parent="1">
          <mxGeometry x="-30" y="1480" width="120" height="30" as="geometry" />
        </mxCell>
        <mxCell id="OJ_15BZ6CnOvVyB0WR51-11" value="SENHA" style="rounded=0;whiteSpace=wrap;html=1;fillColor=#67AB9F;" vertex="1" parent="1">
          <mxGeometry x="-30" y="1530" width="120" height="30" as="geometry" />
        </mxCell>
        <mxCell id="OJ_15BZ6CnOvVyB0WR51-13" value="PRODUTOS" style="rounded=1;whiteSpace=wrap;html=1;" vertex="1" parent="1">
          <mxGeometry x="365" y="1250" width="120" height="30.5" as="geometry" />
        </mxCell>
        <mxCell id="OJ_15BZ6CnOvVyB0WR51-14" value="VENDEDORES" style="rounded=1;whiteSpace=wrap;html=1;" vertex="1" parent="1">
          <mxGeometry x="365" y="1320" width="120" height="30.5" as="geometry" />
        </mxCell>
        <mxCell id="OJ_15BZ6CnOvVyB0WR51-16" value="CLIENTES" style="rounded=1;whiteSpace=wrap;html=1;" vertex="1" parent="1">
          <mxGeometry x="365" y="1390" width="120" height="30.5" as="geometry" />
        </mxCell>
        <mxCell id="OJ_15BZ6CnOvVyB0WR51-18" value="ESTOQUE" style="rounded=1;whiteSpace=wrap;html=1;" vertex="1" parent="1">
          <mxGeometry x="365" y="1460" width="120" height="30.5" as="geometry" />
        </mxCell>
        <mxCell id="OJ_15BZ6CnOvVyB0WR51-20" value="VENDAS" style="rounded=1;whiteSpace=wrap;html=1;" vertex="1" parent="1">
          <mxGeometry x="365" y="1529.5" width="120" height="30.5" as="geometry" />
        </mxCell>
        <mxCell id="OJ_15BZ6CnOvVyB0WR51-22" value="VOLTAR" style="rounded=0;whiteSpace=wrap;html=1;fillColor=#FF6666;" vertex="1" parent="1">
          <mxGeometry x="365" y="1640" width="120" height="20" as="geometry" />
        </mxCell>
        <mxCell id="OJ_15BZ6CnOvVyB0WR51-23" value="PRODUTOS" style="rounded=0;whiteSpace=wrap;html=1;" vertex="1" parent="1">
          <mxGeometry x="755" y="1210" width="120" height="20.5" as="geometry" />
        </mxCell>
        <mxCell id="OJ_15BZ6CnOvVyB0WR51-25" value="" style="rounded=1;whiteSpace=wrap;html=1;" vertex="1" parent="1">
          <mxGeometry x="670" y="1255.25" width="290" height="20" as="geometry" />
        </mxCell>
        <mxCell id="OJ_15BZ6CnOvVyB0WR51-26" value="" style="rounded=1;whiteSpace=wrap;html=1;" vertex="1" parent="1">
          <mxGeometry x="670" y="1300" width="100" height="20" as="geometry" />
        </mxCell>
        <mxCell id="OJ_15BZ6CnOvVyB0WR51-28" value="" style="rounded=1;whiteSpace=wrap;html=1;" vertex="1" parent="1">
          <mxGeometry x="790" y="1300" width="180" height="20" as="geometry" />
        </mxCell>
        <mxCell id="OJ_15BZ6CnOvVyB0WR51-30" value="" style="rounded=1;whiteSpace=wrap;html=1;" vertex="1" parent="1">
          <mxGeometry x="670" y="1340" width="290" height="20" as="geometry" />
        </mxCell>
        <mxCell id="OJ_15BZ6CnOvVyB0WR51-32" value="" style="rounded=1;whiteSpace=wrap;html=1;" vertex="1" parent="1">
          <mxGeometry x="670" y="1390" width="150" height="20" as="geometry" />
        </mxCell>
        <mxCell id="OJ_15BZ6CnOvVyB0WR51-34" value="" style="rounded=1;whiteSpace=wrap;html=1;" vertex="1" parent="1">
          <mxGeometry x="840" y="1390" width="110" height="20" as="geometry" />
        </mxCell>
        <mxCell id="OJ_15BZ6CnOvVyB0WR51-36" value="" style="rounded=1;whiteSpace=wrap;html=1;" vertex="1" parent="1">
          <mxGeometry x="670" y="1430" width="190" height="20" as="geometry" />
        </mxCell>
        <mxCell id="OJ_15BZ6CnOvVyB0WR51-38" value="" style="rounded=1;whiteSpace=wrap;html=1;" vertex="1" parent="1">
          <mxGeometry x="875" y="1430" width="80" height="20" as="geometry" />
        </mxCell>
        <mxCell id="OJ_15BZ6CnOvVyB0WR51-41" value="NOME DO PRODUTO" style="text;html=1;align=center;verticalAlign=middle;whiteSpace=wrap;rounded=0;" vertex="1" parent="1">
          <mxGeometry x="650" y="1230.5" width="160" height="30" as="geometry" />
        </mxCell>
        <mxCell id="OJ_15BZ6CnOvVyB0WR51-42" value="MARCA" style="text;html=1;align=center;verticalAlign=middle;whiteSpace=wrap;rounded=0;" vertex="1" parent="1">
          <mxGeometry x="785" y="1275.25" width="60" height="30" as="geometry" />
        </mxCell>
        <mxCell id="OJ_15BZ6CnOvVyB0WR51-43" value="NUMERO/PESO" style="text;html=1;align=center;verticalAlign=middle;whiteSpace=wrap;rounded=0;" vertex="1" parent="1">
          <mxGeometry x="700" y="1290" width="40" height="10" as="geometry" />
        </mxCell>
        <mxCell id="OJ_15BZ6CnOvVyB0WR51-44" value="CODIGO" style="text;html=1;align=center;verticalAlign=middle;whiteSpace=wrap;rounded=0;" vertex="1" parent="1">
          <mxGeometry x="840" y="1370" width="60" height="30" as="geometry" />
        </mxCell>
        <mxCell id="OJ_15BZ6CnOvVyB0WR51-45" value="M/PRIMA" style="text;html=1;align=center;verticalAlign=middle;whiteSpace=wrap;rounded=0;" vertex="1" parent="1">
          <mxGeometry x="670" y="1370" width="60" height="30" as="geometry" />
        </mxCell>
        <mxCell id="OJ_15BZ6CnOvVyB0WR51-46" value="PREÃO DE CUSTO" style="text;html=1;align=center;verticalAlign=middle;whiteSpace=wrap;rounded=0;" vertex="1" parent="1">
          <mxGeometry x="660" y="1410" width="140" height="30" as="geometry" />
        </mxCell>
        <mxCell id="OJ_15BZ6CnOvVyB0WR51-47" value="VENDA" style="text;html=1;align=center;verticalAlign=middle;whiteSpace=wrap;rounded=0;" vertex="1" parent="1">
          <mxGeometry x="870" y="1410" width="60" height="30" as="geometry" />
        </mxCell>
        <mxCell id="OJ_15BZ6CnOvVyB0WR51-48" value="COR" style="text;html=1;align=center;verticalAlign=middle;whiteSpace=wrap;rounded=0;" vertex="1" parent="1">
          <mxGeometry x="660" y="1320" width="60" height="30" as="geometry" />
        </mxCell>
        <mxCell id="OJ_15BZ6CnOvVyB0WR51-49" value="CONFIRMAR" style="rounded=0;whiteSpace=wrap;html=1;fillColor=#66FF66;" vertex="1" parent="1">
          <mxGeometry x="755" y="1499.5" width="130" height="30" as="geometry" />
        </mxCell>
        <mxCell id="OJ_15BZ6CnOvVyB0WR51-50" value="CANCELAR" style="rounded=0;whiteSpace=wrap;html=1;fillColor=#FF3333;" vertex="1" parent="1">
          <mxGeometry x="755" y="1550" width="130" height="30" as="geometry" />
        </mxCell>
        <mxCell id="OJ_15BZ6CnOvVyB0WR51-52" value="" style="rounded=1;whiteSpace=wrap;html=1;fillColor=#B266FF;" vertex="1" parent="1">
          <mxGeometry x="1050" y="1180" width="310" height="500" as="geometry" />
        </mxCell>
      </root>
    </mxGraphModel>
  </diagram>
</mxfile>
